999
dxfrw 0.6.3
  0
SECTION
  2
HEADER
  9
$ACADVER
  1
AC1021
  9
$DWGCODEPAGE
  3
ANSI_1252
  9
$INSBASE
 10
0
 20
0
 30
0
  9
$EXTMIN
 10
-115
 20
-115
 30
0
  9
$EXTMAX
 10
115
 20
115
 30
0
  9
$LIMMIN
 10
0
 20
0
  9
$LIMMAX
 10
420
 20
297
  9
$ORTHOMODE
 70
    0
  9
$REGENMODE
 70
    1
  9
$FILLMODE
 70
    1
  9
$QTEXTMODE
 70
    0
  9
$MIRRTEXT
 70
    0
  9
$LTSCALE
 40
1
  9
$ATTMODE
 70
    0
  9
$TEXTSIZE
 40
2.5
  9
$TRACEWID
 40
15.68
  9
$TEXTSTYLE
  7
STANDARD
  9
$CLAYER
  8
burn
  9
$CELTYPE
  6
BYLAYER
  9
$CECOLOR
 62
  256
  9
$CELTSCALE
 40
1
  9
$DISPSILH
 70
    0
  9
$DIMSCALE
 40
2.5
  9
$DIMASZ
 40
2.5
  9
$DIMEXO
 40
0.625
  9
$DIMDLI
 40
3.75
  9
$DIMRND
 40
0
  9
$DIMDLE
 40
0
  9
$DIMEXE
 40
1.25
  9
$DIMTP
 40
0
  9
$DIMTM
 40
0
  9
$DIMTXT
 40
2.5
  9
$DIMCEN
 40
2.5
  9
$DIMTSZ
 40
0
  9
$DIMTOL
 70
    0
  9
$DIMLIM
 70
    0
  9
$DIMTIH
 70
    0
  9
$DIMTOH
 70
    0
  9
$DIMSE1
 70
    0
  9
$DIMSE2
 70
    0
  9
$DIMTAD
 70
    1
  9
$DIMZIN
 70
    8
  9
$DIMBLK
  1

  9
$DIMASO
 70
    1
  9
$DIMSHO
 70
    1
  9
$DIMPOST
  1

  9
$DIMAPOST
  1

  9
$DIMALT
 70
    0
  9
$DIMALTD
 70
    3
  9
$DIMALTF
 40
0.03937
  9
$DIMLFAC
 40
1
  9
$DIMTOFL
 70
    1
  9
$DIMTVP
 40
0
  9
$DIMTIX
 70
    0
  9
$DIMSOXD
 70
    0
  9
$DIMSAH
 70
    0
  9
$DIMBLK1
  1

  9
$DIMBLK2
  1

  9
$DIMSTYLE
  2
STANDARD
  9
$DIMCLRD
 70
    0
  9
$DIMCLRE
 70
    0
  9
$DIMCLRT
 70
    0
  9
$DIMTFAC
 40
1
  9
$DIMGAP
 40
0.625
  9
$DIMJUST
 70
    0
  9
$DIMSD1
 70
    0
  9
$DIMSD2
 70
    0
  9
$DIMTOLJ
 70
    0
  9
$DIMTZIN
 70
    8
  9
$DIMALTZ
 70
    0
  9
$DIMALTTZ
 70
    0
  9
$DIMUPT
 70
    0
  9
$DIMDEC
 70
    2
  9
$DIMTDEC
 70
    2
  9
$DIMALTU
 70
    2
  9
$DIMALTTD
 70
    3
  9
$DIMTXSTY
  7
standard
  9
$DIMAUNIT
 70
    0
  9
$DIMADEC
 70
    0
  9
$DIMALTRND
 40
0
  9
$DIMAZIN
 70
    0
  9
$DIMDSEP
 70
   44
  9
$DIMATFIT
 70
    3
  9
$DIMFRAC
 70
    0
  9
$DIMLDRBLK
  1
STANDARD
  9
$DIMLUNIT
 70
    2
  9
$DIMLWD
 70
   -2
  9
$DIMLWE
 70
   -2
  9
$DIMTMOVE
 70
    0
  9
$DIMFXL
 40
1
  9
$DIMFXLON
 70
    0
  9
$DIMJOGANG
 40
0.7854
  9
$DIMTFILL
 70
    0
  9
$DIMTFILLCLR
 70
    0
  9
$DIMARCSYM
 70
    0
  9
$DIMLTYPE
  6

  9
$DIMLTEX1
  6

  9
$DIMLTEX2
  6

  9
$LUNITS
 70
    2
  9
$LUPREC
 70
    4
  9
$SKETCHINC
 40
1
  9
$FILLETRAD
 40
0
  9
$AUNITS
 70
    0
  9
$AUPREC
 70
    2
  9
$MENU
  1
.
  9
$ELEVATION
 40
0
  9
$PELEVATION
 40
0
  9
$THICKNESS
 40
0
  9
$LIMCHECK
 70
    0
  9
$CHAMFERA
 40
0
  9
$CHAMFERB
 40
0
  9
$CHAMFERC
 40
0
  9
$CHAMFERD
 40
0
  9
$SKPOLY
 70
    0
  9
$USRTIMER
 70
    1
  9
$ANGBASE
 50
0
  9
$ANGDIR
 70
    0
  9
$PDMODE
 70
   34
  9
$PDSIZE
 40
0
  9
$PLINEWID
 40
0
  9
$SPLFRAME
 70
    0
  9
$SPLINETYPE
 70
    2
  9
$SPLINESEGS
 70
    8
  9
$HANDSEED
  5
20000
  9
$SURFTAB1
 70
    6
  9
$SURFTAB2
 70
    6
  9
$SURFTYPE
 70
    6
  9
$SURFU
 70
    6
  9
$SURFV
 70
    6
  9
$UCSBASE
  2

  9
$UCSNAME
  2

  9
$UCSORG
 10
0
 20
0
 30
0
  9
$UCSXDIR
 10
1
 20
0
 30
0
  9
$UCSYDIR
 10
0
 20
1
 30
0
  9
$UCSORTHOREF
  2

  9
$UCSORTHOVIEW
 70
    0
  9
$UCSORGTOP
 10
0
 20
0
 30
0
  9
$UCSORGBOTTOM
 10
0
 20
0
 30
0
  9
$UCSORGLEFT
 10
0
 20
0
 30
0
  9
$UCSORGRIGHT
 10
0
 20
0
 30
0
  9
$UCSORGFRONT
 10
0
 20
0
 30
0
  9
$UCSORGBACK
 10
0
 20
0
 30
0
  9
$PUCSBASE
  2

  9
$PUCSNAME
  2

  9
$PUCSORG
 10
0
 20
0
 30
0
  9
$PUCSXDIR
 10
1
 20
0
 30
0
  9
$PUCSYDIR
 10
0
 20
1
 30
0
  9
$PUCSORTHOREF
  2

  9
$PUCSORTHOVIEW
 70
    0
  9
$PUCSORGTOP
 10
0
 20
0
 30
0
  9
$PUCSORGBOTTOM
 10
0
 20
0
 30
0
  9
$PUCSORGLEFT
 10
0
 20
0
 30
0
  9
$PUCSORGRIGHT
 10
0
 20
0
 30
0
  9
$PUCSORGFRONT
 10
0
 20
0
 30
0
  9
$PUCSORGBACK
 10
0
 20
0
 30
0
  9
$USERI1
 70
    0
  9
$USERI2
 70
    0
  9
$USERI3
 70
    0
  9
$USERI4
 70
    0
  9
$USERI5
 70
    0
  9
$USERR1
 40
0
  9
$USERR2
 40
0
  9
$USERR3
 40
0
  9
$USERR4
 40
0
  9
$USERR5
 40
0
  9
$WORLDVIEW
 70
    1
  9
$SHADEDGE
 70
    3
  9
$SHADEDIF
 70
   70
  9
$TILEMODE
 70
    1
  9
$MAXACTVP
 70
   64
  9
$PINSBASE
 10
104.7519675190786
 20
148.9960649618433
 30
0
  9
$PLIMCHECK
 70
    0
  9
$PEXTMIN
 10
0
 20
0
 30
0
  9
$PEXTMAX
 10
0
 20
0
 30
0
  9
$GRIDMODE
 70
    1
  9
$SNAPSTYLE
 70
    0
  9
$GRIDUNIT
 10
0
 20
0
  9
$PLIMMIN
 10
0
 20
0
  9
$PLIMMAX
 10
210
 20
297
  9
$UNITMODE
 70
    0
  9
$VISRETAIN
 70
    1
  9
$PLINEGEN
 70
    0
  9
$PSLTSCALE
 70
    1
  9
$TREEDEPTH
 70
 3020
  9
$CMLSTYLE
  2
Standard
  9
$CMLJUST
 70
    0
  9
$CMLSCALE
 40
20
  9
$PROXYGRAPHICS
 70
    1
  9
$MEASUREMENT
 70
    1
  9
$CELWEIGHT
370
   -1
  9
$ENDCAPS
280
    0
  9
$JOINSTYLE
280
    0
  9
$LWDISPLAY
290
    0
  9
$INSUNITS
 70
    4
  9
$HYPERLINKBASE
  1

  9
$STYLESHEET
  1

  9
$XEDIT
290
    1
  9
$CEPSNTYPE
380
    0
  9
$PSTYLEMODE
290
    1
  9
$EXTNAMES
290
    1
  9
$PSVPSCALE
 40
0.8043499243911072
  9
$OLESTARTUP
290
    0
  9
$SORTENTS
280
  127
  9
$INDEXCTL
280
    0
  9
$HIDETEXT
280
    1
  9
$XCLIPFRAME
290
    0
  9
$HALOGAP
280
    0
  9
$OBSCOLOR
 70
  257
  9
$OBSLTYPE
280
    0
  9
$INTERSECTIONDISPLAY
280
    0
  9
$INTERSECTIONCOLOR
 70
  257
  9
$DIMASSOC
280
    1
  9
$PROJECTNAME
  1

  9
$CAMERADISPLAY
290
    0
  9
$LENSLENGTH
 40
50
  9
$CAMERAHEIGHT
 40
0
  9
$STEPSPERSEC
 40
2
  9
$STEPSIZE
 40
50
  9
$3DDWFPREC
 40
2
  9
$PSOLWIDTH
 40
5
  9
$PSOLHEIGHT
 40
80
  9
$LOFTANG1
 40
1.570796326794897
  9
$LOFTANG2
 40
1.570796326794897
  9
$LOFTMAG1
 40
0
  9
$LOFTMAG2
 40
0
  9
$LOFTPARAM
 70
    7
  9
$LOFTNORMALS
280
    1
  9
$LATITUDE
 40
1
  9
$LONGITUDE
 40
1
  9
$NORTHDIRECTION
 40
0
  9
$TIMEZONE
 70
-8000
  9
$LIGHTGLYPHDISPLAY
280
    1
  9
$TILEMODELIGHTSYNCH
280
    1
  9
$SOLIDHIST
280
    1
  9
$SHOWHIST
280
    1
  9
$DWFFRAME
280
    2
  9
$DGNFRAME
280
    0
  9
$REALWORLDSCALE
290
    1
  9
$INTERFERECOLOR
 62
    1
  9
$CSHADOW
280
    0
  9
$SHADOWPLANELOCATION
 40
0
  0
ENDSEC
  0
SECTION
  2
CLASSES
  0
ENDSEC
  0
SECTION
  2
TABLES
  0
TABLE
  2
VPORT
  5
8
330
0
100
AcDbSymbolTable
 70
    1
  0
VPORT
  5
31
330
2
100
AcDbSymbolTableRecord
100
AcDbViewportTableRecord
  2
*ACTIVE
 70
    0
 10
0
 20
0
 11
1
 21
1
 12
98.14432270013478
 22
61.17516078618267
 13
0
 23
0
 14
10
 24
10
 15
10
 25
10
 16
0
 26
0
 36
1
 17
0
 27
0
 37
0
 40
242.3533947692416
 41
1.905569007263922
 42
50
 43
0
 44
0
 50
0
 51
0
 71
    0
 72
  100
 73
    1
 74
    3
 75
    0
 76
    1
 77
    0
 78
    0
281
    0
 65
    1
110
0
120
0
130
0
111
1
121
0
131
0
112
0
122
1
132
0
 79
    0
146
0
348
10020
 60
    7
 61
    5
292
1
282
    1
141
0
142
0
 63
  250
421
3358443
  0
ENDTAB
  0
TABLE
  2
LTYPE
  5
5
330
0
100
AcDbSymbolTable
 70
    4
  0
LTYPE
  5
14
330
5
100
AcDbSymbolTableRecord
100
AcDbLinetypeTableRecord
  2
ByBlock
 70
    0
  3

 72
   65
 73
    0
 40
0
  0
LTYPE
  5
15
330
5
100
AcDbSymbolTableRecord
100
AcDbLinetypeTableRecord
  2
ByLayer
 70
    0
  3

 72
   65
 73
    0
 40
0
  0
LTYPE
  5
16
330
5
100
AcDbSymbolTableRecord
100
AcDbLinetypeTableRecord
  2
Continuous
 70
    0
  3
Solid line
 72
   65
 73
    0
 40
0
  0
LTYPE
  5
32
330
5
100
AcDbSymbolTableRecord
100
AcDbLinetypeTableRecord
  2
DOT
 70
    0
  3
Dot . . . . . . . . . . . . . . . . . . . . . .
 72
   65
 73
    2
 40
6.35
 49
0
 74
    0
 49
-6.35
 74
    0
  0
LTYPE
  5
33
330
5
100
AcDbSymbolTableRecord
100
AcDbLinetypeTableRecord
  2
DOTTINY
 70
    0
  3
Dot (.15x) .....................................
 72
   65
 73
    2
 40
0.9525
 49
0
 74
    0
 49
-0.9525
 74
    0
  0
LTYPE
  5
34
330
5
100
AcDbSymbolTableRecord
100
AcDbLinetypeTableRecord
  2
DOT2
 70
    0
  3
Dot (.5x) .....................................
 72
   65
 73
    2
 40
3.175
 49
0
 74
    0
 49
-3.175
 74
    0
  0
LTYPE
  5
35
330
5
100
AcDbSymbolTableRecord
100
AcDbLinetypeTableRecord
  2
DOTX2
 70
    0
  3
Dot (2x) .  .  .  .  .  .  .  .  .  .  .  .  .
 72
   65
 73
    2
 40
12.7
 49
0
 74
    0
 49
-12.7
 74
    0
  0
LTYPE
  5
36
330
5
100
AcDbSymbolTableRecord
100
AcDbLinetypeTableRecord
  2
DASHED
 70
    0
  3
Dashed _ _ _ _ _ _ _ _ _ _ _ _ _ _ _ _ _
 72
   65
 73
    2
 40
19.05
 49
12.7
 74
    0
 49
-6.35
 74
    0
  0
LTYPE
  5
37
330
5
100
AcDbSymbolTableRecord
100
AcDbLinetypeTableRecord
  2
DASHEDTINY
 70
    0
  3
Dashed (.15x) _ _ _ _ _ _ _ _ _ _ _ _ _ _ _ _ _
 72
   65
 73
    2
 40
2.8575
 49
1.905
 74
    0
 49
-0.9525
 74
    0
  0
LTYPE
  5
38
330
5
100
AcDbSymbolTableRecord
100
AcDbLinetypeTableRecord
  2
DASHED2
 70
    0
  3
Dashed (.5x) _ _ _ _ _ _ _ _ _ _ _ _ _ _ _ _ _
 72
   65
 73
    2
 40
9.524999999999999
 49
6.35
 74
    0
 49
-3.175
 74
    0
  0
LTYPE
  5
39
330
5
100
AcDbSymbolTableRecord
100
AcDbLinetypeTableRecord
  2
DASHEDX2
 70
    0
  3
Dashed (2x) ____  ____  ____  ____  ____  ___
 72
   65
 73
    2
 40
38.09999999999999
 49
25.4
 74
    0
 49
-12.7
 74
    0
  0
LTYPE
  5
3A
330
5
100
AcDbSymbolTableRecord
100
AcDbLinetypeTableRecord
  2
DASHDOT
 70
    0
  3
Dash dot __ . __ . __ . __ . __ . __ . __ . __
 72
   65
 73
    4
 40
25.4
 49
12.7
 74
    0
 49
-6.35
 74
    0
 49
0
 74
    0
 49
-6.35
 74
    0
  0
LTYPE
  5
3B
330
5
100
AcDbSymbolTableRecord
100
AcDbLinetypeTableRecord
  2
DASHDOTTINY
 70
    0
  3
Dash dot (.15x) _._._._._._._._._._._._._._._.
 72
   65
 73
    4
 40
3.81
 49
1.905
 74
    0
 49
-0.9525
 74
    0
 49
0
 74
    0
 49
-0.9525
 74
    0
  0
LTYPE
  5
3C
330
5
100
AcDbSymbolTableRecord
100
AcDbLinetypeTableRecord
  2
DASHDOT2
 70
    0
  3
Dash dot (.5x) _._._._._._._._._._._._._._._.
 72
   65
 73
    4
 40
12.7
 49
6.35
 74
    0
 49
-3.175
 74
    0
 49
0
 74
    0
 49
-3.175
 74
    0
  0
LTYPE
  5
3D
330
5
100
AcDbSymbolTableRecord
100
AcDbLinetypeTableRecord
  2
DASHDOTX2
 70
    0
  3
Dash dot (2x) ____  .  ____  .  ____  .  ___
 72
   65
 73
    4
 40
50.8
 49
25.4
 74
    0
 49
-12.7
 74
    0
 49
0
 74
    0
 49
-12.7
 74
    0
  0
LTYPE
  5
3E
330
5
100
AcDbSymbolTableRecord
100
AcDbLinetypeTableRecord
  2
DIVIDE
 70
    0
  3
Divide ____ . . ____ . . ____ . . ____ . . ____
 72
   65
 73
    6
 40
31.75
 49
12.7
 74
    0
 49
-6.35
 74
    0
 49
0
 74
    0
 49
-6.35
 74
    0
 49
0
 74
    0
 49
-6.35
 74
    0
  0
LTYPE
  5
3F
330
5
100
AcDbSymbolTableRecord
100
AcDbLinetypeTableRecord
  2
DIVIDETINY
 70
    0
  3
Divide (.15x) __..__..__..__..__..__..__..__.._
 72
   65
 73
    6
 40
4.7625
 49
1.905
 74
    0
 49
-0.9525
 74
    0
 49
0
 74
    0
 49
-0.9525
 74
    0
 49
0
 74
    0
 49
-0.9525
 74
    0
  0
LTYPE
  5
40
330
5
100
AcDbSymbolTableRecord
100
AcDbLinetypeTableRecord
  2
DIVIDE2
 70
    0
  3
Divide (.5x) __..__..__..__..__..__..__..__.._
 72
   65
 73
    6
 40
15.875
 49
6.35
 74
    0
 49
-3.175
 74
    0
 49
0
 74
    0
 49
-3.175
 74
    0
 49
0
 74
    0
 49
-3.175
 74
    0
  0
LTYPE
  5
41
330
5
100
AcDbSymbolTableRecord
100
AcDbLinetypeTableRecord
  2
DIVIDEX2
 70
    0
  3
Divide (2x) ________  .  .  ________  .  .  _
 72
   65
 73
    6
 40
63.5
 49
25.4
 74
    0
 49
-12.7
 74
    0
 49
0
 74
    0
 49
-12.7
 74
    0
 49
0
 74
    0
 49
-12.7
 74
    0
  0
LTYPE
  5
42
330
5
100
AcDbSymbolTableRecord
100
AcDbLinetypeTableRecord
  2
BORDER
 70
    0
  3
Border __ __ . __ __ . __ __ . __ __ . __ __ .
 72
   65
 73
    6
 40
44.45
 49
12.7
 74
    0
 49
-6.35
 74
    0
 49
12.7
 74
    0
 49
-6.35
 74
    0
 49
0
 74
    0
 49
-6.35
 74
    0
  0
LTYPE
  5
43
330
5
100
AcDbSymbolTableRecord
100
AcDbLinetypeTableRecord
  2
BORDERTINY
 70
    0
  3
Border (.15x) __.__.__.__.__.__.__.__.__.__.__.
 72
   65
 73
    6
 40
6.6675
 49
1.905
 74
    0
 49
-0.9525
 74
    0
 49
1.905
 74
    0
 49
-0.9525
 74
    0
 49
0
 74
    0
 49
-0.9525
 74
    0
  0
LTYPE
  5
44
330
5
100
AcDbSymbolTableRecord
100
AcDbLinetypeTableRecord
  2
BORDER2
 70
    0
  3
Border (.5x) __.__.__.__.__.__.__.__.__.__.__.
 72
   65
 73
    6
 40
22.225
 49
6.35
 74
    0
 49
-3.175
 74
    0
 49
6.35
 74
    0
 49
-3.175
 74
    0
 49
0
 74
    0
 49
-3.175
 74
    0
  0
LTYPE
  5
45
330
5
100
AcDbSymbolTableRecord
100
AcDbLinetypeTableRecord
  2
BORDERX2
 70
    0
  3
Border (2x) ____  ____  .  ____  ____  .  ___
 72
   65
 73
    6
 40
88.89999999999999
 49
25.4
 74
    0
 49
-12.7
 74
    0
 49
25.4
 74
    0
 49
-12.7
 74
    0
 49
0
 74
    0
 49
-12.7
 74
    0
  0
LTYPE
  5
46
330
5
100
AcDbSymbolTableRecord
100
AcDbLinetypeTableRecord
  2
CENTER
 70
    0
  3
Center ____ _ ____ _ ____ _ ____ _ ____ _ ____
 72
   65
 73
    4
 40
50.8
 49
31.75
 74
    0
 49
-6.35
 74
    0
 49
6.35
 74
    0
 49
-6.35
 74
    0
  0
LTYPE
  5
47
330
5
100
AcDbSymbolTableRecord
100
AcDbLinetypeTableRecord
  2
CENTERTINY
 70
    0
  3
Center (.15x) ___ _ ___ _ ___ _ ___ _ ___ _ ___
 72
   65
 73
    4
 40
7.619999999999999
 49
4.7625
 74
    0
 49
-0.9525
 74
    0
 49
0.9525
 74
    0
 49
-0.9525
 74
    0
  0
LTYPE
  5
48
330
5
100
AcDbSymbolTableRecord
100
AcDbLinetypeTableRecord
  2
CENTER2
 70
    0
  3
Center (.5x) ___ _ ___ _ ___ _ ___ _ ___ _ ___
 72
   65
 73
    4
 40
28.575
 49
19.05
 74
    0
 49
-3.175
 74
    0
 49
3.175
 74
    0
 49
-3.175
 74
    0
  0
LTYPE
  5
49
330
5
100
AcDbSymbolTableRecord
100
AcDbLinetypeTableRecord
  2
CENTERX2
 70
    0
  3
Center (2x) ________  __  ________  __  _____
 72
   65
 73
    4
 40
101.6
 49
63.5
 74
    0
 49
-12.7
 74
    0
 49
12.7
 74
    0
 49
-12.7
 74
    0
  0
ENDTAB
  0
TABLE
  2
LAYER
  5
2
330
0
100
AcDbSymbolTable
 70
    1
  0
LAYER
  5
10
330
2
100
AcDbSymbolTableRecord
100
AcDbLayerTableRecord
  2
0
 70
    0
 62
    7
  6
CONTINUOUS
370
    0
390
F
  0
LAYER
  5
4A
330
2
100
AcDbSymbolTableRecord
100
AcDbLayerTableRecord
  2
burn
 70
    0
 62
    7
  6
CONTINUOUS
370
   50
390
F
  0
LAYER
  5
4B
330
2
100
AcDbSymbolTableRecord
100
AcDbLayerTableRecord
  2
cut
 70
    0
 62
    7
  6
CONTINUOUS
370
    0
390
F
  0
LAYER
  5
4C
330
2
100
AcDbSymbolTableRecord
100
AcDbLayerTableRecord
  2
guide
 70
    0
 62
    7
  6
DASHDOTTINY
370
    0
390
F
  0
ENDTAB
  0
TABLE
  2
STYLE
  5
3
330
0
100
AcDbSymbolTable
 70
    3
  0
STYLE
  5
4D
330
2
100
AcDbSymbolTableRecord
100
AcDbTextStyleTableRecord
  2
standard
 70
    0
 40
0
 41
1
 50
0
 71
    0
 42
1
  3
standard
  4

  0
ENDTAB
  0
TABLE
  2
VIEW
  5
6
330
0
100
AcDbSymbolTable
 70
    0
  0
ENDTAB
  0
TABLE
  2
UCS
  5
7
330
0
100
AcDbSymbolTable
 70
    0
  0
ENDTAB
  0
TABLE
  2
APPID
  5
9
330
0
100
AcDbSymbolTable
 70
    1
  0
APPID
  5
12
330
9
100
AcDbSymbolTableRecord
100
AcDbRegAppTableRecord
  2
ACAD
 70
    0
  0
APPID
  5
4E
330
9
100
AcDbSymbolTableRecord
100
AcDbRegAppTableRecord
  2
LibreCad
 70
    0
  0
ENDTAB
  0
TABLE
  2
DIMSTYLE
  5
A
330
0
100
AcDbSymbolTable
 70
    1
100
AcDbDimStyleTable
 71
    1
  0
DIMSTYLE
105
4F
330
A
100
AcDbSymbolTableRecord
100
AcDbDimStyleTableRecord
  2
Standard
 70
    0
 40
2.5
 41
2.5
 42
0.625
 43
0.38
 44
1.25
 45
0
 46
0
 47
0
 48
0
 49
1
140
2.5
141
0.09
142
0
143
25.4
144
1
145
0
146
1
147
0.625
148
0
 71
    0
 72
    0
 73
    0
 74
    1
 75
    0
 76
    0
 77
    0
 78
    8
 79
    0
170
    0
171
    2
172
    0
173
    0
174
    0
175
    0
176
    0
177
    0
178
    0
179
    0
271
    2
272
    4
273
    2
274
    2
275
    0
276
    0
277
    2
278
   44
279
    0
280
    0
281
    0
282
    0
283
    1
284
    0
285
    0
286
    0
288
    0
289
    3
340
standard
341

371
   -2
372
   -2
  0
ENDTAB
  0
TABLE
  2
BLOCK_RECORD
  5
1
330
0
100
AcDbSymbolTable
 70
    2
  0
BLOCK_RECORD
  5
1F
330
1
100
AcDbSymbolTableRecord
100
AcDbBlockTableRecord
  2
*Model_Space
 70
    0
280
    1
281
    0
  0
BLOCK_RECORD
  5
1E
330
1
100
AcDbSymbolTableRecord
100
AcDbBlockTableRecord
  2
*Paper_Space
 70
    0
280
    1
281
    0
  0
ENDTAB
  0
ENDSEC
  0
SECTION
  2
BLOCKS
  0
BLOCK
  5
20
330
1F
100
AcDbEntity
  8
0
100
AcDbBlockBegin
  2
*Model_Space
 70
    0
 10
0
 20
0
 30
0
  3
*Model_Space
  1

  0
ENDBLK
  5
21
330
1F
100
AcDbEntity
  8
0
100
AcDbBlockEnd
  0
BLOCK
  5
1C
330
1B
100
AcDbEntity
  8
0
100
AcDbBlockBegin
  2
*Paper_Space
 70
    0
 10
0
 20
0
 30
0
  3
*Paper_Space
  1

  0
ENDBLK
  5
1D
330
1F
100
AcDbEntity
  8
0
100
AcDbBlockEnd
  0
ENDSEC
  0
SECTION
  2
ENTITIES
  0
LWPOLYLINE
  5
50
100
AcDbEntity
  8
cut
  6
ByLayer
 62
  256
370
   -1
100
AcDbPolyline
 90
    4
 70
    1
 43
0
 10
69.87785383394827
 20
4.83068769031506
 10
74.85046331078964
 20
5.353330006653327
 10
74.32782099445136
 20
10.32593948349469
 10
69.35521151760999
 20
9.803297167156426
  0
LWPOLYLINE
  5
51
100
AcDbEntity
  8
cut
  6
ByLayer
 62
  256
370
   -1
100
AcDbPolyline
 90
    4
 70
    1
 43
0
 10
68.99011127841079
 20
12.10844935540864
 10
73.88084928207982
 20
13.14800780949744
 10
72.84129082799103
 20
18.03874581316646
 10
67.950552824322
 20
16.99918735907767
  0
LWPOLYLINE
  5
52
100
AcDbEntity
  8
cut
  6
ByLayer
 62
  256
370
   -1
100
AcDbPolyline
 90
    4
 70
    1
 43
0
 10
67.34649862659811
 20
19.25354831550843
 10
72.10178120807387
 20
20.79863328738317
 10
70.55669623619914
 20
25.55391586885894
 10
65.80141365472338
 20
24.0088308969842
  0
LWPOLYLINE
  5
53
100
AcDbEntity
  8
cut
  6
ByLayer
 62
  256
370
   -1
100
AcDbPolyline
 90
    4
 70
    1
 43
0
 10
64.96502364267157
 20
26.18770137119951
 10
69.53275093088456
 20
28.22138458657851
 10
67.49906771550556
 20
32.78911187479152
 10
62.93134042729256
 20
30.75542865941252
  0
LWPOLYLINE
  5
54
100
AcDbEntity
  8
cut
  6
ByLayer
 62
  256
370
   -1
100
AcDbPolyline
 90
    4
 70
    1
 43
0
 10
61.8717782649107
 20
32.8349364905389
 10
66.2019052838329
 20
35.3349364905389
 10
63.7019052838329
 20
39.6650635094611
 10
59.3717782649107
 20
37.1650635094611
  0
LWPOLYLINE
  5
55
100
AcDbEntity
  8
cut
  6
ByLayer
 62
  256
370
   -1
100
AcDbPolyline
 90
    4
 70
    1
 43
0
 10
58.10065273697751
 20
39.12242517453575
 10
62.14573770885224
 20
42.06135143599811
 10
59.20681144738987
 20
46.10643640787286
 10
55.16172647551514
 20
43.16751014641049
  0
LWPOLYLINE
  5
56
100
AcDbEntity
  8
cut
  6
ByLayer
 62
  256
370
   -1
100
AcDbPolyline
 90
    4
 70
    1
 43
0
 10
53.69296429931474
 20
44.98128038142659
 10
57.40868842670171
 20
48.32693341322088
 10
54.06303539490742
 20
52.04265754060786
 10
50.34731126752045
 20
48.69700450881356
  0
LWPOLYLINE
  5
57
100
AcDbEntity
  8
cut
  6
ByLayer
 62
  256
370
   -1
100
AcDbPolyline
 90
    4
 70
    1
 43
0
 10
48.69700450881356
 20
50.34731126752045
 10
52.04265754060786
 20
54.06303539490742
 10
48.32693341322088
 20
57.40868842670171
 10
44.98128038142659
 20
53.69296429931474
  0
LWPOLYLINE
  5
58
100
AcDbEntity
  8
cut
  6
ByLayer
 62
  256
370
   -1
100
AcDbPolyline
 90
    4
 70
    1
 43
0
 10
43.16751014641049
 20
55.16172647551514
 10
46.10643640787285
 20
59.20681144738987
 10
42.06135143599811
 20
62.14573770885224
 10
39.12242517453574
 20
58.10065273697751
  0
LWPOLYLINE
  5
59
100
AcDbEntity
  8
cut
  6
ByLayer
 62
  256
370
   -1
100
AcDbPolyline
 90
    4
 70
    1
 43
0
 10
37.16506350946109
 20
59.37177826491071
 10
39.66506350946109
 20
63.7019052838329
 10
35.33493649053889
 20
66.2019052838329
 10
32.83493649053889
 20
61.87177826491071
  0
LWPOLYLINE
  5
5A
100
AcDbEntity
  8
cut
  6
ByLayer
 62
  256
370
   -1
100
AcDbPolyline
 90
    4
 70
    1
 43
0
 10
30.75542865941252
 20
62.93134042729256
 10
32.78911187479152
 20
67.49906771550556
 10
28.22138458657851
 20
69.53275093088456
 10
26.18770137119951
 20
64.96502364267157
  0
LWPOLYLINE
  5
5B
100
AcDbEntity
  8
cut
  6
ByLayer
 62
  256
370
   -1
100
AcDbPolyline
 90
    4
 70
    1
 43
0
 10
24.00883089698421
 20
65.80141365472338
 10
25.55391586885894
 20
70.55669623619914
 10
20.79863328738318
 20
72.10178120807387
 10
19.25354831550844
 20
67.34649862659811
  0
LWPOLYLINE
  5
5C
100
AcDbEntity
  8
cut
  6
ByLayer
 62
  256
370
   -1
100
AcDbPolyline
 90
    4
 70
    1
 43
0
 10
16.99918735907766
 20
67.950552824322
 10
18.03874581316646
 20
72.84129082799103
 10
13.14800780949743
 20
73.88084928207982
 10
12.10844935540863
 20
68.99011127841079
  0
LWPOLYLINE
  5
5D
100
AcDbEntity
  8
cut
  6
ByLayer
 62
  256
370
   -1
100
AcDbPolyline
 90
    4
 70
    1
 43
0
 10
9.803297167156426
 20
69.35521151760999
 10
10.32593948349469
 20
74.32782099445136
 10
5.353330006653326
 20
74.85046331078964
 10
4.830687690315059
 20
69.87785383394827
  0
LWPOLYLINE
  5
5E
100
AcDbEntity
  8
cut
  6
ByLayer
 62
  256
370
   -1
100
AcDbPolyline
 90
    4
 70
    1
 43
0
 10
2.499999999999989
 20
70
 10
2.499999999999988
 20
75
 10
-2.500000000000012
 20
75
 10
-2.500000000000011
 20
70
  0
LWPOLYLINE
  5
5F
100
AcDbEntity
  8
cut
  6
ByLayer
 62
  256
370
   -1
100
AcDbPolyline
 90
    4
 70
    1
 43
0
 10
-4.830687690315066
 20
69.87785383394827
 10
-5.353330006653334
 20
74.85046331078964
 10
-10.3259394834947
 20
74.32782099445136
 10
-9.803297167156433
 20
69.35521151760999
  0
LWPOLYLINE
  5
60
100
AcDbEntity
  8
cut
  6
ByLayer
 62
  256
370
   -1
100
AcDbPolyline
 90
    4
 70
    1
 43
0
 10
-12.10844935540864
 20
68.99011127841079
 10
-13.14800780949744
 20
73.88084928207982
 10
-18.03874581316646
 20
72.84129082799103
 10
-16.99918735907767
 20
67.950552824322
  0
LWPOLYLINE
  5
61
100
AcDbEntity
  8
cut
  6
ByLayer
 62
  256
370
   -1
100
AcDbPolyline
 90
    4
 70
    1
 43
0
 10
-19.25354831550845
 20
67.34649862659811
 10
-20.79863328738318
 20
72.10178120807387
 10
-25.55391586885895
 20
70.55669623619914
 10
-24.00883089698421
 20
65.80141365472338
  0
LWPOLYLINE
  5
62
100
AcDbEntity
  8
cut
  6
ByLayer
 62
  256
370
   -1
100
AcDbPolyline
 90
    4
 70
    1
 43
0
 10
-26.18770137119952
 20
64.96502364267157
 10
-28.22138458657852
 20
69.53275093088456
 10
-32.78911187479152
 20
67.49906771550556
 10
-30.75542865941252
 20
62.93134042729256
  0
LWPOLYLINE
  5
63
100
AcDbEntity
  8
cut
  6
ByLayer
 62
  256
370
   -1
100
AcDbPolyline
 90
    4
 70
    1
 43
0
 10
-32.83493649053892
 20
61.8717782649107
 10
-35.33493649053892
 20
66.20190528383289
 10
-39.66506350946111
 20
63.70190528383289
 10
-37.16506350946111
 20
59.3717782649107
  0
LWPOLYLINE
  5
64
100
AcDbEntity
  8
cut
  6
ByLayer
 62
  256
370
   -1
100
AcDbPolyline
 90
    4
 70
    1
 43
0
 10
-39.12242517453574
 20
58.10065273697751
 10
-42.06135143599811
 20
62.14573770885224
 10
-46.10643640787285
 20
59.20681144738987
 10
-43.16751014641049
 20
55.16172647551514
  0
LWPOLYLINE
  5
65
100
AcDbEntity
  8
cut
  6
ByLayer
 62
  256
370
   -1
100
AcDbPolyline
 90
    4
 70
    1
 43
0
 10
-44.98128038142659
 20
53.69296429931474
 10
-48.32693341322088
 20
57.40868842670171
 10
-52.04265754060786
 20
54.06303539490742
 10
-48.69700450881356
 20
50.34731126752045
  0
LWPOLYLINE
  5
66
100
AcDbEntity
  8
cut
  6
ByLayer
 62
  256
370
   -1
100
AcDbPolyline
 90
    4
 70
    1
 43
0
 10
-50.34731126752046
 20
48.69700450881355
 10
-54.06303539490744
 20
52.04265754060784
 10
-57.40868842670172
 20
48.32693341322086
 10
-53.69296429931475
 20
44.98128038142657
  0
LWPOLYLINE
  5
67
100
AcDbEntity
  8
cut
  6
ByLayer
 62
  256
370
   -1
100
AcDbPolyline
 90
    4
 70
    1
 43
0
 10
-55.16172647551513
 20
43.16751014641049
 10
-59.20681144738987
 20
46.10643640787286
 10
-62.14573770885224
 20
42.06135143599812
 10
-58.1006527369775
 20
39.12242517453576
  0
LWPOLYLINE
  5
68
100
AcDbEntity
  8
cut
  6
ByLayer
 62
  256
370
   -1
100
AcDbPolyline
 90
    4
 70
    1
 43
0
 10
-59.37177826491071
 20
37.16506350946109
 10
-63.7019052838329
 20
39.66506350946109
 10
-66.2019052838329
 20
35.33493649053889
 10
-61.87177826491071
 20
32.83493649053889
  0
LWPOLYLINE
  5
69
100
AcDbEntity
  8
cut
  6
ByLayer
 62
  256
370
   -1
100
AcDbPolyline
 90
    4
 70
    1
 43
0
 10
-62.93134042729257
 20
30.75542865941251
 10
-67.49906771550557
 20
32.7891118747915
 10
-69.53275093088457
 20
28.2213845865785
 10
-64.96502364267157
 20
26.1877013711995
  0
LWPOLYLINE
  5
6A
100
AcDbEntity
  8
cut
  6
ByLayer
 62
  256
370
   -1
100
AcDbPolyline
 90
    4
 70
    1
 43
0
 10
-65.80141365472339
 20
24.00883089698418
 10
-70.55669623619916
 20
25.55391586885892
 10
-72.10178120807389
 20
20.79863328738315
 10
-67.34649862659812
 20
19.25354831550841
  0
LWPOLYLINE
  5
6B
100
AcDbEntity
  8
cut
  6
ByLayer
 62
  256
370
   -1
100
AcDbPolyline
 90
    4
 70
    1
 43
0
 10
-67.950552824322
 20
16.99918735907767
 10
-72.84129082799103
 20
18.03874581316646
 10
-73.88084928207982
 20
13.14800780949743
 10
-68.99011127841079
 20
12.10844935540864
  0
LWPOLYLINE
  5
6C
100
AcDbEntity
  8
cut
  6
ByLayer
 62
  256
370
   -1
100
AcDbPolyline
 90
    4
 70
    1
 43
0
 10
-69.35521151761
 20
9.803297167156414
 10
-74.32782099445137
 20
10.32593948349468
 10
-74.85046331078965
 20
5.353330006653313
 10
-69.87785383394828
 20
4.830687690315047
  0
LWPOLYLINE
  5
6D
100
AcDbEntity
  8
cut
  6
ByLayer
 62
  256
370
   -1
100
AcDbPolyline
 90
    4
 70
    1
 43
0
 10
-70
 20
2.499999999999977
 10
-75
 20
2.499999999999976
 10
-75
 20
-2.500000000000024
 10
-70
 20
-2.500000000000023
  0
LWPOLYLINE
  5
6E
100
AcDbEntity
  8
cut
  6
ByLayer
 62
  256
370
   -1
100
AcDbPolyline
 90
    4
 70
    1
 43
0
 10
-69.87785383394827
 20
-4.830687690315061
 10
-74.85046331078964
 20
-5.353330006653329
 10
-74.32782099445136
 20
-10.3259394834947
 10
-69.35521151760999
 20
-9.803297167156428
  0
LWPOLYLINE
  5
6F
100
AcDbEntity
  8
cut
  6
ByLayer
 62
  256
370
   -1
100
AcDbPolyline
 90
    4
 70
    1
 43
0
 10
-68.99011127841078
 20
-12.10844935540865
 10
-73.88084928207981
 20
-13.14800780949745
 10
-72.84129082799102
 20
-18.03874581316648
 10
-67.95055282432199
 20
-16.99918735907768
  0
LWPOLYLINE
  5
70
100
AcDbEntity
  8
cut
  6
ByLayer
 62
  256
370
   -1
100
AcDbPolyline
 90
    4
 70
    1
 43
0
 10
-67.34649862659811
 20
-19.25354831550846
 10
-72.10178120807387
 20
-20.7986332873832
 10
-70.55669623619914
 20
-25.55391586885897
 10
-65.80141365472338
 20
-24.00883089698423
  0
LWPOLYLINE
  5
71
100
AcDbEntity
  8
cut
  6
ByLayer
 62
  256
370
   -1
100
AcDbPolyline
 90
    4
 70
    1
 43
0
 10
-64.96502364267157
 20
-26.18770137119951
 10
-69.53275093088456
 20
-28.22138458657851
 10
-67.49906771550556
 20
-32.78911187479152
 10
-62.93134042729256
 20
-30.75542865941252
  0
LWPOLYLINE
  5
72
100
AcDbEntity
  8
cut
  6
ByLayer
 62
  256
370
   -1
100
AcDbPolyline
 90
    4
 70
    1
 43
0
 10
-61.8717782649107
 20
-32.83493649053891
 10
-66.2019052838329
 20
-35.33493649053891
 10
-63.7019052838329
 20
-39.66506350946111
 10
-59.3717782649107
 20
-37.16506350946111
  0
LWPOLYLINE
  5
73
100
AcDbEntity
  8
cut
  6
ByLayer
 62
  256
370
   -1
100
AcDbPolyline
 90
    4
 70
    1
 43
0
 10
-58.10065273697749
 20
-39.12242517453576
 10
-62.14573770885223
 20
-42.06135143599813
 10
-59.20681144738986
 20
-46.10643640787286
 10
-55.16172647551512
 20
-43.16751014641051
  0
LWPOLYLINE
  5
74
100
AcDbEntity
  8
cut
  6
ByLayer
 62
  256
370
   -1
100
AcDbPolyline
 90
    4
 70
    1
 43
0
 10
-53.69296429931474
 20
-44.98128038142659
 10
-57.40868842670171
 20
-48.32693341322088
 10
-54.06303539490742
 20
-52.04265754060786
 10
-50.34731126752045
 20
-48.69700450881356
  0
LWPOLYLINE
  5
75
100
AcDbEntity
  8
cut
  6
ByLayer
 62
  256
370
   -1
100
AcDbPolyline
 90
    4
 70
    1
 43
0
 10
-48.69700450881356
 20
-50.34731126752046
 10
-52.04265754060785
 20
-54.06303539490744
 10
-48.32693341322087
 20
-57.40868842670172
 10
-44.98128038142658
 20
-53.69296429931475
  0
LWPOLYLINE
  5
76
100
AcDbEntity
  8
cut
  6
ByLayer
 62
  256
370
   -1
100
AcDbPolyline
 90
    4
 70
    1
 43
0
 10
-43.16751014641049
 20
-55.16172647551513
 10
-46.10643640787286
 20
-59.20681144738987
 10
-42.06135143599812
 20
-62.14573770885224
 10
-39.12242517453576
 20
-58.1006527369775
  0
LWPOLYLINE
  5
77
100
AcDbEntity
  8
cut
  6
ByLayer
 62
  256
370
   -1
100
AcDbPolyline
 90
    4
 70
    1
 43
0
 10
-37.16506350946107
 20
-59.37177826491072
 10
-39.66506350946107
 20
-63.70190528383291
 10
-35.33493649053887
 20
-66.20190528383291
 10
-32.83493649053887
 20
-61.87177826491072
  0
LWPOLYLINE
  5
78
100
AcDbEntity
  8
cut
  6
ByLayer
 62
  256
370
   -1
100
AcDbPolyline
 90
    4
 70
    1
 43
0
 10
-30.75542865941251
 20
-62.93134042729257
 10
-32.78911187479151
 20
-67.49906771550557
 10
-28.22138458657851
 20
-69.53275093088457
 10
-26.1877013711995
 20
-64.96502364267157
  0
LWPOLYLINE
  5
79
100
AcDbEntity
  8
cut
  6
ByLayer
 62
  256
370
   -1
100
AcDbPolyline
 90
    4
 70
    1
 43
0
 10
-24.00883089698421
 20
-65.80141365472338
 10
-25.55391586885895
 20
-70.55669623619914
 10
-20.79863328738318
 20
-72.10178120807387
 10
-19.25354831550845
 20
-67.34649862659811
  0
LWPOLYLINE
  5
7A
100
AcDbEntity
  8
cut
  6
ByLayer
 62
  256
370
   -1
100
AcDbPolyline
 90
    4
 70
    1
 43
0
 10
-16.99918735907764
 20
-67.950552824322
 10
-18.03874581316644
 20
-72.84129082799103
 10
-13.14800780949741
 20
-73.88084928207982
 10
-12.10844935540861
 20
-68.99011127841079
  0
LWPOLYLINE
  5
7B
100
AcDbEntity
  8
cut
  6
ByLayer
 62
  256
370
   -1
100
AcDbPolyline
 90
    4
 70
    1
 43
0
 10
-9.803297167156419
 20
-69.35521151761
 10
-10.32593948349469
 20
-74.32782099445137
 10
-5.353330006653318
 20
-74.85046331078965
 10
-4.830687690315052
 20
-69.87785383394828
  0
LWPOLYLINE
  5
7C
100
AcDbEntity
  8
cut
  6
ByLayer
 62
  256
370
   -1
100
AcDbPolyline
 90
    4
 70
    1
 43
0
 10
-2.500000000000013
 20
-70
 10
-2.500000000000014
 20
-75
 10
2.499999999999986
 20
-75
 10
2.499999999999987
 20
-70
  0
LWPOLYLINE
  5
7D
100
AcDbEntity
  8
cut
  6
ByLayer
 62
  256
370
   -1
100
AcDbPolyline
 90
    4
 70
    1
 43
0
 10
4.830687690315088
 20
-69.87785383394827
 10
5.353330006653358
 20
-74.85046331078964
 10
10.32593948349473
 20
-74.32782099445136
 10
9.803297167156455
 20
-69.35521151760999
  0
LWPOLYLINE
  5
7E
100
AcDbEntity
  8
cut
  6
ByLayer
 62
  256
370
   -1
100
AcDbPolyline
 90
    4
 70
    1
 43
0
 10
12.10844935540864
 20
-68.99011127841078
 10
13.14800780949744
 20
-73.88084928207981
 10
18.03874581316647
 20
-72.84129082799102
 10
16.99918735907767
 20
-67.95055282432199
  0
LWPOLYLINE
  5
7F
100
AcDbEntity
  8
cut
  6
ByLayer
 62
  256
370
   -1
100
AcDbPolyline
 90
    4
 70
    1
 43
0
 10
19.25354831550842
 20
-67.34649862659812
 10
20.79863328738316
 20
-72.10178120807389
 10
25.55391586885893
 20
-70.55669623619916
 10
24.00883089698419
 20
-65.80141365472339
  0
LWPOLYLINE
  5
80
100
AcDbEntity
  8
cut
  6
ByLayer
 62
  256
370
   -1
100
AcDbPolyline
 90
    4
 70
    1
 43
0
 10
26.18770137119954
 20
-64.96502364267155
 10
28.22138458657854
 20
-69.53275093088456
 10
32.78911187479154
 20
-67.49906771550556
 10
30.75542865941254
 20
-62.93134042729255
  0
LWPOLYLINE
  5
81
100
AcDbEntity
  8
cut
  6
ByLayer
 62
  256
370
   -1
100
AcDbPolyline
 90
    4
 70
    1
 43
0
 10
32.83493649053891
 20
-61.8717782649107
 10
35.33493649053891
 20
-66.2019052838329
 10
39.66506350946111
 20
-63.7019052838329
 10
37.16506350946111
 20
-59.3717782649107
  0
LWPOLYLINE
  5
82
100
AcDbEntity
  8
cut
  6
ByLayer
 62
  256
370
   -1
100
AcDbPolyline
 90
    4
 70
    1
 43
0
 10
39.12242517453579
 20
-58.10065273697747
 10
42.06135143599816
 20
-62.14573770885221
 10
46.10643640787289
 20
-59.20681144738984
 10
43.16751014641052
 20
-55.1617264755151
  0
LWPOLYLINE
  5
83
100
AcDbEntity
  8
cut
  6
ByLayer
 62
  256
370
   -1
100
AcDbPolyline
 90
    4
 70
    1
 43
0
 10
44.9812803814266
 20
-53.69296429931472
 10
48.3269334132209
 20
-57.4086884267017
 10
52.04265754060786
 20
-54.0630353949074
 10
48.69700450881358
 20
-50.34731126752044
  0
LWPOLYLINE
  5
84
100
AcDbEntity
  8
cut
  6
ByLayer
 62
  256
370
   -1
100
AcDbPolyline
 90
    4
 70
    1
 43
0
 10
50.34731126752045
 20
-48.69700450881356
 10
54.06303539490742
 20
-52.04265754060785
 10
57.40868842670171
 20
-48.32693341322087
 10
53.69296429931474
 20
-44.98128038142658
  0
LWPOLYLINE
  5
85
100
AcDbEntity
  8
cut
  6
ByLayer
 62
  256
370
   -1
100
AcDbPolyline
 90
    4
 70
    1
 43
0
 10
55.16172647551517
 20
-43.16751014641045
 10
59.2068114473899
 20
-46.10643640787281
 10
62.14573770885226
 20
-42.06135143599807
 10
58.10065273697752
 20
-39.12242517453571
  0
LWPOLYLINE
  5
86
100
AcDbEntity
  8
cut
  6
ByLayer
 62
  256
370
   -1
100
AcDbPolyline
 90
    4
 70
    1
 43
0
 10
59.37177826491072
 20
-37.16506350946108
 10
63.70190528383291
 20
-39.66506350946107
 10
66.20190528383291
 20
-35.33493649053887
 10
61.87177826491072
 20
-32.83493649053888
  0
LWPOLYLINE
  5
87
100
AcDbEntity
  8
cut
  6
ByLayer
 62
  256
370
   -1
100
AcDbPolyline
 90
    4
 70
    1
 43
0
 10
62.93134042729257
 20
-30.75542865941252
 10
67.49906771550557
 20
-32.78911187479152
 10
69.53275093088457
 20
-28.22138458657851
 10
64.96502364267157
 20
-26.18770137119951
  0
LWPOLYLINE
  5
88
100
AcDbEntity
  8
cut
  6
ByLayer
 62
  256
370
   -1
100
AcDbPolyline
 90
    4
 70
    1
 43
0
 10
65.8014136547234
 20
-24.00883089698416
 10
70.55669623619917
 20
-25.55391586885889
 10
72.1017812080739
 20
-20.79863328738313
 10
67.34649862659813
 20
-19.25354831550839
  0
LWPOLYLINE
  5
89
100
AcDbEntity
  8
cut
  6
ByLayer
 62
  256
370
   -1
100
AcDbPolyline
 90
    4
 70
    1
 43
0
 10
67.950552824322
 20
-16.99918735907764
 10
72.84129082799103
 20
-18.03874581316644
 10
73.88084928207982
 20
-13.14800780949741
 10
68.99011127841079
 20
-12.10844935540861
  0
LWPOLYLINE
  5
8A
100
AcDbEntity
  8
cut
  6
ByLayer
 62
  256
370
   -1
100
AcDbPolyline
 90
    4
 70
    1
 43
0
 10
69.35521151760999
 20
-9.803297167156423
 10
74.32782099445136
 20
-10.32593948349469
 10
74.85046331078964
 20
-5.353330006653323
 10
69.87785383394827
 20
-4.830687690315056
  0
LWPOLYLINE
  5
8B
100
AcDbEntity
  8
cut
  6
ByLayer
 62
  256
370
   -1
100
AcDbPolyline
 90
    4
 70
    1
 43
0
 10
70
 20
-2.499999999999955
 10
75
 20
-2.499999999999952
 10
75
 20
2.500000000000048
 10
70
 20
2.500000000000045
  0
LWPOLYLINE
  5
8C
100
AcDbEntity
  8
cut
  6
ByLayer
 62
  256
370
   -1
100
AcDbPolyline
 90
    4
 70
    1
 43
0
 10
40
 20
-2.5
 10
45
 20
-2.5
 10
45
 20
2.5
 10
40
 20
2.5
  0
LWPOLYLINE
  5
8D
100
AcDbEntity
  8
cut
  6
ByLayer
 62
  256
370
   -1
100
AcDbPolyline
 90
    4
 70
    1
 43
0
 10
39.28408066431903
 20
7.937947238378159
 10
44.11370979576438
 20
9.232042463890762
 10
42.81961457025177
 20
14.0616715953361
 10
37.98998543880643
 20
12.7675763698235
  0
LWPOLYLINE
  5
8E
100
AcDbEntity
  8
cut
  6
ByLayer
 62
  256
370
   -1
100
AcDbPolyline
 90
    4
 70
    1
 43
0
 10
35.89101615137755
 20
17.8349364905389
 10
40.22114317029974
 20
20.3349364905389
 10
37.72114317029974
 20
24.66506350946109
 10
33.39101615137755
 20
22.16506350946109
  0
LWPOLYLINE
  5
8F
100
AcDbEntity
  8
cut
  6
ByLayer
 62
  256
370
   -1
100
AcDbPolyline
 90
    4
 70
    1
 43
0
 10
30.05203820042827
 20
26.51650429449553
 10
33.58757210636101
 20
30.05203820042827
 10
30.05203820042827
 20
33.58757210636101
 10
26.51650429449553
 20
30.05203820042827
  0
LWPOLYLINE
  5
90
100
AcDbEntity
  8
cut
  6
ByLayer
 62
  256
370
   -1
100
AcDbPolyline
 90
    4
 70
    1
 43
0
 10
22.1650635094611
 20
33.39101615137754
 10
24.6650635094611
 20
37.72114317029974
 10
20.33493649053891
 20
40.22114317029974
 10
17.83493649053891
 20
35.89101615137754
  0
LWPOLYLINE
  5
91
100
AcDbEntity
  8
cut
  6
ByLayer
 62
  256
370
   -1
100
AcDbPolyline
 90
    4
 70
    1
 43
0
 10
12.76757636982351
 20
37.98998543880642
 10
14.06167159533611
 20
42.81961457025177
 10
9.232042463890773
 20
44.11370979576437
 10
7.937947238378168
 20
39.28408066431903
  0
LWPOLYLINE
  5
92
100
AcDbEntity
  8
cut
  6
ByLayer
 62
  256
370
   -1
100
AcDbPolyline
 90
    4
 70
    1
 43
0
 10
2.500000000000003
 20
40
 10
2.500000000000003
 20
45
 10
-2.499999999999997
 20
45
 10
-2.499999999999997
 20
40
  0
LWPOLYLINE
  5
93
100
AcDbEntity
  8
cut
  6
ByLayer
 62
  256
370
   -1
100
AcDbPolyline
 90
    4
 70
    1
 43
0
 10
-7.937947238378156
 20
39.28408066431903
 10
-9.232042463890759
 20
44.11370979576438
 10
-14.0616715953361
 20
42.81961457025177
 10
-12.7675763698235
 20
37.98998543880643
  0
LWPOLYLINE
  5
94
100
AcDbEntity
  8
cut
  6
ByLayer
 62
  256
370
   -1
100
AcDbPolyline
 90
    4
 70
    1
 43
0
 10
-17.8349364905389
 20
35.89101615137755
 10
-20.33493649053889
 20
40.22114317029974
 10
-24.66506350946108
 20
37.72114317029974
 10
-22.16506350946109
 20
33.39101615137755
  0
LWPOLYLINE
  5
95
100
AcDbEntity
  8
cut
  6
ByLayer
 62
  256
370
   -1
100
AcDbPolyline
 90
    4
 70
    1
 43
0
 10
-26.51650429449553
 20
30.05203820042827
 10
-30.05203820042827
 20
33.58757210636101
 10
-33.58757210636101
 20
30.05203820042827
 10
-30.05203820042827
 20
26.51650429449553
  0
LWPOLYLINE
  5
96
100
AcDbEntity
  8
cut
  6
ByLayer
 62
  256
370
   -1
100
AcDbPolyline
 90
    4
 70
    1
 43
0
 10
-33.39101615137754
 20
22.16506350946111
 10
-37.72114317029973
 20
24.66506350946111
 10
-40.22114317029973
 20
20.33493649053892
 10
-35.89101615137754
 20
17.83493649053892
  0
LWPOLYLINE
  5
97
100
AcDbEntity
  8
cut
  6
ByLayer
 62
  256
370
   -1
100
AcDbPolyline
 90
    4
 70
    1
 43
0
 10
-37.98998543880642
 20
12.76757636982351
 10
-42.81961457025177
 20
14.06167159533612
 10
-44.11370979576437
 20
9.232042463890776
 10
-39.28408066431903
 20
7.93794723837817
  0
LWPOLYLINE
  5
98
100
AcDbEntity
  8
cut
  6
ByLayer
 62
  256
370
   -1
100
AcDbPolyline
 90
    4
 70
    1
 43
0
 10
-40
 20
2.500000000000005
 10
-45
 20
2.500000000000005
 10
-45
 20
-2.499999999999995
 10
-40
 20
-2.499999999999995
  0
LWPOLYLINE
  5
99
100
AcDbEntity
  8
cut
  6
ByLayer
 62
  256
370
   -1
100
AcDbPolyline
 90
    4
 70
    1
 43
0
 10
-39.28408066431904
 20
-7.937947238378142
 10
-44.11370979576438
 20
-9.232042463890746
 10
-42.81961457025177
 20
-14.06167159533609
 10
-37.98998543880644
 20
-12.76757636982348
  0
LWPOLYLINE
  5
9A
100
AcDbEntity
  8
cut
  6
ByLayer
 62
  256
370
   -1
100
AcDbPolyline
 90
    4
 70
    1
 43
0
 10
-35.89101615137756
 20
-17.83493649053889
 10
-40.22114317029975
 20
-20.33493649053889
 10
-37.72114317029975
 20
-24.66506350946108
 10
-33.39101615137756
 20
-22.16506350946108
  0
LWPOLYLINE
  5
9B
100
AcDbEntity
  8
cut
  6
ByLayer
 62
  256
370
   -1
100
AcDbPolyline
 90
    4
 70
    1
 43
0
 10
-30.05203820042829
 20
-26.51650429449552
 10
-33.58757210636102
 20
-30.05203820042825
 10
-30.05203820042829
 20
-33.58757210636099
 10
-26.51650429449555
 20
-30.05203820042825
  0
LWPOLYLINE
  5
9C
100
AcDbEntity
  8
cut
  6
ByLayer
 62
  256
370
   -1
100
AcDbPolyline
 90
    4
 70
    1
 43
0
 10
-22.16506350946111
 20
-33.39101615137753
 10
-24.66506350946112
 20
-37.72114317029973
 10
-20.33493649053893
 20
-40.22114317029973
 10
-17.83493649053892
 20
-35.89101615137753
  0
LWPOLYLINE
  5
9D
100
AcDbEntity
  8
cut
  6
ByLayer
 62
  256
370
   -1
100
AcDbPolyline
 90
    4
 70
    1
 43
0
 10
-12.76757636982353
 20
-37.98998543880642
 10
-14.06167159533614
 20
-42.81961457025176
 10
-9.232042463890798
 20
-44.11370979576436
 10
-7.937947238378191
 20
-39.28408066431903
  0
LWPOLYLINE
  5
9E
100
AcDbEntity
  8
cut
  6
ByLayer
 62
  256
370
   -1
100
AcDbPolyline
 90
    4
 70
    1
 43
0
 10
-2.500000000000008
 20
-40
 10
-2.500000000000008
 20
-45
 10
2.499999999999992
 20
-45
 10
2.499999999999992
 20
-40
  0
LWPOLYLINE
  5
9F
100
AcDbEntity
  8
cut
  6
ByLayer
 62
  256
370
   -1
100
AcDbPolyline
 90
    4
 70
    1
 43
0
 10
7.937947238378141
 20
-39.28408066431904
 10
9.232042463890743
 20
-44.11370979576438
 10
14.06167159533608
 20
-42.81961457025177
 10
12.76757636982348
 20
-37.98998543880644
  0
LWPOLYLINE
  5
A0
100
AcDbEntity
  8
cut
  6
ByLayer
 62
  256
370
   -1
100
AcDbPolyline
 90
    4
 70
    1
 43
0
 10
17.83493649053887
 20
-35.89101615137756
 10
20.33493649053887
 20
-40.22114317029975
 10
24.66506350946107
 20
-37.72114317029975
 10
22.16506350946107
 20
-33.39101615137756
  0
LWPOLYLINE
  5
A1
100
AcDbEntity
  8
cut
  6
ByLayer
 62
  256
370
   -1
100
AcDbPolyline
 90
    4
 70
    1
 43
0
 10
26.51650429449553
 20
-30.05203820042828
 10
30.05203820042826
 20
-33.58757210636102
 10
33.587572106361
 20
-30.05203820042828
 10
30.05203820042826
 20
-26.51650429449554
  0
LWPOLYLINE
  5
A2
100
AcDbEntity
  8
cut
  6
ByLayer
 62
  256
370
   -1
100
AcDbPolyline
 90
    4
 70
    1
 43
0
 10
33.39101615137753
 20
-22.16506350946111
 10
37.72114317029973
 20
-24.66506350946112
 10
40.22114317029973
 20
-20.33493649053893
 10
35.89101615137753
 20
-17.83493649053892
  0
LWPOLYLINE
  5
A3
100
AcDbEntity
  8
cut
  6
ByLayer
 62
  256
370
   -1
100
AcDbPolyline
 90
    4
 70
    1
 43
0
 10
37.98998543880642
 20
-12.76757636982353
 10
42.81961457025176
 20
-14.06167159533614
 10
44.11370979576436
 20
-9.232042463890801
 10
39.28408066431903
 20
-7.937947238378193
  0
LWPOLYLINE
  5
A4
100
AcDbEntity
  8
cut
  6
ByLayer
 62
  256
370
   -1
100
AcDbPolyline
 90
    4
 70
    1
 43
0
 10
-115
 20
-115
 10
115
 20
-115
 10
115
 20
115
 10
-115
 20
115
  0
TEXT
  5
A5
100
AcDbEntity
  8
burn
  6
ByLayer
 62
  256
370
   -1
100
AcDbText
 10
49.66782081653753
 20
-2.368101870801036
 30
0
 40
5
  1
15
 50
0
 41
1
 51
0
  7
standard
 71
    0
210
0
220
0
230
1
100
AcDbText
  0
LINE
  5
A6
100
AcDbEntity
  8
burn
  6
ByLayer
 62
  256
370
   -1
100
AcDbLine
 10
30
 20
0
 11
32.5
 21
0
  0
LINE
  5
A7
100
AcDbEntity
  8
burn
  6
ByLayer
 62
  256
370
   -1
100
AcDbLine
 10
60
 20
0
 11
62.5
 21
0
  0
LINE
  5
A8
100
AcDbEntity
  8
burn
  6
ByLayer
 62
  256
370
   -1
100
AcDbLine
 10
59.6713137220964
 20
6.271707796059208
 11
62.15761846051708
 21
6.533028954228342
  0
LINE
  5
A9
100
AcDbEntity
  8
burn
  6
ByLayer
 62
  256
370
   -1
100
AcDbLine
 10
58.68885604402834
 20
12.47470144906556
 11
61.13422504586286
 21
12.99448067610996
  0
LINE
  5
AA
100
AcDbEntity
  8
burn
  6
ByLayer
 62
  256
370
   -1
100
AcDbLine
 10
57.06339097770921
 20
18.54101966249684
 11
59.4410322684471
 21
19.31356214843421
  0
LINE
  5
AB
100
AcDbEntity
  8
burn
  6
ByLayer
 62
  256
370
   -1
100
AcDbLine
 10
54.81272745855605
 20
24.40419858454801
 11
57.09659110266256
 21
25.42104019223751
  0
LINE
  5
AC
100
AcDbEntity
  8
burn
  6
ByLayer
 62
  256
370
   -1
100
AcDbLine
 10
51.96152422706631
 20
30
 11
54.12658773652741
 21
31.25
  0
LINE
  5
AD
100
AcDbEntity
  8
burn
  6
ByLayer
 62
  256
370
   -1
100
AcDbLine
 10
48.54101966249685
 20
35.26711513754839
 11
50.56356214843422
 21
36.73657826827957
  0
LINE
  5
AE
100
AcDbEntity
  8
burn
  6
ByLayer
 62
  256
370
   -1
100
AcDbLine
 10
44.58868952864366
 20
40.14783638153149
 11
46.44655159233714
 21
41.82066289742864
  0
LINE
  5
AF
100
AcDbEntity
  8
burn
  6
ByLayer
 62
  256
370
   -1
100
AcDbLine
 10
40.14783638153149
 20
44.58868952864366
 11
41.82066289742864
 21
46.44655159233714
  0
LINE
  5
B0
100
AcDbEntity
  8
burn
  6
ByLayer
 62
  256
370
   -1
100
AcDbLine
 10
35.26711513754838
 20
48.54101966249685
 11
36.73657826827957
 21
50.56356214843422
  0
LINE
  5
B1
100
AcDbEntity
  8
burn
  6
ByLayer
 62
  256
370
   -1
100
AcDbLine
 10
29.99999999999999
 20
51.96152422706632
 11
31.24999999999999
 21
54.12658773652742
  0
LINE
  5
B2
100
AcDbEntity
  8
burn
  6
ByLayer
 62
  256
370
   -1
100
AcDbLine
 10
24.40419858454801
 20
54.81272745855605
 11
25.42104019223751
 21
57.09659110266256
  0
LINE
  5
B3
100
AcDbEntity
  8
burn
  6
ByLayer
 62
  256
370
   -1
100
AcDbLine
 10
18.54101966249685
 20
57.06339097770921
 11
19.31356214843422
 21
59.4410322684471
  0
LINE
  5
B4
100
AcDbEntity
  8
burn
  6
ByLayer
 62
  256
370
   -1
100
AcDbLine
 10
12.47470144906555
 20
58.68885604402834
 11
12.99448067610995
 21
61.13422504586286
  0
LINE
  5
B5
100
AcDbEntity
  8
burn
  6
ByLayer
 62
  256
370
   -1
100
AcDbLine
 10
6.271707796059207
 20
59.6713137220964
 11
6.533028954228341
 21
62.15761846051708
  0
LINE
  5
B6
100
AcDbEntity
  8
burn
  6
ByLayer
 62
  256
370
   -1
100
AcDbLine
 10
-9.648735898059819e-15
 20
60
 11
-1.005076656047898e-14
 21
62.5
  0
LINE
  5
B7
100
AcDbEntity
  8
burn
  6
ByLayer
 62
  256
370
   -1
100
AcDbLine
 10
-6.271707796059213
 20
59.6713137220964
 11
-6.533028954228347
 21
62.15761846051708
  0
LINE
  5
B8
100
AcDbEntity
  8
burn
  6
ByLayer
 62
  256
370
   -1
100
AcDbLine
 10
-12.47470144906556
 20
58.68885604402834
 11
-12.99448067610996
 21
61.13422504586286
  0
LINE
  5
B9
100
AcDbEntity
  8
burn
  6
ByLayer
 62
  256
370
   -1
100
AcDbLine
 10
-18.54101966249685
 20
57.06339097770921
 11
-19.31356214843422
 21
59.4410322684471
  0
LINE
  5
BA
100
AcDbEntity
  8
burn
  6
ByLayer
 62
  256
370
   -1
100
AcDbLine
 10
-24.40419858454802
 20
54.81272745855605
 11
-25.42104019223752
 21
57.09659110266256
  0
LINE
  5
BB
100
AcDbEntity
  8
burn
  6
ByLayer
 62
  256
370
   -1
100
AcDbLine
 10
-30.00000000000001
 20
51.96152422706631
 11
-31.25000000000001
 21
54.12658773652741
  0
LINE
  5
BC
100
AcDbEntity
  8
burn
  6
ByLayer
 62
  256
370
   -1
100
AcDbLine
 10
-35.26711513754838
 20
48.54101966249685
 11
-36.73657826827957
 21
50.56356214843422
  0
LINE
  5
BD
100
AcDbEntity
  8
burn
  6
ByLayer
 62
  256
370
   -1
100
AcDbLine
 10
-40.14783638153149
 20
44.58868952864366
 11
-41.82066289742864
 21
46.44655159233714
  0
LINE
  5
BE
100
AcDbEntity
  8
burn
  6
ByLayer
 62
  256
370
   -1
100
AcDbLine
 10
-44.58868952864366
 20
40.14783638153148
 11
-46.44655159233714
 21
41.82066289742863
  0
LINE
  5
BF
100
AcDbEntity
  8
burn
  6
ByLayer
 62
  256
370
   -1
100
AcDbLine
 10
-48.54101966249684
 20
35.26711513754839
 11
-50.56356214843421
 21
36.73657826827958
  0
LINE
  5
C0
100
AcDbEntity
  8
burn
  6
ByLayer
 62
  256
370
   -1
100
AcDbLine
 10
-51.96152422706632
 20
30
 11
-54.12658773652742
 21
31.25
  0
LINE
  5
C1
100
AcDbEntity
  8
burn
  6
ByLayer
 62
  256
370
   -1
100
AcDbLine
 10
-54.81272745855606
 20
24.404198584548
 11
-57.09659110266256
 21
25.4210401922375
  0
LINE
  5
C2
100
AcDbEntity
  8
burn
  6
ByLayer
 62
  256
370
   -1
100
AcDbLine
 10
-57.06339097770922
 20
18.54101966249683
 11
-59.4410322684471
 21
19.31356214843419
  0
LINE
  5
C3
100
AcDbEntity
  8
burn
  6
ByLayer
 62
  256
370
   -1
100
AcDbLine
 10
-58.68885604402834
 20
12.47470144906556
 11
-61.13422504586286
 21
12.99448067610996
  0
LINE
  5
C4
100
AcDbEntity
  8
burn
  6
ByLayer
 62
  256
370
   -1
100
AcDbLine
 10
-59.67131372209641
 20
6.271707796059197
 11
-62.15761846051709
 21
6.533028954228331
  0
LINE
  5
C5
100
AcDbEntity
  8
burn
  6
ByLayer
 62
  256
370
   -1
100
AcDbLine
 10
-60
 20
-1.929747179611964e-14
 11
-62.5
 21
-2.010153312095796e-14
  0
LINE
  5
C6
100
AcDbEntity
  8
burn
  6
ByLayer
 62
  256
370
   -1
100
AcDbLine
 10
-59.6713137220964
 20
-6.27170779605921
 11
-62.15761846051708
 21
-6.533028954228343
  0
LINE
  5
C7
100
AcDbEntity
  8
burn
  6
ByLayer
 62
  256
370
   -1
100
AcDbLine
 10
-58.68885604402833
 20
-12.47470144906557
 11
-61.13422504586285
 21
-12.99448067610997
  0
LINE
  5
C8
100
AcDbEntity
  8
burn
  6
ByLayer
 62
  256
370
   -1
100
AcDbLine
 10
-57.06339097770921
 20
-18.54101966249686
 11
-59.4410322684471
 21
-19.31356214843423
  0
LINE
  5
C9
100
AcDbEntity
  8
burn
  6
ByLayer
 62
  256
370
   -1
100
AcDbLine
 10
-54.81272745855605
 20
-24.40419858454801
 11
-57.09659110266256
 21
-25.42104019223751
  0
LINE
  5
CA
100
AcDbEntity
  8
burn
  6
ByLayer
 62
  256
370
   -1
100
AcDbLine
 10
-51.96152422706631
 20
-30.00000000000001
 11
-54.12658773652741
 21
-31.25000000000001
  0
LINE
  5
CB
100
AcDbEntity
  8
burn
  6
ByLayer
 62
  256
370
   -1
100
AcDbLine
 10
-48.54101966249684
 20
-35.2671151375484
 11
-50.5635621484342
 21
-36.73657826827959
  0
LINE
  5
CC
100
AcDbEntity
  8
burn
  6
ByLayer
 62
  256
370
   -1
100
AcDbLine
 10
-44.58868952864366
 20
-40.14783638153149
 11
-46.44655159233714
 21
-41.82066289742864
  0
LINE
  5
CD
100
AcDbEntity
  8
burn
  6
ByLayer
 62
  256
370
   -1
100
AcDbLine
 10
-40.14783638153149
 20
-44.58868952864366
 11
-41.82066289742863
 21
-46.44655159233714
  0
LINE
  5
CE
100
AcDbEntity
  8
burn
  6
ByLayer
 62
  256
370
   -1
100
AcDbLine
 10
-35.26711513754839
 20
-48.54101966249684
 11
-36.73657826827958
 21
-50.56356214843421
  0
LINE
  5
CF
100
AcDbEntity
  8
burn
  6
ByLayer
 62
  256
370
   -1
100
AcDbLine
 10
-29.99999999999998
 20
-51.96152422706633
 11
-31.24999999999998
 21
-54.12658773652743
  0
LINE
  5
D0
100
AcDbEntity
  8
burn
  6
ByLayer
 62
  256
370
   -1
100
AcDbLine
 10
-24.40419858454801
 20
-54.81272745855606
 11
-25.42104019223751
 21
-57.09659110266256
  0
LINE
  5
D1
100
AcDbEntity
  8
burn
  6
ByLayer
 62
  256
370
   -1
100
AcDbLine
 10
-18.54101966249685
 20
-57.06339097770921
 11
-19.31356214843422
 21
-59.4410322684471
  0
LINE
  5
D2
100
AcDbEntity
  8
burn
  6
ByLayer
 62
  256
370
   -1
100
AcDbLine
 10
-12.47470144906554
 20
-58.68885604402834
 11
-12.99448067610993
 21
-61.13422504586286
  0
LINE
  5
D3
100
AcDbEntity
  8
burn
  6
ByLayer
 62
  256
370
   -1
100
AcDbLine
 10
-6.271707796059202
 20
-59.67131372209641
 11
-6.533028954228335
 21
-62.15761846051709
  0
LINE
  5
D4
100
AcDbEntity
  8
burn
  6
ByLayer
 62
  256
370
   -1
100
AcDbLine
 10
-1.102182119232618e-14
 20
-60
 11
-1.148106374200644e-14
 21
-62.5
  0
LINE
  5
D5
100
AcDbEntity
  8
burn
  6
ByLayer
 62
  256
370
   -1
100
AcDbLine
 10
6.271707796059232
 20
-59.6713137220964
 11
6.533028954228367
 21
-62.15761846051708
  0
LINE
  5
D6
100
AcDbEntity
  8
burn
  6
ByLayer
 62
  256
370
   -1
100
AcDbLine
 10
12.47470144906556
 20
-58.68885604402833
 11
12.99448067610996
 21
-61.13422504586285
  0
LINE
  5
D7
100
AcDbEntity
  8
burn
  6
ByLayer
 62
  256
370
   -1
100
AcDbLine
 10
18.54101966249683
 20
-57.06339097770922
 11
19.3135621484342
 21
-59.4410322684471
  0
LINE
  5
D8
100
AcDbEntity
  8
burn
  6
ByLayer
 62
  256
370
   -1
100
AcDbLine
 10
24.40419858454803
 20
-54.81272745855605
 11
25.42104019223753
 21
-57.09659110266255
  0
LINE
  5
D9
100
AcDbEntity
  8
burn
  6
ByLayer
 62
  256
370
   -1
100
AcDbLine
 10
30.00000000000001
 20
-51.96152422706631
 11
31.25000000000001
 21
-54.12658773652741
  0
LINE
  5
DA
100
AcDbEntity
  8
burn
  6
ByLayer
 62
  256
370
   -1
100
AcDbLine
 10
35.26711513754842
 20
-48.54101966249682
 11
36.73657826827961
 21
-50.56356214843419
  0
LINE
  5
DB
100
AcDbEntity
  8
burn
  6
ByLayer
 62
  256
370
   -1
100
AcDbLine
 10
40.1478363815315
 20
-44.58868952864364
 11
41.82066289742865
 21
-46.44655159233713
  0
LINE
  5
DC
100
AcDbEntity
  8
burn
  6
ByLayer
 62
  256
370
   -1
100
AcDbLine
 10
44.58868952864366
 20
-40.14783638153149
 11
46.44655159233714
 21
-41.82066289742863
  0
LINE
  5
DD
100
AcDbEntity
  8
burn
  6
ByLayer
 62
  256
370
   -1
100
AcDbLine
 10
48.54101966249686
 20
-35.26711513754835
 11
50.56356214843424
 21
-36.73657826827954
  0
LINE
  5
DE
100
AcDbEntity
  8
burn
  6
ByLayer
 62
  256
370
   -1
100
AcDbLine
 10
51.96152422706633
 20
-29.99999999999998
 11
54.12658773652743
 21
-31.24999999999998
  0
LINE
  5
DF
100
AcDbEntity
  8
burn
  6
ByLayer
 62
  256
370
   -1
100
AcDbLine
 10
54.81272745855606
 20
-24.40419858454801
 11
57.09659110266256
 21
-25.42104019223751
  0
LINE
  5
E0
100
AcDbEntity
  8
burn
  6
ByLayer
 62
  256
370
   -1
100
AcDbLine
 10
57.06339097770923
 20
-18.54101966249681
 11
59.44103226844711
 21
-19.31356214843417
  0
LINE
  5
E1
100
AcDbEntity
  8
burn
  6
ByLayer
 62
  256
370
   -1
100
AcDbLine
 10
58.68885604402834
 20
-12.47470144906554
 11
61.13422504586286
 21
-12.99448067610994
  0
LINE
  5
E2
100
AcDbEntity
  8
burn
  6
ByLayer
 62
  256
370
   -1
100
AcDbLine
 10
59.6713137220964
 20
-6.271707796059205
 11
62.15761846051708
 21
-6.533028954228339
  0
LINE
  5
E3
100
AcDbEntity
  8
burn
  6
ByLayer
 62
  256
370
   -1
100
AcDbLine
 10
60
 20
3.859494359223928e-14
 11
62.5
 21
4.020306624191591e-14
  0
LINE
  5
E4
100
AcDbEntity
  8
burn
  6
ByLayer
 62
  256
370
   -1
100
AcDbLine
 10
60
 20
0
 11
65
 21
0
  0
LINE
  5
E5
100
AcDbEntity
  8
burn
  6
ByLayer
 62
  256
370
   -1
100
AcDbLine
 10
3.67394039744206e-15
 20
60
 11
3.980102097228898e-15
 21
65
  0
LINE
  5
E6
100
AcDbEntity
  8
burn
  6
ByLayer
 62
  256
370
   -1
100
AcDbLine
 10
-60
 20
7.34788079488412e-15
 11
-65
 21
7.960204194457796e-15
  0
LINE
  5
E7
100
AcDbEntity
  8
burn
  6
ByLayer
 62
  256
370
   -1
100
AcDbLine
 10
-1.102182119232618e-14
 20
-60
 11
-1.194030629168669e-14
 21
-65
  0
LINE
  5
E8
100
AcDbEntity
  8
burn
  6
ByLayer
 62
  256
370
   -1
100
AcDbLine
 10
60
 20
-1.469576158976824e-14
 11
65
 21
-1.592040838891559e-14
  0
TEXT
  5
E9
100
AcDbEntity
  8
burn
  6
ByLayer
 62
  256
370
   -1
100
AcDbText
 10
-2.842041069041298
 20
50.01992281512685
 30
0
 40
5
  1
60
 50
0
 41
1
 51
0
  7
standard
 71
    0
210
0
220
0
230
1
100
AcDbText
  0
TEXT
  5
EA
100
AcDbEntity
  8
burn
  6
ByLayer
 62
  256
370
   -1
100
AcDbText
 10
-2.747306366739922
 20
19.98902218559047
 30
0
 40
5
  1
24
 50
0
 41
1
 51
0
  7
standard
 71
    0
210
0
220
0
230
1
100
AcDbText
  0
TEXT
  5
EB
100
AcDbEntity
  8
burn
  6
ByLayer
 62
  256
370
   -1
100
AcDbText
 10
-56.1839958656335
 20
-2.434315245478055
 30
0
 40
5
  1
45
 50
0
 41
1
 51
0
  7
standard
 71
    0
210
0
220
0
230
1
100
AcDbText
  0
TEXT
  5
EC
100
AcDbEntity
  8
burn
  6
ByLayer
 62
  256
370
   -1
100
AcDbText
 10
-26.38797726098211
 20
-2.531687855297177
 30
0
 40
5
  1
18
 50
0
 41
1
 51
0
  7
standard
 71
    0
210
0
220
0
230
1
100
AcDbText
  0
TEXT
  5
ED
100
AcDbEntity
  8
burn
  6
ByLayer
 62
  256
370
   -1
100
AcDbText
 10
-26.38797726098211
 20
-2.531687855297177
 30
0
 40
5
  1
18
 50
0
 41
1
 51
0
  7
standard
 71
    0
210
0
220
0
230
1
100
AcDbText
  0
TEXT
  5
EE
100
AcDbEntity
  8
burn
  6
ByLayer
 62
  256
370
   -1
100
AcDbText
 10
-2.290914728682167
 20
-25.51162377261001
 30
0
 40
5
  1
12
 50
0
 41
1
 51
0
  7
standard
 71
    0
210
0
220
0
230
1
100
AcDbText
  0
TEXT
  5
EF
100
AcDbEntity
  8
burn
  6
ByLayer
 62
  256
370
   -1
100
AcDbText
 10
-3.012535400517098
 20
-55.21026976744231
 30
0
 40
5
  1
30
 50
0
 41
1
 51
0
  7
standard
 71
    0
210
0
220
0
230
1
100
AcDbText
  0
LINE
  5
F0
100
AcDbEntity
  8
burn
  6
ByLayer
 62
  256
370
   -1
100
AcDbLine
 10
28.97777478867205
 20
7.764571353075622
 11
31.39258935439472
 21
8.411618965831924
  0
LINE
  5
F1
100
AcDbEntity
  8
burn
  6
ByLayer
 62
  256
370
   -1
100
AcDbLine
 10
25.98076211353316
 20
15
 11
28.14582562299426
 21
16.25
  0
LINE
  5
F2
100
AcDbEntity
  8
burn
  6
ByLayer
 62
  256
370
   -1
100
AcDbLine
 10
21.21320343559643
 20
21.21320343559642
 11
22.9809703885628
 21
22.98097038856279
  0
LINE
  5
F3
100
AcDbEntity
  8
burn
  6
ByLayer
 62
  256
370
   -1
100
AcDbLine
 10
15
 20
25.98076211353316
 11
16.25
 21
28.14582562299426
  0
LINE
  5
F4
100
AcDbEntity
  8
burn
  6
ByLayer
 62
  256
370
   -1
100
AcDbLine
 10
7.764571353075629
 20
28.97777478867205
 11
8.411618965831931
 21
31.39258935439472
  0
LINE
  5
F5
100
AcDbEntity
  8
burn
  6
ByLayer
 62
  256
370
   -1
100
AcDbLine
 10
1.83697019872103e-15
 20
30
 11
1.990051048614449e-15
 21
32.5
  0
LINE
  5
F6
100
AcDbEntity
  8
burn
  6
ByLayer
 62
  256
370
   -1
100
AcDbLine
 10
-7.764571353075619
 20
28.97777478867205
 11
-8.41161896583192
 21
31.39258935439472
  0
LINE
  5
F7
100
AcDbEntity
  8
burn
  6
ByLayer
 62
  256
370
   -1
100
AcDbLine
 10
-14.99999999999999
 20
25.98076211353316
 11
-16.24999999999999
 21
28.14582562299426
  0
LINE
  5
F8
100
AcDbEntity
  8
burn
  6
ByLayer
 62
  256
370
   -1
100
AcDbLine
 10
-21.21320343559642
 20
21.21320343559643
 11
-22.98097038856279
 21
22.9809703885628
  0
LINE
  5
F9
100
AcDbEntity
  8
burn
  6
ByLayer
 62
  256
370
   -1
100
AcDbLine
 10
-25.98076211353315
 20
15.00000000000001
 11
-28.14582562299425
 21
16.25000000000001
  0
LINE
  5
FA
100
AcDbEntity
  8
burn
  6
ByLayer
 62
  256
370
   -1
100
AcDbLine
 10
-28.97777478867205
 20
7.76457135307563
 11
-31.39258935439472
 21
8.411618965831932
  0
LINE
  5
FB
100
AcDbEntity
  8
burn
  6
ByLayer
 62
  256
370
   -1
100
AcDbLine
 10
-30
 20
3.67394039744206e-15
 11
-32.5
 21
3.980102097228898e-15
  0
LINE
  5
FC
100
AcDbEntity
  8
burn
  6
ByLayer
 62
  256
370
   -1
100
AcDbLine
 10
-28.97777478867205
 20
-7.764571353075611
 11
-31.39258935439472
 21
-8.411618965831911
  0
LINE
  5
FD
100
AcDbEntity
  8
burn
  6
ByLayer
 62
  256
370
   -1
100
AcDbLine
 10
-25.98076211353316
 20
-14.99999999999999
 11
-28.14582562299426
 21
-16.24999999999999
  0
LINE
  5
FE
100
AcDbEntity
  8
burn
  6
ByLayer
 62
  256
370
   -1
100
AcDbLine
 10
-21.21320343559644
 20
-21.21320343559641
 11
-22.98097038856281
 21
-22.98097038856278
  0
LINE
  5
FF
100
AcDbEntity
  8
burn
  6
ByLayer
 62
  256
370
   -1
100
AcDbLine
 10
-15.00000000000001
 20
-25.98076211353315
 11
-16.25000000000001
 21
-28.14582562299425
  0
LINE
  5
100
100
AcDbEntity
  8
burn
  6
ByLayer
 62
  256
370
   -1
100
AcDbLine
 10
-7.764571353075645
 20
-28.97777478867204
 11
-8.411618965831948
 21
-31.39258935439471
  0
LINE
  5
101
100
AcDbEntity
  8
burn
  6
ByLayer
 62
  256
370
   -1
100
AcDbLine
 10
-5.510910596163089e-15
 20
-30
 11
-5.970153145843346e-15
 21
-32.5
  0
LINE
  5
102
100
AcDbEntity
  8
burn
  6
ByLayer
 62
  256
370
   -1
100
AcDbLine
 10
7.764571353075609
 20
-28.97777478867205
 11
8.411618965831909
 21
-31.39258935439472
  0
LINE
  5
103
100
AcDbEntity
  8
burn
  6
ByLayer
 62
  256
370
   -1
100
AcDbLine
 10
14.99999999999998
 20
-25.98076211353317
 11
16.24999999999998
 21
-28.14582562299427
  0
LINE
  5
104
100
AcDbEntity
  8
burn
  6
ByLayer
 62
  256
370
   -1
100
AcDbLine
 10
21.21320343559642
 20
-21.21320343559643
 11
22.98097038856279
 21
-22.9809703885628
  0
LINE
  5
105
100
AcDbEntity
  8
burn
  6
ByLayer
 62
  256
370
   -1
100
AcDbLine
 10
25.98076211353315
 20
-15.00000000000001
 11
28.14582562299425
 21
-16.25000000000001
  0
LINE
  5
106
100
AcDbEntity
  8
burn
  6
ByLayer
 62
  256
370
   -1
100
AcDbLine
 10
28.97777478867204
 20
-7.764571353075647
 11
31.39258935439471
 21
-8.41161896583195
  0
LINE
  5
107
100
AcDbEntity
  8
burn
  6
ByLayer
 62
  256
370
   -1
100
AcDbLine
 10
30
 20
-7.34788079488412e-15
 11
32.5
 21
-7.960204194457796e-15
  0
LINE
  5
108
100
AcDbEntity
  8
burn
  6
ByLayer
 62
  256
370
   -1
100
AcDbLine
 10
30
 20
0
 11
35
 21
0
  0
LINE
  5
109
100
AcDbEntity
  8
burn
  6
ByLayer
 62
  256
370
   -1
100
AcDbLine
 10
1.83697019872103e-15
 20
30
 11
2.143131898507868e-15
 21
35
  0
LINE
  5
10A
100
AcDbEntity
  8
burn
  6
ByLayer
 62
  256
370
   -1
100
AcDbLine
 10
-30
 20
3.67394039744206e-15
 11
-35
 21
4.286263797015736e-15
  0
LINE
  5
10B
100
AcDbEntity
  8
burn
  6
ByLayer
 62
  256
370
   -1
100
AcDbLine
 10
-5.510910596163089e-15
 20
-30
 11
-6.429395695523604e-15
 21
-35
  0
LINE
  5
10C
100
AcDbEntity
  8
burn
  6
ByLayer
 62
  256
370
   -1
100
AcDbLine
 10
30
 20
-7.34788079488412e-15
 11
35
 21
-8.572527594031473e-15
  0
TEXT
  5
10D
100
AcDbEntity
  8
burn
  6
ByLayer
 62
  256
370
   -1
100
AcDbText
 10
23.56417157622757
 20
-1.850079586563321
 30
0
 40
5
  1
6
 50
0
 41
1
 51
0
  7
standard
 71
    0
210
0
220
0
230
1
100
AcDbText
  0
LWPOLYLINE
  5
10E
100
AcDbEntity
  8
guide
  6
ByLayer
 62
  256
370
   -1
100
AcDbPolyline
 90
    4
 70
    1
 43
0
 10
-108
 20
-108
 10
108
 20
-108
 10
108
 20
108
 10
-108
 20
108
  0
ENDSEC
  0
SECTION
  2
OBJECTS
  0
DICTIONARY
  5
C
330
0
100
AcDbDictionary
281
    1
  3
ACAD_GROUP
350
D
  0
DICTIONARY
  5
D
330
C
100
AcDbDictionary
281
    1
  0
ENDSEC
  0
EOF
