999
dxfrw 0.6.3
  0
SECTION
  2
HEADER
  9
$ACADVER
  1
AC1021
  9
$DWGCODEPAGE
  3
ANSI_1252
  9
$INSBASE
 10
0
 20
0
 30
0
  9
$EXTMIN
 10
-137.65625
 20
-173.984375
 30
0
  9
$EXTMAX
 10
115
 20
115
 30
0
  9
$LIMMIN
 10
0
 20
0
  9
$LIMMAX
 10
420
 20
297
  9
$ORTHOMODE
 70
    0
  9
$REGENMODE
 70
    1
  9
$FILLMODE
 70
    1
  9
$QTEXTMODE
 70
    0
  9
$MIRRTEXT
 70
    0
  9
$LTSCALE
 40
1
  9
$ATTMODE
 70
    0
  9
$TEXTSIZE
 40
2.5
  9
$TRACEWID
 40
15.68
  9
$TEXTSTYLE
  7
STANDARD
  9
$CLAYER
  8
burn
  9
$CELTYPE
  6
BYLAYER
  9
$CECOLOR
 62
  256
  9
$CELTSCALE
 40
1
  9
$DISPSILH
 70
    0
  9
$DIMSCALE
 40
1
  9
$DIMASZ
 40
2.5
  9
$DIMEXO
 40
0.625
  9
$DIMDLI
 40
3.75
  9
$DIMRND
 40
0
  9
$DIMDLE
 40
0
  9
$DIMEXE
 40
1.25
  9
$DIMTP
 40
0
  9
$DIMTM
 40
0
  9
$DIMTXT
 40
2.5
  9
$DIMCEN
 40
2.5
  9
$DIMTSZ
 40
0
  9
$DIMTOL
 70
    0
  9
$DIMLIM
 70
    0
  9
$DIMTIH
 70
    0
  9
$DIMTOH
 70
    0
  9
$DIMSE1
 70
    0
  9
$DIMSE2
 70
    0
  9
$DIMTAD
 70
    1
  9
$DIMZIN
 70
    1
  9
$DIMBLK
  1

  9
$DIMASO
 70
    1
  9
$DIMSHO
 70
    1
  9
$DIMPOST
  1

  9
$DIMAPOST
  1

  9
$DIMALT
 70
    0
  9
$DIMALTD
 70
    3
  9
$DIMALTF
 40
0.03937
  9
$DIMLFAC
 40
1
  9
$DIMTOFL
 70
    1
  9
$DIMTVP
 40
0
  9
$DIMTIX
 70
    0
  9
$DIMSOXD
 70
    0
  9
$DIMSAH
 70
    0
  9
$DIMBLK1
  1

  9
$DIMBLK2
  1

  9
$DIMSTYLE
  2
STANDARD
  9
$DIMCLRD
 70
    0
  9
$DIMCLRE
 70
    0
  9
$DIMCLRT
 70
    0
  9
$DIMTFAC
 40
1
  9
$DIMGAP
 40
0.625
  9
$DIMJUST
 70
    0
  9
$DIMSD1
 70
    0
  9
$DIMSD2
 70
    0
  9
$DIMTOLJ
 70
    0
  9
$DIMTZIN
 70
    8
  9
$DIMALTZ
 70
    0
  9
$DIMALTTZ
 70
    0
  9
$DIMUPT
 70
    0
  9
$DIMDEC
 70
    4
  9
$DIMTDEC
 70
    2
  9
$DIMALTU
 70
    2
  9
$DIMALTTD
 70
    3
  9
$DIMTXSTY
  7
standard
  9
$DIMAUNIT
 70
    0
  9
$DIMADEC
 70
    2
  9
$DIMALTRND
 40
0
  9
$DIMAZIN
 70
    0
  9
$DIMDSEP
 70
   44
  9
$DIMATFIT
 70
    3
  9
$DIMFRAC
 70
    0
  9
$DIMLDRBLK
  1
STANDARD
  9
$DIMLUNIT
 70
    2
  9
$DIMLWD
 70
   -2
  9
$DIMLWE
 70
   -2
  9
$DIMTMOVE
 70
    0
  9
$DIMFXL
 40
1
  9
$DIMFXLON
 70
    0
  9
$DIMJOGANG
 40
0.7854
  9
$DIMTFILL
 70
    0
  9
$DIMTFILLCLR
 70
    0
  9
$DIMARCSYM
 70
    0
  9
$DIMLTYPE
  6

  9
$DIMLTEX1
  6

  9
$DIMLTEX2
  6

  9
$LUNITS
 70
    2
  9
$LUPREC
 70
    4
  9
$SKETCHINC
 40
1
  9
$FILLETRAD
 40
0
  9
$AUNITS
 70
    0
  9
$AUPREC
 70
    2
  9
$MENU
  1
.
  9
$ELEVATION
 40
0
  9
$PELEVATION
 40
0
  9
$THICKNESS
 40
0
  9
$LIMCHECK
 70
    0
  9
$CHAMFERA
 40
0
  9
$CHAMFERB
 40
0
  9
$CHAMFERC
 40
0
  9
$CHAMFERD
 40
0
  9
$SKPOLY
 70
    0
  9
$USRTIMER
 70
    1
  9
$ANGBASE
 50
0
  9
$ANGDIR
 70
    0
  9
$PDMODE
 70
   34
  9
$PDSIZE
 40
0
  9
$PLINEWID
 40
0
  9
$SPLFRAME
 70
    0
  9
$SPLINETYPE
 70
    2
  9
$SPLINESEGS
 70
    8
  9
$HANDSEED
  5
20000
  9
$SURFTAB1
 70
    6
  9
$SURFTAB2
 70
    6
  9
$SURFTYPE
 70
    6
  9
$SURFU
 70
    6
  9
$SURFV
 70
    6
  9
$UCSBASE
  2

  9
$UCSNAME
  2

  9
$UCSORG
 10
0
 20
0
 30
0
  9
$UCSXDIR
 10
1
 20
0
 30
0
  9
$UCSYDIR
 10
0
 20
1
 30
0
  9
$UCSORTHOREF
  2

  9
$UCSORTHOVIEW
 70
    0
  9
$UCSORGTOP
 10
0
 20
0
 30
0
  9
$UCSORGBOTTOM
 10
0
 20
0
 30
0
  9
$UCSORGLEFT
 10
0
 20
0
 30
0
  9
$UCSORGRIGHT
 10
0
 20
0
 30
0
  9
$UCSORGFRONT
 10
0
 20
0
 30
0
  9
$UCSORGBACK
 10
0
 20
0
 30
0
  9
$PUCSBASE
  2

  9
$PUCSNAME
  2

  9
$PUCSORG
 10
0
 20
0
 30
0
  9
$PUCSXDIR
 10
1
 20
0
 30
0
  9
$PUCSYDIR
 10
0
 20
1
 30
0
  9
$PUCSORTHOREF
  2

  9
$PUCSORTHOVIEW
 70
    0
  9
$PUCSORGTOP
 10
0
 20
0
 30
0
  9
$PUCSORGBOTTOM
 10
0
 20
0
 30
0
  9
$PUCSORGLEFT
 10
0
 20
0
 30
0
  9
$PUCSORGRIGHT
 10
0
 20
0
 30
0
  9
$PUCSORGFRONT
 10
0
 20
0
 30
0
  9
$PUCSORGBACK
 10
0
 20
0
 30
0
  9
$USERI1
 70
    0
  9
$USERI2
 70
    0
  9
$USERI3
 70
    0
  9
$USERI4
 70
    0
  9
$USERI5
 70
    0
  9
$USERR1
 40
0
  9
$USERR2
 40
0
  9
$USERR3
 40
0
  9
$USERR4
 40
0
  9
$USERR5
 40
0
  9
$WORLDVIEW
 70
    1
  9
$SHADEDGE
 70
    3
  9
$SHADEDIF
 70
   70
  9
$TILEMODE
 70
    1
  9
$MAXACTVP
 70
   64
  9
$PINSBASE
 10
0
 20
0
 30
0
  9
$PLIMCHECK
 70
    0
  9
$PEXTMIN
 10
0
 20
0
 30
0
  9
$PEXTMAX
 10
0
 20
0
 30
0
  9
$SNAPSTYLE
 70
    0
  9
$GRIDUNIT
 10
0
 20
0
  9
$PLIMMIN
 10
0
 20
0
  9
$PLIMMAX
 10
297
 20
210
  9
$UNITMODE
 70
    0
  9
$VISRETAIN
 70
    1
  9
$PLINEGEN
 70
    0
  9
$PSLTSCALE
 70
    1
  9
$TREEDEPTH
 70
 3020
  9
$CMLSTYLE
  2
Standard
  9
$CMLJUST
 70
    0
  9
$CMLSCALE
 40
20
  9
$PROXYGRAPHICS
 70
    1
  9
$MEASUREMENT
 70
    1
  9
$CELWEIGHT
370
   -1
  9
$ENDCAPS
280
    0
  9
$JOINSTYLE
280
    0
  9
$LWDISPLAY
290
    0
  9
$INSUNITS
 70
    4
  9
$HYPERLINKBASE
  1

  9
$STYLESHEET
  1

  9
$XEDIT
290
    1
  9
$CEPSNTYPE
380
    0
  9
$PSTYLEMODE
290
    1
  9
$EXTNAMES
290
    1
  9
$PSVPSCALE
 40
1
  9
$OLESTARTUP
290
    0
  9
$SORTENTS
280
  127
  9
$INDEXCTL
280
    0
  9
$HIDETEXT
280
    1
  9
$XCLIPFRAME
290
    0
  9
$HALOGAP
280
    0
  9
$OBSCOLOR
 70
  257
  9
$OBSLTYPE
280
    0
  9
$INTERSECTIONDISPLAY
280
    0
  9
$INTERSECTIONCOLOR
 70
  257
  9
$DIMASSOC
280
    1
  9
$PROJECTNAME
  1

  9
$CAMERADISPLAY
290
    0
  9
$LENSLENGTH
 40
50
  9
$CAMERAHEIGHT
 40
0
  9
$STEPSPERSEC
 40
2
  9
$STEPSIZE
 40
50
  9
$3DDWFPREC
 40
2
  9
$PSOLWIDTH
 40
5
  9
$PSOLHEIGHT
 40
80
  9
$LOFTANG1
 40
1.570796326794897
  9
$LOFTANG2
 40
1.570796326794897
  9
$LOFTMAG1
 40
0
  9
$LOFTMAG2
 40
0
  9
$LOFTPARAM
 70
    7
  9
$LOFTNORMALS
280
    1
  9
$LATITUDE
 40
1
  9
$LONGITUDE
 40
1
  9
$NORTHDIRECTION
 40
0
  9
$TIMEZONE
 70
-8000
  9
$LIGHTGLYPHDISPLAY
280
    1
  9
$TILEMODELIGHTSYNCH
280
    1
  9
$SOLIDHIST
280
    1
  9
$SHOWHIST
280
    1
  9
$DWFFRAME
280
    2
  9
$DGNFRAME
280
    0
  9
$REALWORLDSCALE
290
    1
  9
$INTERFERECOLOR
 62
    1
  9
$CSHADOW
280
    0
  9
$SHADOWPLANELOCATION
 40
0
  0
ENDSEC
  0
SECTION
  2
CLASSES
  0
ENDSEC
  0
SECTION
  2
TABLES
  0
TABLE
  2
VPORT
  5
8
330
0
100
AcDbSymbolTable
 70
    1
  0
VPORT
  5
31
330
2
100
AcDbSymbolTableRecord
100
AcDbViewportTableRecord
  2
*ACTIVE
 70
    0
 10
0
 20
0
 11
1
 21
1
 12
126.9779829545455
 22
59.44725196678321
 13
0
 23
0
 14
10
 24
10
 15
10
 25
10
 16
0
 26
0
 36
1
 17
0
 27
0
 37
0
 40
296.0574191433566
 41
1.790671217292378
 42
50
 43
0
 44
0
 50
0
 51
0
 71
    0
 72
  100
 73
    1
 74
    3
 75
    0
 76
    1
 77
    0
 78
    0
281
    0
 65
    1
110
0
120
0
130
0
111
1
121
0
131
0
112
0
122
1
132
0
 79
    0
146
0
348
10020
 60
    7
 61
    5
292
1
282
    1
141
0
142
0
 63
  250
421
3358443
  0
ENDTAB
  0
TABLE
  2
LTYPE
  5
5
330
0
100
AcDbSymbolTable
 70
    4
  0
LTYPE
  5
14
330
5
100
AcDbSymbolTableRecord
100
AcDbLinetypeTableRecord
  2
ByBlock
 70
    0
  3

 72
   65
 73
    0
 40
0
  0
LTYPE
  5
15
330
5
100
AcDbSymbolTableRecord
100
AcDbLinetypeTableRecord
  2
ByLayer
 70
    0
  3

 72
   65
 73
    0
 40
0
  0
LTYPE
  5
16
330
5
100
AcDbSymbolTableRecord
100
AcDbLinetypeTableRecord
  2
Continuous
 70
    0
  3
Solid line
 72
   65
 73
    0
 40
0
  0
LTYPE
  5
32
330
5
100
AcDbSymbolTableRecord
100
AcDbLinetypeTableRecord
  2
DOT
 70
    0
  3
Dot . . . . . . . . . . . . . . . . . . . . . .
 72
   65
 73
    2
 40
6.35
 49
0
 74
    0
 49
-6.35
 74
    0
  0
LTYPE
  5
33
330
5
100
AcDbSymbolTableRecord
100
AcDbLinetypeTableRecord
  2
DOTTINY
 70
    0
  3
Dot (.15x) .....................................
 72
   65
 73
    2
 40
0.9525
 49
0
 74
    0
 49
-0.9525
 74
    0
  0
LTYPE
  5
34
330
5
100
AcDbSymbolTableRecord
100
AcDbLinetypeTableRecord
  2
DOT2
 70
    0
  3
Dot (.5x) .....................................
 72
   65
 73
    2
 40
3.175
 49
0
 74
    0
 49
-3.175
 74
    0
  0
LTYPE
  5
35
330
5
100
AcDbSymbolTableRecord
100
AcDbLinetypeTableRecord
  2
DOTX2
 70
    0
  3
Dot (2x) .  .  .  .  .  .  .  .  .  .  .  .  .
 72
   65
 73
    2
 40
12.7
 49
0
 74
    0
 49
-12.7
 74
    0
  0
LTYPE
  5
36
330
5
100
AcDbSymbolTableRecord
100
AcDbLinetypeTableRecord
  2
DASHED
 70
    0
  3
Dashed _ _ _ _ _ _ _ _ _ _ _ _ _ _ _ _ _
 72
   65
 73
    2
 40
19.05
 49
12.7
 74
    0
 49
-6.35
 74
    0
  0
LTYPE
  5
37
330
5
100
AcDbSymbolTableRecord
100
AcDbLinetypeTableRecord
  2
DASHEDTINY
 70
    0
  3
Dashed (.15x) _ _ _ _ _ _ _ _ _ _ _ _ _ _ _ _ _
 72
   65
 73
    2
 40
2.8575
 49
1.905
 74
    0
 49
-0.9525
 74
    0
  0
LTYPE
  5
38
330
5
100
AcDbSymbolTableRecord
100
AcDbLinetypeTableRecord
  2
DASHED2
 70
    0
  3
Dashed (.5x) _ _ _ _ _ _ _ _ _ _ _ _ _ _ _ _ _
 72
   65
 73
    2
 40
9.524999999999999
 49
6.35
 74
    0
 49
-3.175
 74
    0
  0
LTYPE
  5
39
330
5
100
AcDbSymbolTableRecord
100
AcDbLinetypeTableRecord
  2
DASHEDX2
 70
    0
  3
Dashed (2x) ____  ____  ____  ____  ____  ___
 72
   65
 73
    2
 40
38.09999999999999
 49
25.4
 74
    0
 49
-12.7
 74
    0
  0
LTYPE
  5
3A
330
5
100
AcDbSymbolTableRecord
100
AcDbLinetypeTableRecord
  2
DASHDOT
 70
    0
  3
Dash dot __ . __ . __ . __ . __ . __ . __ . __
 72
   65
 73
    4
 40
25.4
 49
12.7
 74
    0
 49
-6.35
 74
    0
 49
0
 74
    0
 49
-6.35
 74
    0
  0
LTYPE
  5
3B
330
5
100
AcDbSymbolTableRecord
100
AcDbLinetypeTableRecord
  2
DASHDOTTINY
 70
    0
  3
Dash dot (.15x) _._._._._._._._._._._._._._._.
 72
   65
 73
    4
 40
3.81
 49
1.905
 74
    0
 49
-0.9525
 74
    0
 49
0
 74
    0
 49
-0.9525
 74
    0
  0
LTYPE
  5
3C
330
5
100
AcDbSymbolTableRecord
100
AcDbLinetypeTableRecord
  2
DASHDOT2
 70
    0
  3
Dash dot (.5x) _._._._._._._._._._._._._._._.
 72
   65
 73
    4
 40
12.7
 49
6.35
 74
    0
 49
-3.175
 74
    0
 49
0
 74
    0
 49
-3.175
 74
    0
  0
LTYPE
  5
3D
330
5
100
AcDbSymbolTableRecord
100
AcDbLinetypeTableRecord
  2
DASHDOTX2
 70
    0
  3
Dash dot (2x) ____  .  ____  .  ____  .  ___
 72
   65
 73
    4
 40
50.8
 49
25.4
 74
    0
 49
-12.7
 74
    0
 49
0
 74
    0
 49
-12.7
 74
    0
  0
LTYPE
  5
3E
330
5
100
AcDbSymbolTableRecord
100
AcDbLinetypeTableRecord
  2
DIVIDE
 70
    0
  3
Divide ____ . . ____ . . ____ . . ____ . . ____
 72
   65
 73
    6
 40
31.75
 49
12.7
 74
    0
 49
-6.35
 74
    0
 49
0
 74
    0
 49
-6.35
 74
    0
 49
0
 74
    0
 49
-6.35
 74
    0
  0
LTYPE
  5
3F
330
5
100
AcDbSymbolTableRecord
100
AcDbLinetypeTableRecord
  2
DIVIDETINY
 70
    0
  3
Divide (.15x) __..__..__..__..__..__..__..__.._
 72
   65
 73
    6
 40
4.7625
 49
1.905
 74
    0
 49
-0.9525
 74
    0
 49
0
 74
    0
 49
-0.9525
 74
    0
 49
0
 74
    0
 49
-0.9525
 74
    0
  0
LTYPE
  5
40
330
5
100
AcDbSymbolTableRecord
100
AcDbLinetypeTableRecord
  2
DIVIDE2
 70
    0
  3
Divide (.5x) __..__..__..__..__..__..__..__.._
 72
   65
 73
    6
 40
15.875
 49
6.35
 74
    0
 49
-3.175
 74
    0
 49
0
 74
    0
 49
-3.175
 74
    0
 49
0
 74
    0
 49
-3.175
 74
    0
  0
LTYPE
  5
41
330
5
100
AcDbSymbolTableRecord
100
AcDbLinetypeTableRecord
  2
DIVIDEX2
 70
    0
  3
Divide (2x) ________  .  .  ________  .  .  _
 72
   65
 73
    6
 40
63.5
 49
25.4
 74
    0
 49
-12.7
 74
    0
 49
0
 74
    0
 49
-12.7
 74
    0
 49
0
 74
    0
 49
-12.7
 74
    0
  0
LTYPE
  5
42
330
5
100
AcDbSymbolTableRecord
100
AcDbLinetypeTableRecord
  2
BORDER
 70
    0
  3
Border __ __ . __ __ . __ __ . __ __ . __ __ .
 72
   65
 73
    6
 40
44.45
 49
12.7
 74
    0
 49
-6.35
 74
    0
 49
12.7
 74
    0
 49
-6.35
 74
    0
 49
0
 74
    0
 49
-6.35
 74
    0
  0
LTYPE
  5
43
330
5
100
AcDbSymbolTableRecord
100
AcDbLinetypeTableRecord
  2
BORDERTINY
 70
    0
  3
Border (.15x) __.__.__.__.__.__.__.__.__.__.__.
 72
   65
 73
    6
 40
6.6675
 49
1.905
 74
    0
 49
-0.9525
 74
    0
 49
1.905
 74
    0
 49
-0.9525
 74
    0
 49
0
 74
    0
 49
-0.9525
 74
    0
  0
LTYPE
  5
44
330
5
100
AcDbSymbolTableRecord
100
AcDbLinetypeTableRecord
  2
BORDER2
 70
    0
  3
Border (.5x) __.__.__.__.__.__.__.__.__.__.__.
 72
   65
 73
    6
 40
22.225
 49
6.35
 74
    0
 49
-3.175
 74
    0
 49
6.35
 74
    0
 49
-3.175
 74
    0
 49
0
 74
    0
 49
-3.175
 74
    0
  0
LTYPE
  5
45
330
5
100
AcDbSymbolTableRecord
100
AcDbLinetypeTableRecord
  2
BORDERX2
 70
    0
  3
Border (2x) ____  ____  .  ____  ____  .  ___
 72
   65
 73
    6
 40
88.89999999999999
 49
25.4
 74
    0
 49
-12.7
 74
    0
 49
25.4
 74
    0
 49
-12.7
 74
    0
 49
0
 74
    0
 49
-12.7
 74
    0
  0
LTYPE
  5
46
330
5
100
AcDbSymbolTableRecord
100
AcDbLinetypeTableRecord
  2
CENTER
 70
    0
  3
Center ____ _ ____ _ ____ _ ____ _ ____ _ ____
 72
   65
 73
    4
 40
50.8
 49
31.75
 74
    0
 49
-6.35
 74
    0
 49
6.35
 74
    0
 49
-6.35
 74
    0
  0
LTYPE
  5
47
330
5
100
AcDbSymbolTableRecord
100
AcDbLinetypeTableRecord
  2
CENTERTINY
 70
    0
  3
Center (.15x) ___ _ ___ _ ___ _ ___ _ ___ _ ___
 72
   65
 73
    4
 40
7.619999999999999
 49
4.7625
 74
    0
 49
-0.9525
 74
    0
 49
0.9525
 74
    0
 49
-0.9525
 74
    0
  0
LTYPE
  5
48
330
5
100
AcDbSymbolTableRecord
100
AcDbLinetypeTableRecord
  2
CENTER2
 70
    0
  3
Center (.5x) ___ _ ___ _ ___ _ ___ _ ___ _ ___
 72
   65
 73
    4
 40
28.575
 49
19.05
 74
    0
 49
-3.175
 74
    0
 49
3.175
 74
    0
 49
-3.175
 74
    0
  0
LTYPE
  5
49
330
5
100
AcDbSymbolTableRecord
100
AcDbLinetypeTableRecord
  2
CENTERX2
 70
    0
  3
Center (2x) ________  __  ________  __  _____
 72
   65
 73
    4
 40
101.6
 49
63.5
 74
    0
 49
-12.7
 74
    0
 49
12.7
 74
    0
 49
-12.7
 74
    0
  0
ENDTAB
  0
TABLE
  2
LAYER
  5
2
330
0
100
AcDbSymbolTable
 70
    1
  0
LAYER
  5
10
330
2
100
AcDbSymbolTableRecord
100
AcDbLayerTableRecord
  2
0
 70
    0
 62
    7
  6
CONTINUOUS
370
    0
390
F
  0
LAYER
  5
4A
330
2
100
AcDbSymbolTableRecord
100
AcDbLayerTableRecord
  2
burn
 70
    0
 62
    7
  6
CONTINUOUS
370
    0
390
F
  0
LAYER
  5
4B
330
2
100
AcDbSymbolTableRecord
100
AcDbLayerTableRecord
  2
short lines
 70
    0
 62
    7
  6
CONTINUOUS
370
    0
390
F
  0
LAYER
  5
4C
330
2
100
AcDbSymbolTableRecord
100
AcDbLayerTableRecord
  2
text
 70
    0
 62
    7
  6
CONTINUOUS
370
    0
390
F
  0
ENDTAB
  0
TABLE
  2
STYLE
  5
3
330
0
100
AcDbSymbolTable
 70
    3
  0
STYLE
  5
4D
330
2
100
AcDbSymbolTableRecord
100
AcDbTextStyleTableRecord
  2
Standard
 70
    0
 40
0
 41
1
 50
0
 71
    0
 42
1
  3
txt
  4

  0
ENDTAB
  0
TABLE
  2
VIEW
  5
6
330
0
100
AcDbSymbolTable
 70
    0
  0
ENDTAB
  0
TABLE
  2
UCS
  5
7
330
0
100
AcDbSymbolTable
 70
    0
  0
ENDTAB
  0
TABLE
  2
APPID
  5
9
330
0
100
AcDbSymbolTable
 70
    1
  0
APPID
  5
12
330
9
100
AcDbSymbolTableRecord
100
AcDbRegAppTableRecord
  2
ACAD
 70
    0
  0
APPID
  5
4E
330
9
100
AcDbSymbolTableRecord
100
AcDbRegAppTableRecord
  2
LibreCad
 70
    0
  0
ENDTAB
  0
TABLE
  2
DIMSTYLE
  5
A
330
0
100
AcDbSymbolTable
 70
    1
100
AcDbDimStyleTable
 71
    1
  0
DIMSTYLE
105
4F
330
A
100
AcDbSymbolTableRecord
100
AcDbDimStyleTableRecord
  2
Standard
 70
    0
 40
1
 41
2.5
 42
0.625
 43
0.38
 44
1.25
 45
0
 46
0
 47
0
 48
0
 49
1
140
2.5
141
0.09
142
0
143
25.4
144
1
145
0
146
1
147
0.625
148
0
 71
    0
 72
    0
 73
    0
 74
    1
 75
    0
 76
    0
 77
    0
 78
    1
 79
    0
170
    0
171
    2
172
    0
173
    0
174
    0
175
    0
176
    0
177
    0
178
    0
179
    2
271
    4
272
    4
273
    2
274
    2
275
    0
276
    0
277
    2
278
    0
279
    0
280
    0
281
    0
282
    0
283
    1
284
    0
285
    0
286
    0
288
    0
289
    3
340
standard
341

371
   -2
372
   -2
  0
ENDTAB
  0
TABLE
  2
BLOCK_RECORD
  5
1
330
0
100
AcDbSymbolTable
 70
    2
  0
BLOCK_RECORD
  5
1F
330
1
100
AcDbSymbolTableRecord
100
AcDbBlockTableRecord
  2
*Model_Space
 70
    0
280
    1
281
    0
  0
BLOCK_RECORD
  5
1E
330
1
100
AcDbSymbolTableRecord
100
AcDbBlockTableRecord
  2
*Paper_Space
 70
    0
280
    1
281
    0
  0
ENDTAB
  0
ENDSEC
  0
SECTION
  2
BLOCKS
  0
BLOCK
  5
20
330
1F
100
AcDbEntity
  8
0
100
AcDbBlockBegin
  2
*Model_Space
 70
    0
 10
0
 20
0
 30
0
  3
*Model_Space
  1

  0
ENDBLK
  5
21
330
1F
100
AcDbEntity
  8
0
100
AcDbBlockEnd
  0
BLOCK
  5
1C
330
1B
100
AcDbEntity
  8
0
100
AcDbBlockBegin
  2
*Paper_Space
 70
    0
 10
0
 20
0
 30
0
  3
*Paper_Space
  1

  0
ENDBLK
  5
1D
330
1F
100
AcDbEntity
  8
0
100
AcDbBlockEnd
  0
ENDSEC
  0
SECTION
  2
ENTITIES
  0
LINE
  5
50
100
AcDbEntity
  8
burn
  6
ByLayer
 62
  256
370
   -1
100
AcDbLine
 10
70
 20
0
 11
75
 21
0
  0
LINE
  5
51
100
AcDbEntity
  8
burn
  6
ByLayer
 62
  256
370
   -1
100
AcDbLine
 10
30
 20
0
 11
35
 21
0
  0
LWPOLYLINE
  5
52
100
AcDbEntity
  8
short lines
  6
ByLayer
 62
  256
370
   -1
100
AcDbPolyline
 90
    4
 70
    1
 43
0
 10
-115
 20
-115
 10
115
 20
-115
 10
115
 20
115
 10
-115
 20
115
  0
CIRCLE
  5
53
100
AcDbEntity
  8
short lines
  6
ByLayer
 62
  256
370
   -1
100
AcDbCircle
 10
-137.65625
 20
-173.984375
 40
0
  0
LWPOLYLINE
  5
54
100
AcDbEntity
  8
short lines
  6
ByLayer
 62
  256
370
   -1
100
AcDbPolyline
 90
    4
 70
    1
 43
0
 10
40
 20
2.5
 10
45
 20
2.5
 10
45
 20
-2.5
 10
40
 20
-2.5
  0
LWPOLYLINE
  5
55
100
AcDbEntity
  8
short lines
  6
ByLayer
 62
  256
370
   -1
100
AcDbPolyline
 90
    4
 70
    1
 43
0
 10
80
 20
2.5
 10
85
 20
2.5
 10
85
 20
-2.5
 10
80
 20
-2.5
  0
LWPOLYLINE
  5
56
100
AcDbEntity
  8
short lines
  6
ByLayer
 62
  256
370
   -1
100
AcDbPolyline
 90
    4
 70
    1
 43
0
 10
79.30043047129273
 20
10.84858179983296
 10
84.27303994813408
 20
11.37122411617123
 10
84.79568226447236
 20
6.398614639329862
 10
79.82307278763101
 20
5.875972322991595
  0
LWPOLYLINE
  5
57
100
AcDbEntity
  8
short lines
  6
ByLayer
 62
  256
370
   -1
100
AcDbPolyline
 90
    4
 70
    1
 43
0
 10
77.73202883166006
 20
19.07830426725526
 10
82.62276683532909
 20
20.11786272134406
 10
83.66232528941788
 20
15.22712471767503
 10
78.77158728574885
 20
14.18756626358623
  0
LWPOLYLINE
  5
58
100
AcDbEntity
  8
short lines
  6
ByLayer
 62
  256
370
   -1
100
AcDbPolyline
 90
    4
 70
    1
 43
0
 10
75.31197881767491
 20
27.09900084073368
 10
80.06726139915068
 20
28.64408581260841
 10
81.61234637102541
 20
23.88880323113264
 10
76.85706378954964
 20
22.34371825925791
  0
LWPOLYLINE
  5
59
100
AcDbEntity
  8
short lines
  6
ByLayer
 62
  256
370
   -1
100
AcDbPolyline
 90
    4
 70
    1
 43
0
 10
72.06679500371857
 20
34.82279509017052
 10
76.63452229193157
 20
36.85647830554952
 10
78.66820550731057
 20
32.28875101733652
 10
74.10047821909757
 20
30.25506780195752
  0
LWPOLYLINE
  5
5A
100
AcDbEntity
  8
short lines
  6
ByLayer
 62
  256
370
   -1
100
AcDbPolyline
 90
    4
 70
    1
 43
0
 10
68.03203230275508
 20
42.1650635094611
 10
72.36215932167728
 20
44.6650635094611
 10
74.86215932167728
 20
40.3349364905389
 10
70.53203230275508
 20
37.8349364905389
  0
LWPOLYLINE
  5
5B
100
AcDbEntity
  8
short lines
  6
ByLayer
 62
  256
370
   -1
100
AcDbPolyline
 90
    4
 70
    1
 43
0
 10
63.25189641926461
 20
49.04536266933523
 10
67.29698139113935
 20
51.98428893079759
 10
70.23590765260172
 20
47.93920395892285
 10
66.19082268072698
 20
45.00027769746048
  0
LWPOLYLINE
  5
5C
100
AcDbEntity
  8
short lines
  6
ByLayer
 62
  256
370
   -1
100
AcDbPolyline
 90
    4
 70
    1
 43
0
 10
57.77875952229439
 20
55.38831057240215
 10
61.49448364968137
 20
58.73396360419644
 10
64.84013668147566
 20
55.01823947680946
 10
61.12441255408868
 20
51.67258644501517
  0
LWPOLYLINE
  5
5D
100
AcDbEntity
  8
short lines
  6
ByLayer
 62
  256
370
   -1
100
AcDbPolyline
 90
    4
 70
    1
 43
0
 10
51.67258644501517
 20
61.12441255408868
 10
55.01823947680946
 20
64.84013668147566
 10
58.73396360419644
 20
61.49448364968137
 10
55.38831057240215
 20
57.77875952229439
  0
LWPOLYLINE
  5
5E
100
AcDbEntity
  8
short lines
  6
ByLayer
 62
  256
370
   -1
100
AcDbPolyline
 90
    4
 70
    1
 43
0
 10
45.00027769746047
 20
66.19082268072698
 10
47.93920395892284
 20
70.23590765260172
 10
51.98428893079758
 20
67.29698139113935
 10
49.04536266933521
 20
63.25189641926461
  0
LWPOLYLINE
  5
5F
100
AcDbEntity
  8
short lines
  6
ByLayer
 62
  256
370
   -1
100
AcDbPolyline
 90
    4
 70
    1
 43
0
 10
37.83493649053889
 20
70.5320323027551
 10
40.33493649053889
 20
74.8621593216773
 10
44.66506350946109
 20
72.3621593216773
 10
42.16506350946109
 20
68.0320323027551
  0
LWPOLYLINE
  5
60
100
AcDbEntity
  8
short lines
  6
ByLayer
 62
  256
370
   -1
100
AcDbPolyline
 90
    4
 70
    1
 43
0
 10
30.25506780195752
 20
74.10047821909757
 10
32.28875101733652
 20
78.66820550731057
 10
36.85647830554952
 20
76.63452229193157
 10
34.82279509017052
 20
72.06679500371857
  0
LWPOLYLINE
  5
61
100
AcDbEntity
  8
short lines
  6
ByLayer
 62
  256
370
   -1
100
AcDbPolyline
 90
    4
 70
    1
 43
0
 10
22.34371825925791
 20
76.85706378954964
 10
23.88880323113265
 20
81.61234637102541
 10
28.64408581260842
 20
80.06726139915068
 10
27.09900084073368
 20
75.31197881767491
  0
LWPOLYLINE
  5
62
100
AcDbEntity
  8
short lines
  6
ByLayer
 62
  256
370
   -1
100
AcDbPolyline
 90
    4
 70
    1
 43
0
 10
14.18756626358622
 20
78.77158728574885
 10
15.22712471767502
 20
83.66232528941788
 10
20.11786272134405
 20
82.62276683532909
 10
19.07830426725525
 20
77.73202883166006
  0
LWPOLYLINE
  5
63
100
AcDbEntity
  8
short lines
  6
ByLayer
 62
  256
370
   -1
100
AcDbPolyline
 90
    4
 70
    1
 43
0
 10
5.875972322991593
 20
79.82307278763101
 10
6.39861463932986
 20
84.79568226447236
 10
11.37122411617123
 20
84.27303994813408
 10
10.84858179983296
 20
79.30043047129273
  0
LWPOLYLINE
  5
64
100
AcDbEntity
  8
short lines
  6
ByLayer
 62
  256
370
   -1
100
AcDbPolyline
 90
    4
 70
    1
 43
0
 10
-2.500000000000013
 20
80
 10
-2.500000000000014
 20
85
 10
2.499999999999986
 20
85
 10
2.499999999999987
 20
80
  0
LWPOLYLINE
  5
65
100
AcDbEntity
  8
short lines
  6
ByLayer
 62
  256
370
   -1
100
AcDbPolyline
 90
    4
 70
    1
 43
0
 10
-10.84858179983297
 20
79.30043047129273
 10
-11.37122411617124
 20
84.27303994813408
 10
-6.398614639329869
 20
84.79568226447236
 10
-5.875972322991601
 20
79.82307278763101
  0
LWPOLYLINE
  5
66
100
AcDbEntity
  8
short lines
  6
ByLayer
 62
  256
370
   -1
100
AcDbPolyline
 90
    4
 70
    1
 43
0
 10
-19.07830426725526
 20
77.73202883166006
 10
-20.11786272134406
 20
82.62276683532909
 10
-15.22712471767503
 20
83.66232528941788
 10
-14.18756626358623
 20
78.77158728574885
  0
LWPOLYLINE
  5
67
100
AcDbEntity
  8
short lines
  6
ByLayer
 62
  256
370
   -1
100
AcDbPolyline
 90
    4
 70
    1
 43
0
 10
-27.09900084073369
 20
75.31197881767491
 10
-28.64408581260843
 20
80.06726139915068
 10
-23.88880323113266
 20
81.61234637102541
 10
-22.34371825925792
 20
76.85706378954964
  0
LWPOLYLINE
  5
68
100
AcDbEntity
  8
short lines
  6
ByLayer
 62
  256
370
   -1
100
AcDbPolyline
 90
    4
 70
    1
 43
0
 10
-34.82279509017052
 20
72.06679500371857
 10
-36.85647830554952
 20
76.63452229193157
 10
-32.28875101733652
 20
78.66820550731057
 10
-30.25506780195752
 20
74.10047821909757
  0
LWPOLYLINE
  5
69
100
AcDbEntity
  8
short lines
  6
ByLayer
 62
  256
370
   -1
100
AcDbPolyline
 90
    4
 70
    1
 43
0
 10
-42.16506350946111
 20
68.03203230275508
 10
-44.66506350946112
 20
72.36215932167727
 10
-40.33493649053892
 20
74.86215932167727
 10
-37.83493649053892
 20
70.53203230275508
  0
LWPOLYLINE
  5
6A
100
AcDbEntity
  8
short lines
  6
ByLayer
 62
  256
370
   -1
100
AcDbPolyline
 90
    4
 70
    1
 43
0
 10
-49.04536266933521
 20
63.25189641926461
 10
-51.98428893079758
 20
67.29698139113935
 10
-47.93920395892284
 20
70.23590765260172
 10
-45.00027769746047
 20
66.19082268072698
  0
LWPOLYLINE
  5
6B
100
AcDbEntity
  8
short lines
  6
ByLayer
 62
  256
370
   -1
100
AcDbPolyline
 90
    4
 70
    1
 43
0
 10
-55.38831057240215
 20
57.77875952229439
 10
-58.73396360419644
 20
61.49448364968137
 10
-55.01823947680946
 20
64.84013668147566
 10
-51.67258644501517
 20
61.12441255408868
  0
LWPOLYLINE
  5
6C
100
AcDbEntity
  8
short lines
  6
ByLayer
 62
  256
370
   -1
100
AcDbPolyline
 90
    4
 70
    1
 43
0
 10
-61.12441255408869
 20
51.67258644501516
 10
-64.84013668147567
 20
55.01823947680944
 10
-61.49448364968138
 20
58.73396360419642
 10
-57.77875952229441
 20
55.38831057240213
  0
LWPOLYLINE
  5
6D
100
AcDbEntity
  8
short lines
  6
ByLayer
 62
  256
370
   -1
100
AcDbPolyline
 90
    4
 70
    1
 43
0
 10
-66.19082268072697
 20
45.00027769746049
 10
-70.23590765260171
 20
47.93920395892286
 10
-67.29698139113934
 20
51.98428893079759
 10
-63.2518964192646
 20
49.04536266933523
  0
LWPOLYLINE
  5
6E
100
AcDbEntity
  8
short lines
  6
ByLayer
 62
  256
370
   -1
100
AcDbPolyline
 90
    4
 70
    1
 43
0
 10
-70.5320323027551
 20
37.83493649053889
 10
-74.8621593216773
 20
40.33493649053889
 10
-72.3621593216773
 20
44.66506350946109
 10
-68.0320323027551
 20
42.16506350946109
  0
LWPOLYLINE
  5
6F
100
AcDbEntity
  8
short lines
  6
ByLayer
 62
  256
370
   -1
100
AcDbPolyline
 90
    4
 70
    1
 43
0
 10
-74.10047821909758
 20
30.2550678019575
 10
-78.66820550731059
 20
32.2887510173365
 10
-76.63452229193159
 20
36.85647830554951
 10
-72.06679500371858
 20
34.82279509017051
  0
LWPOLYLINE
  5
70
100
AcDbEntity
  8
short lines
  6
ByLayer
 62
  256
370
   -1
100
AcDbPolyline
 90
    4
 70
    1
 43
0
 10
-76.85706378954966
 20
22.34371825925788
 10
-81.61234637102542
 20
23.88880323113262
 10
-80.06726139915069
 20
28.64408581260839
 10
-75.31197881767493
 20
27.09900084073365
  0
LWPOLYLINE
  5
71
100
AcDbEntity
  8
short lines
  6
ByLayer
 62
  256
370
   -1
100
AcDbPolyline
 90
    4
 70
    1
 43
0
 10
-78.77158728574885
 20
14.18756626358623
 10
-83.66232528941788
 20
15.22712471767503
 10
-82.62276683532909
 20
20.11786272134406
 10
-77.73202883166006
 20
19.07830426725526
  0
LWPOLYLINE
  5
72
100
AcDbEntity
  8
short lines
  6
ByLayer
 62
  256
370
   -1
100
AcDbPolyline
 90
    4
 70
    1
 43
0
 10
-79.82307278763101
 20
5.875972322991579
 10
-84.79568226447238
 20
6.398614639329846
 10
-84.2730399481341
 20
11.37122411617121
 10
-79.30043047129273
 20
10.84858179983295
  0
LWPOLYLINE
  5
73
100
AcDbEntity
  8
short lines
  6
ByLayer
 62
  256
370
   -1
100
AcDbPolyline
 90
    4
 70
    1
 43
0
 10
-80
 20
-2.500000000000026
 10
-85
 20
-2.500000000000028
 10
-85
 20
2.499999999999972
 10
-80
 20
2.499999999999974
  0
LWPOLYLINE
  5
74
100
AcDbEntity
  8
short lines
  6
ByLayer
 62
  256
370
   -1
100
AcDbPolyline
 90
    4
 70
    1
 43
0
 10
-79.30043047129273
 20
-10.84858179983296
 10
-84.27303994813408
 20
-11.37122411617123
 10
-84.79568226447236
 20
-6.398614639329864
 10
-79.82307278763101
 20
-5.875972322991597
  0
LWPOLYLINE
  5
75
100
AcDbEntity
  8
short lines
  6
ByLayer
 62
  256
370
   -1
100
AcDbPolyline
 90
    4
 70
    1
 43
0
 10
-77.73202883166005
 20
-19.07830426725528
 10
-82.62276683532907
 20
-20.11786272134407
 10
-83.66232528941786
 20
-15.22712471767504
 10
-78.77158728574884
 20
-14.18756626358625
  0
LWPOLYLINE
  5
76
100
AcDbEntity
  8
short lines
  6
ByLayer
 62
  256
370
   -1
100
AcDbPolyline
 90
    4
 70
    1
 43
0
 10
-75.31197881767491
 20
-27.0990008407337
 10
-80.06726139915068
 20
-28.64408581260844
 10
-81.61234637102541
 20
-23.88880323113267
 10
-76.85706378954964
 20
-22.34371825925793
  0
LWPOLYLINE
  5
77
100
AcDbEntity
  8
short lines
  6
ByLayer
 62
  256
370
   -1
100
AcDbPolyline
 90
    4
 70
    1
 43
0
 10
-72.06679500371857
 20
-34.82279509017052
 10
-76.63452229193157
 20
-36.85647830554952
 10
-78.66820550731057
 20
-32.28875101733652
 10
-74.10047821909757
 20
-30.25506780195752
  0
LWPOLYLINE
  5
78
100
AcDbEntity
  8
short lines
  6
ByLayer
 62
  256
370
   -1
100
AcDbPolyline
 90
    4
 70
    1
 43
0
 10
-68.03203230275508
 20
-42.16506350946111
 10
-72.36215932167728
 20
-44.66506350946111
 10
-74.86215932167728
 20
-40.33493649053891
 10
-70.53203230275508
 20
-37.83493649053891
  0
LWPOLYLINE
  5
79
100
AcDbEntity
  8
short lines
  6
ByLayer
 62
  256
370
   -1
100
AcDbPolyline
 90
    4
 70
    1
 43
0
 10
-63.2518964192646
 20
-49.04536266933523
 10
-67.29698139113933
 20
-51.9842889307976
 10
-70.2359076526017
 20
-47.93920395892287
 10
-66.19082268072697
 20
-45.0002776974605
  0
LWPOLYLINE
  5
7A
100
AcDbEntity
  8
short lines
  6
ByLayer
 62
  256
370
   -1
100
AcDbPolyline
 90
    4
 70
    1
 43
0
 10
-57.77875952229439
 20
-55.38831057240215
 10
-61.49448364968137
 20
-58.73396360419644
 10
-64.84013668147566
 20
-55.01823947680946
 10
-61.12441255408868
 20
-51.67258644501517
  0
LWPOLYLINE
  5
7B
100
AcDbEntity
  8
short lines
  6
ByLayer
 62
  256
370
   -1
100
AcDbPolyline
 90
    4
 70
    1
 43
0
 10
-51.67258644501516
 20
-61.12441255408869
 10
-55.01823947680946
 20
-64.84013668147567
 10
-58.73396360419643
 20
-61.49448364968138
 10
-55.38831057240214
 20
-57.77875952229441
  0
LWPOLYLINE
  5
7C
100
AcDbEntity
  8
short lines
  6
ByLayer
 62
  256
370
   -1
100
AcDbPolyline
 90
    4
 70
    1
 43
0
 10
-45.00027769746049
 20
-66.19082268072697
 10
-47.93920395892286
 20
-70.23590765260171
 10
-51.98428893079759
 20
-67.29698139113934
 10
-49.04536266933523
 20
-63.2518964192646
  0
LWPOLYLINE
  5
7D
100
AcDbEntity
  8
short lines
  6
ByLayer
 62
  256
370
   -1
100
AcDbPolyline
 90
    4
 70
    1
 43
0
 10
-37.83493649053887
 20
-70.53203230275511
 10
-40.33493649053887
 20
-74.8621593216773
 10
-44.66506350946106
 20
-72.3621593216773
 10
-42.16506350946107
 20
-68.03203230275511
  0
LWPOLYLINE
  5
7E
100
AcDbEntity
  8
short lines
  6
ByLayer
 62
  256
370
   -1
100
AcDbPolyline
 90
    4
 70
    1
 43
0
 10
-30.2550678019575
 20
-74.10047821909758
 10
-32.2887510173365
 20
-78.66820550731059
 10
-36.85647830554951
 20
-76.63452229193159
 10
-34.82279509017051
 20
-72.06679500371858
  0
LWPOLYLINE
  5
7F
100
AcDbEntity
  8
short lines
  6
ByLayer
 62
  256
370
   -1
100
AcDbPolyline
 90
    4
 70
    1
 43
0
 10
-22.34371825925792
 20
-76.85706378954964
 10
-23.88880323113266
 20
-81.61234637102541
 10
-28.64408581260843
 20
-80.06726139915068
 10
-27.09900084073369
 20
-75.31197881767491
  0
LWPOLYLINE
  5
80
100
AcDbEntity
  8
short lines
  6
ByLayer
 62
  256
370
   -1
100
AcDbPolyline
 90
    4
 70
    1
 43
0
 10
-14.1875662635862
 20
-78.77158728574885
 10
-15.22712471767499
 20
-83.66232528941788
 10
-20.11786272134402
 20
-82.62276683532909
 10
-19.07830426725523
 20
-77.73202883166006
  0
LWPOLYLINE
  5
81
100
AcDbEntity
  8
short lines
  6
ByLayer
 62
  256
370
   -1
100
AcDbPolyline
 90
    4
 70
    1
 43
0
 10
-5.875972322991585
 20
-79.82307278763101
 10
-6.398614639329852
 20
-84.79568226447238
 10
-11.37122411617122
 20
-84.2730399481341
 10
-10.84858179983295
 20
-79.30043047129273
  0
LWPOLYLINE
  5
82
100
AcDbEntity
  8
short lines
  6
ByLayer
 62
  256
370
   -1
100
AcDbPolyline
 90
    4
 70
    1
 43
0
 10
2.499999999999985
 20
-80
 10
2.499999999999984
 20
-85
 10
-2.500000000000016
 20
-85
 10
-2.500000000000015
 20
-80
  0
LWPOLYLINE
  5
83
100
AcDbEntity
  8
short lines
  6
ByLayer
 62
  256
370
   -1
100
AcDbPolyline
 90
    4
 70
    1
 43
0
 10
10.84858179983299
 20
-79.30043047129273
 10
11.37122411617126
 20
-84.27303994813408
 10
6.398614639329896
 20
-84.79568226447236
 10
5.875972322991627
 20
-79.82307278763101
  0
LWPOLYLINE
  5
84
100
AcDbEntity
  8
short lines
  6
ByLayer
 62
  256
370
   -1
100
AcDbPolyline
 90
    4
 70
    1
 43
0
 10
19.07830426725527
 20
-77.73202883166005
 10
20.11786272134406
 20
-82.62276683532907
 10
15.22712471767504
 20
-83.66232528941786
 10
14.18756626358624
 20
-78.77158728574884
  0
LWPOLYLINE
  5
85
100
AcDbEntity
  8
short lines
  6
ByLayer
 62
  256
370
   -1
100
AcDbPolyline
 90
    4
 70
    1
 43
0
 10
27.09900084073366
 20
-75.31197881767493
 10
28.6440858126084
 20
-80.06726139915069
 10
23.88880323113263
 20
-81.61234637102542
 10
22.34371825925789
 20
-76.85706378954966
  0
LWPOLYLINE
  5
86
100
AcDbEntity
  8
short lines
  6
ByLayer
 62
  256
370
   -1
100
AcDbPolyline
 90
    4
 70
    1
 43
0
 10
34.82279509017054
 20
-72.06679500371855
 10
36.85647830554955
 20
-76.63452229193156
 10
32.28875101733654
 20
-78.66820550731056
 10
30.25506780195754
 20
-74.10047821909755
  0
LWPOLYLINE
  5
87
100
AcDbEntity
  8
short lines
  6
ByLayer
 62
  256
370
   -1
100
AcDbPolyline
 90
    4
 70
    1
 43
0
 10
42.16506350946111
 20
-68.03203230275508
 10
44.66506350946111
 20
-72.36215932167728
 10
40.33493649053891
 20
-74.86215932167728
 10
37.83493649053891
 20
-70.53203230275508
  0
LWPOLYLINE
  5
88
100
AcDbEntity
  8
short lines
  6
ByLayer
 62
  256
370
   -1
100
AcDbPolyline
 90
    4
 70
    1
 43
0
 10
49.04536266933526
 20
-63.25189641926457
 10
51.98428893079763
 20
-67.29698139113931
 10
47.9392039589229
 20
-70.23590765260168
 10
45.00027769746053
 20
-66.19082268072694
  0
LWPOLYLINE
  5
89
100
AcDbEntity
  8
short lines
  6
ByLayer
 62
  256
370
   -1
100
AcDbPolyline
 90
    4
 70
    1
 43
0
 10
55.38831057240216
 20
-57.77875952229438
 10
58.73396360419646
 20
-61.49448364968134
 10
55.01823947680948
 20
-64.84013668147564
 10
51.67258644501518
 20
-61.12441255408866
  0
LWPOLYLINE
  5
8A
100
AcDbEntity
  8
short lines
  6
ByLayer
 62
  256
370
   -1
100
AcDbPolyline
 90
    4
 70
    1
 43
0
 10
61.12441255408868
 20
-51.67258644501516
 10
64.84013668147566
 20
-55.01823947680946
 10
61.49448364968137
 20
-58.73396360419643
 10
57.77875952229439
 20
-55.38831057240214
  0
LWPOLYLINE
  5
8B
100
AcDbEntity
  8
short lines
  6
ByLayer
 62
  256
370
   -1
100
AcDbPolyline
 90
    4
 70
    1
 43
0
 10
66.19082268072701
 20
-45.00027769746043
 10
70.23590765260175
 20
-47.9392039589228
 10
67.29698139113938
 20
-51.98428893079754
 10
63.25189641926465
 20
-49.04536266933518
  0
LWPOLYLINE
  5
8C
100
AcDbEntity
  8
short lines
  6
ByLayer
 62
  256
370
   -1
100
AcDbPolyline
 90
    4
 70
    1
 43
0
 10
70.53203230275511
 20
-37.83493649053887
 10
74.8621593216773
 20
-40.33493649053887
 10
72.3621593216773
 20
-44.66506350946107
 10
68.03203230275511
 20
-42.16506350946107
  0
LWPOLYLINE
  5
8D
100
AcDbEntity
  8
short lines
  6
ByLayer
 62
  256
370
   -1
100
AcDbPolyline
 90
    4
 70
    1
 43
0
 10
74.10047821909758
 20
-30.25506780195751
 10
78.66820550731059
 20
-32.28875101733651
 10
76.63452229193159
 20
-36.85647830554952
 10
72.06679500371858
 20
-34.82279509017052
  0
LWPOLYLINE
  5
8E
100
AcDbEntity
  8
short lines
  6
ByLayer
 62
  256
370
   -1
100
AcDbPolyline
 90
    4
 70
    1
 43
0
 10
76.85706378954967
 20
-22.34371825925786
 10
81.61234637102544
 20
-23.88880323113259
 10
80.06726139915071
 20
-28.64408581260836
 10
75.31197881767494
 20
-27.09900084073363
  0
LWPOLYLINE
  5
8F
100
AcDbEntity
  8
short lines
  6
ByLayer
 62
  256
370
   -1
100
AcDbPolyline
 90
    4
 70
    1
 43
0
 10
78.77158728574885
 20
-14.18756626358621
 10
83.66232528941788
 20
-15.227124717675
 10
82.62276683532909
 20
-20.11786272134403
 10
77.73202883166006
 20
-19.07830426725523
  0
LWPOLYLINE
  5
90
100
AcDbEntity
  8
short lines
  6
ByLayer
 62
  256
370
   -1
100
AcDbPolyline
 90
    4
 70
    1
 43
0
 10
79.82307278763101
 20
-5.87597232299159
 10
84.79568226447236
 20
-6.398614639329857
 10
84.27303994813408
 20
-11.37122411617122
 10
79.30043047129273
 20
-10.84858179983296
  0
LWPOLYLINE
  5
91
100
AcDbEntity
  8
short lines
  6
ByLayer
 62
  256
370
   -1
100
AcDbPolyline
 90
    4
 70
    1
 43
0
 10
37.98998543880643
 20
12.7675763698235
 10
42.81961457025177
 20
14.0616715953361
 10
44.11370979576438
 20
9.232042463890762
 10
39.28408066431903
 20
7.937947238378159
  0
LWPOLYLINE
  5
92
100
AcDbEntity
  8
short lines
  6
ByLayer
 62
  256
370
   -1
100
AcDbPolyline
 90
    4
 70
    1
 43
0
 10
33.39101615137755
 20
22.16506350946109
 10
37.72114317029974
 20
24.66506350946109
 10
40.22114317029974
 20
20.3349364905389
 10
35.89101615137755
 20
17.8349364905389
  0
LWPOLYLINE
  5
93
100
AcDbEntity
  8
short lines
  6
ByLayer
 62
  256
370
   -1
100
AcDbPolyline
 90
    4
 70
    1
 43
0
 10
26.51650429449553
 20
30.05203820042827
 10
30.05203820042827
 20
33.58757210636101
 10
33.58757210636101
 20
30.05203820042827
 10
30.05203820042827
 20
26.51650429449553
  0
LWPOLYLINE
  5
94
100
AcDbEntity
  8
short lines
  6
ByLayer
 62
  256
370
   -1
100
AcDbPolyline
 90
    4
 70
    1
 43
0
 10
17.83493649053891
 20
35.89101615137754
 10
20.33493649053891
 20
40.22114317029974
 10
24.6650635094611
 20
37.72114317029974
 10
22.1650635094611
 20
33.39101615137754
  0
LWPOLYLINE
  5
95
100
AcDbEntity
  8
short lines
  6
ByLayer
 62
  256
370
   -1
100
AcDbPolyline
 90
    4
 70
    1
 43
0
 10
7.937947238378168
 20
39.28408066431903
 10
9.232042463890773
 20
44.11370979576437
 10
14.06167159533611
 20
42.81961457025177
 10
12.76757636982351
 20
37.98998543880642
  0
LWPOLYLINE
  5
96
100
AcDbEntity
  8
short lines
  6
ByLayer
 62
  256
370
   -1
100
AcDbPolyline
 90
    4
 70
    1
 43
0
 10
-2.499999999999997
 20
40
 10
-2.499999999999997
 20
45
 10
2.500000000000003
 20
45
 10
2.500000000000003
 20
40
  0
LWPOLYLINE
  5
97
100
AcDbEntity
  8
short lines
  6
ByLayer
 62
  256
370
   -1
100
AcDbPolyline
 90
    4
 70
    1
 43
0
 10
-12.7675763698235
 20
37.98998543880643
 10
-14.0616715953361
 20
42.81961457025177
 10
-9.232042463890759
 20
44.11370979576438
 10
-7.937947238378156
 20
39.28408066431903
  0
LWPOLYLINE
  5
98
100
AcDbEntity
  8
short lines
  6
ByLayer
 62
  256
370
   -1
100
AcDbPolyline
 90
    4
 70
    1
 43
0
 10
-22.16506350946109
 20
33.39101615137755
 10
-24.66506350946108
 20
37.72114317029974
 10
-20.33493649053889
 20
40.22114317029974
 10
-17.8349364905389
 20
35.89101615137755
  0
LWPOLYLINE
  5
99
100
AcDbEntity
  8
short lines
  6
ByLayer
 62
  256
370
   -1
100
AcDbPolyline
 90
    4
 70
    1
 43
0
 10
-30.05203820042827
 20
26.51650429449553
 10
-33.58757210636101
 20
30.05203820042827
 10
-30.05203820042827
 20
33.58757210636101
 10
-26.51650429449553
 20
30.05203820042827
  0
LWPOLYLINE
  5
9A
100
AcDbEntity
  8
short lines
  6
ByLayer
 62
  256
370
   -1
100
AcDbPolyline
 90
    4
 70
    1
 43
0
 10
-35.89101615137754
 20
17.83493649053892
 10
-40.22114317029973
 20
20.33493649053892
 10
-37.72114317029973
 20
24.66506350946111
 10
-33.39101615137754
 20
22.16506350946111
  0
LWPOLYLINE
  5
9B
100
AcDbEntity
  8
short lines
  6
ByLayer
 62
  256
370
   -1
100
AcDbPolyline
 90
    4
 70
    1
 43
0
 10
-39.28408066431903
 20
7.93794723837817
 10
-44.11370979576437
 20
9.232042463890776
 10
-42.81961457025177
 20
14.06167159533612
 10
-37.98998543880642
 20
12.76757636982351
  0
LWPOLYLINE
  5
9C
100
AcDbEntity
  8
short lines
  6
ByLayer
 62
  256
370
   -1
100
AcDbPolyline
 90
    4
 70
    1
 43
0
 10
-40
 20
-2.499999999999995
 10
-45
 20
-2.499999999999995
 10
-45
 20
2.500000000000005
 10
-40
 20
2.500000000000005
  0
LWPOLYLINE
  5
9D
100
AcDbEntity
  8
short lines
  6
ByLayer
 62
  256
370
   -1
100
AcDbPolyline
 90
    4
 70
    1
 43
0
 10
-37.98998543880644
 20
-12.76757636982348
 10
-42.81961457025177
 20
-14.06167159533609
 10
-44.11370979576438
 20
-9.232042463890746
 10
-39.28408066431904
 20
-7.937947238378142
  0
LWPOLYLINE
  5
9E
100
AcDbEntity
  8
short lines
  6
ByLayer
 62
  256
370
   -1
100
AcDbPolyline
 90
    4
 70
    1
 43
0
 10
-33.39101615137756
 20
-22.16506350946108
 10
-37.72114317029975
 20
-24.66506350946108
 10
-40.22114317029975
 20
-20.33493649053889
 10
-35.89101615137756
 20
-17.83493649053889
  0
LWPOLYLINE
  5
9F
100
AcDbEntity
  8
short lines
  6
ByLayer
 62
  256
370
   -1
100
AcDbPolyline
 90
    4
 70
    1
 43
0
 10
-26.51650429449555
 20
-30.05203820042825
 10
-30.05203820042829
 20
-33.58757210636099
 10
-33.58757210636102
 20
-30.05203820042825
 10
-30.05203820042829
 20
-26.51650429449552
  0
LWPOLYLINE
  5
A0
100
AcDbEntity
  8
short lines
  6
ByLayer
 62
  256
370
   -1
100
AcDbPolyline
 90
    4
 70
    1
 43
0
 10
-17.83493649053892
 20
-35.89101615137753
 10
-20.33493649053893
 20
-40.22114317029973
 10
-24.66506350946112
 20
-37.72114317029973
 10
-22.16506350946111
 20
-33.39101615137753
  0
LWPOLYLINE
  5
A1
100
AcDbEntity
  8
short lines
  6
ByLayer
 62
  256
370
   -1
100
AcDbPolyline
 90
    4
 70
    1
 43
0
 10
-7.937947238378191
 20
-39.28408066431903
 10
-9.232042463890798
 20
-44.11370979576436
 10
-14.06167159533614
 20
-42.81961457025176
 10
-12.76757636982353
 20
-37.98998543880642
  0
LWPOLYLINE
  5
A2
100
AcDbEntity
  8
short lines
  6
ByLayer
 62
  256
370
   -1
100
AcDbPolyline
 90
    4
 70
    1
 43
0
 10
2.499999999999992
 20
-40
 10
2.499999999999992
 20
-45
 10
-2.500000000000008
 20
-45
 10
-2.500000000000008
 20
-40
  0
LWPOLYLINE
  5
A3
100
AcDbEntity
  8
short lines
  6
ByLayer
 62
  256
370
   -1
100
AcDbPolyline
 90
    4
 70
    1
 43
0
 10
12.76757636982348
 20
-37.98998543880644
 10
14.06167159533608
 20
-42.81961457025177
 10
9.232042463890743
 20
-44.11370979576438
 10
7.937947238378141
 20
-39.28408066431904
  0
LWPOLYLINE
  5
A4
100
AcDbEntity
  8
short lines
  6
ByLayer
 62
  256
370
   -1
100
AcDbPolyline
 90
    4
 70
    1
 43
0
 10
22.16506350946107
 20
-33.39101615137756
 10
24.66506350946107
 20
-37.72114317029975
 10
20.33493649053887
 20
-40.22114317029975
 10
17.83493649053887
 20
-35.89101615137756
  0
LWPOLYLINE
  5
A5
100
AcDbEntity
  8
short lines
  6
ByLayer
 62
  256
370
   -1
100
AcDbPolyline
 90
    4
 70
    1
 43
0
 10
30.05203820042826
 20
-26.51650429449554
 10
33.587572106361
 20
-30.05203820042828
 10
30.05203820042826
 20
-33.58757210636102
 10
26.51650429449553
 20
-30.05203820042828
  0
LWPOLYLINE
  5
A6
100
AcDbEntity
  8
short lines
  6
ByLayer
 62
  256
370
   -1
100
AcDbPolyline
 90
    4
 70
    1
 43
0
 10
35.89101615137753
 20
-17.83493649053892
 10
40.22114317029973
 20
-20.33493649053893
 10
37.72114317029973
 20
-24.66506350946112
 10
33.39101615137753
 20
-22.16506350946111
  0
LWPOLYLINE
  5
A7
100
AcDbEntity
  8
short lines
  6
ByLayer
 62
  256
370
   -1
100
AcDbPolyline
 90
    4
 70
    1
 43
0
 10
39.28408066431903
 20
-7.937947238378193
 10
44.11370979576436
 20
-9.232042463890801
 10
42.81961457025176
 20
-14.06167159533614
 10
37.98998543880642
 20
-12.76757636982353
  0
LINE
  5
A8
100
AcDbEntity
  8
burn
  6
ByLayer
 62
  256
370
   -1
100
AcDbLine
 10
69.61653267577913
 20
7.316992428735743
 11
74.5891421526205
 21
7.839634745074011
  0
LINE
  5
A9
100
AcDbEntity
  8
burn
  6
ByLayer
 62
  256
370
   -1
100
AcDbLine
 10
68.4703320513664
 20
14.55381835724315
 11
73.36107005503543
 21
15.59337681133195
  0
LINE
  5
AA
100
AcDbEntity
  8
burn
  6
ByLayer
 62
  256
370
   -1
100
AcDbLine
 10
66.57395614066074
 20
21.63118960624632
 11
71.32923872213651
 21
23.17627457812106
  0
LINE
  5
AB
100
AcDbEntity
  8
burn
  6
ByLayer
 62
  256
370
   -1
100
AcDbLine
 10
63.94818203498206
 20
28.47156501530602
 11
68.51590932319506
 21
30.50524823068502
  0
LINE
  5
AC
100
AcDbEntity
  8
burn
  6
ByLayer
 62
  256
370
   -1
100
AcDbLine
 10
60.6217782649107
 20
35
 11
64.9519052838329
 21
37.5
  0
LINE
  5
AD
100
AcDbEntity
  8
burn
  6
ByLayer
 62
  256
370
   -1
100
AcDbLine
 10
56.63118960624632
 20
41.14496766047312
 11
60.67627457812106
 21
44.08389392193548
  0
LINE
  5
AE
100
AcDbEntity
  8
burn
  6
ByLayer
 62
  256
370
   -1
100
AcDbLine
 10
52.0201377834176
 20
46.83914244512007
 11
55.73586191080457
 21
50.18479547691437
  0
LINE
  5
AF
100
AcDbEntity
  8
burn
  6
ByLayer
 62
  256
370
   -1
100
AcDbLine
 10
46.83914244512007
 20
52.0201377834176
 11
50.18479547691437
 21
55.73586191080457
  0
LINE
  5
B0
100
AcDbEntity
  8
burn
  6
ByLayer
 62
  256
370
   -1
100
AcDbLine
 10
41.14496766047311
 20
56.63118960624632
 11
44.08389392193548
 21
60.67627457812106
  0
LINE
  5
B1
100
AcDbEntity
  8
burn
  6
ByLayer
 62
  256
370
   -1
100
AcDbLine
 10
34.99999999999999
 20
60.62177826491071
 11
37.49999999999999
 21
64.9519052838329
  0
LINE
  5
B2
100
AcDbEntity
  8
burn
  6
ByLayer
 62
  256
370
   -1
100
AcDbLine
 10
28.47156501530602
 20
63.94818203498206
 11
30.50524823068502
 21
68.51590932319506
  0
LINE
  5
B3
100
AcDbEntity
  8
burn
  6
ByLayer
 62
  256
370
   -1
100
AcDbLine
 10
21.63118960624632
 20
66.57395614066074
 11
23.17627457812106
 21
71.32923872213651
  0
LINE
  5
B4
100
AcDbEntity
  8
burn
  6
ByLayer
 62
  256
370
   -1
100
AcDbLine
 10
14.55381835724315
 20
68.4703320513664
 11
15.59337681133194
 21
73.36107005503543
  0
LINE
  5
B5
100
AcDbEntity
  8
burn
  6
ByLayer
 62
  256
370
   -1
100
AcDbLine
 10
7.316992428735742
 20
69.61653267577913
 11
7.839634745074009
 21
74.5891421526205
  0
LINE
  5
B6
100
AcDbEntity
  8
burn
  6
ByLayer
 62
  256
370
   -1
100
AcDbLine
 10
-1.125685854773646e-14
 20
70
 11
-1.206091987257477e-14
 21
75
  0
LINE
  5
B7
100
AcDbEntity
  8
burn
  6
ByLayer
 62
  256
370
   -1
100
AcDbLine
 10
-7.316992428735749
 20
69.61653267577913
 11
-7.839634745074017
 21
74.5891421526205
  0
LINE
  5
B8
100
AcDbEntity
  8
burn
  6
ByLayer
 62
  256
370
   -1
100
AcDbLine
 10
-14.55381835724315
 20
68.4703320513664
 11
-15.59337681133195
 21
73.36107005503543
  0
LINE
  5
B9
100
AcDbEntity
  8
burn
  6
ByLayer
 62
  256
370
   -1
100
AcDbLine
 10
-21.63118960624633
 20
66.57395614066074
 11
-23.17627457812107
 21
71.32923872213651
  0
LINE
  5
BA
100
AcDbEntity
  8
burn
  6
ByLayer
 62
  256
370
   -1
100
AcDbLine
 10
-28.47156501530602
 20
63.94818203498206
 11
-30.50524823068502
 21
68.51590932319506
  0
LINE
  5
BB
100
AcDbEntity
  8
burn
  6
ByLayer
 62
  256
370
   -1
100
AcDbLine
 10
-35.00000000000001
 20
60.6217782649107
 11
-37.50000000000001
 21
64.95190528383289
  0
LINE
  5
BC
100
AcDbEntity
  8
burn
  6
ByLayer
 62
  256
370
   -1
100
AcDbLine
 10
-41.14496766047311
 20
56.63118960624632
 11
-44.08389392193548
 21
60.67627457812106
  0
LINE
  5
BD
100
AcDbEntity
  8
burn
  6
ByLayer
 62
  256
370
   -1
100
AcDbLine
 10
-46.83914244512007
 20
52.0201377834176
 11
-50.18479547691437
 21
55.73586191080457
  0
LINE
  5
BE
100
AcDbEntity
  8
burn
  6
ByLayer
 62
  256
370
   -1
100
AcDbLine
 10
-52.0201377834176
 20
46.83914244512006
 11
-55.73586191080458
 21
50.18479547691435
  0
LINE
  5
BF
100
AcDbEntity
  8
burn
  6
ByLayer
 62
  256
370
   -1
100
AcDbLine
 10
-56.63118960624632
 20
41.14496766047313
 11
-60.67627457812105
 21
44.08389392193549
  0
LINE
  5
C0
100
AcDbEntity
  8
burn
  6
ByLayer
 62
  256
370
   -1
100
AcDbLine
 10
-60.62177826491071
 20
34.99999999999999
 11
-64.9519052838329
 21
37.49999999999999
  0
LINE
  5
C1
100
AcDbEntity
  8
burn
  6
ByLayer
 62
  256
370
   -1
100
AcDbLine
 10
-63.94818203498207
 20
28.471565015306
 11
-68.51590932319507
 21
30.505248230685
  0
LINE
  5
C2
100
AcDbEntity
  8
burn
  6
ByLayer
 62
  256
370
   -1
100
AcDbLine
 10
-66.57395614066075
 20
21.6311896062463
 11
-71.32923872213652
 21
23.17627457812103
  0
LINE
  5
C3
100
AcDbEntity
  8
burn
  6
ByLayer
 62
  256
370
   -1
100
AcDbLine
 10
-68.4703320513664
 20
14.55381835724315
 11
-73.36107005503543
 21
15.59337681133195
  0
LINE
  5
C4
100
AcDbEntity
  8
burn
  6
ByLayer
 62
  256
370
   -1
100
AcDbLine
 10
-69.61653267577914
 20
7.31699242873573
 11
-74.58914215262051
 21
7.839634745073996
  0
LINE
  5
C5
100
AcDbEntity
  8
burn
  6
ByLayer
 62
  256
370
   -1
100
AcDbLine
 10
-70
 20
-2.251371709547291e-14
 11
-75
 21
-2.412183974514955e-14
  0
LINE
  5
C6
100
AcDbEntity
  8
burn
  6
ByLayer
 62
  256
370
   -1
100
AcDbLine
 10
-69.61653267577913
 20
-7.316992428735745
 11
-74.5891421526205
 21
-7.839634745074012
  0
LINE
  5
C7
100
AcDbEntity
  8
burn
  6
ByLayer
 62
  256
370
   -1
100
AcDbLine
 10
-68.47033205136638
 20
-14.55381835724317
 11
-73.36107005503541
 21
-15.59337681133196
  0
LINE
  5
C8
100
AcDbEntity
  8
burn
  6
ByLayer
 62
  256
370
   -1
100
AcDbLine
 10
-66.57395614066074
 20
-21.63118960624634
 11
-71.32923872213651
 21
-23.17627457812108
  0
LINE
  5
C9
100
AcDbEntity
  8
burn
  6
ByLayer
 62
  256
370
   -1
100
AcDbLine
 10
-63.94818203498206
 20
-28.47156501530602
 11
-68.51590932319506
 21
-30.50524823068502
  0
LINE
  5
CA
100
AcDbEntity
  8
burn
  6
ByLayer
 62
  256
370
   -1
100
AcDbLine
 10
-60.6217782649107
 20
-35.00000000000001
 11
-64.9519052838329
 21
-37.50000000000001
  0
LINE
  5
CB
100
AcDbEntity
  8
burn
  6
ByLayer
 62
  256
370
   -1
100
AcDbLine
 10
-56.63118960624631
 20
-41.14496766047314
 11
-60.67627457812105
 21
-44.0838939219355
  0
LINE
  5
CC
100
AcDbEntity
  8
burn
  6
ByLayer
 62
  256
370
   -1
100
AcDbLine
 10
-52.0201377834176
 20
-46.83914244512007
 11
-55.73586191080457
 21
-50.18479547691437
  0
LINE
  5
CD
100
AcDbEntity
  8
burn
  6
ByLayer
 62
  256
370
   -1
100
AcDbLine
 10
-46.83914244512007
 20
-52.0201377834176
 11
-50.18479547691436
 21
-55.73586191080458
  0
LINE
  5
CE
100
AcDbEntity
  8
burn
  6
ByLayer
 62
  256
370
   -1
100
AcDbLine
 10
-41.14496766047313
 20
-56.63118960624632
 11
-44.08389392193549
 21
-60.67627457812105
  0
LINE
  5
CF
100
AcDbEntity
  8
burn
  6
ByLayer
 62
  256
370
   -1
100
AcDbLine
 10
-34.99999999999997
 20
-60.62177826491072
 11
-37.49999999999997
 21
-64.95190528383291
  0
LINE
  5
D0
100
AcDbEntity
  8
burn
  6
ByLayer
 62
  256
370
   -1
100
AcDbLine
 10
-28.47156501530601
 20
-63.94818203498207
 11
-30.50524823068501
 21
-68.51590932319507
  0
LINE
  5
D1
100
AcDbEntity
  8
burn
  6
ByLayer
 62
  256
370
   -1
100
AcDbLine
 10
-21.63118960624633
 20
-66.57395614066074
 11
-23.17627457812107
 21
-71.32923872213651
  0
LINE
  5
D2
100
AcDbEntity
  8
burn
  6
ByLayer
 62
  256
370
   -1
100
AcDbLine
 10
-14.55381835724313
 20
-68.4703320513664
 11
-15.59337681133192
 21
-73.36107005503543
  0
LINE
  5
D3
100
AcDbEntity
  8
burn
  6
ByLayer
 62
  256
370
   -1
100
AcDbLine
 10
-7.316992428735735
 20
-69.61653267577914
 11
-7.839634745074002
 21
-74.58914215262051
  0
LINE
  5
D4
100
AcDbEntity
  8
burn
  6
ByLayer
 62
  256
370
   -1
100
AcDbLine
 10
-1.285879139104721e-14
 20
-70
 11
-1.377727649040772e-14
 21
-75
  0
LINE
  5
D5
100
AcDbEntity
  8
burn
  6
ByLayer
 62
  256
370
   -1
100
AcDbLine
 10
7.316992428735771
 20
-69.61653267577913
 11
7.839634745074041
 21
-74.5891421526205
  0
LINE
  5
D6
100
AcDbEntity
  8
burn
  6
ByLayer
 62
  256
370
   -1
100
AcDbLine
 10
14.55381835724316
 20
-68.47033205136638
 11
15.59337681133196
 21
-73.36107005503541
  0
LINE
  5
D7
100
AcDbEntity
  8
burn
  6
ByLayer
 62
  256
370
   -1
100
AcDbLine
 10
21.63118960624631
 20
-66.57395614066075
 11
23.17627457812104
 21
-71.32923872213652
  0
LINE
  5
D8
100
AcDbEntity
  8
burn
  6
ByLayer
 62
  256
370
   -1
100
AcDbLine
 10
28.47156501530604
 20
-63.94818203498205
 11
30.50524823068504
 21
-68.51590932319506
  0
LINE
  5
D9
100
AcDbEntity
  8
burn
  6
ByLayer
 62
  256
370
   -1
100
AcDbLine
 10
35.00000000000001
 20
-60.6217782649107
 11
37.50000000000001
 21
-64.9519052838329
  0
LINE
  5
DA
100
AcDbEntity
  8
burn
  6
ByLayer
 62
  256
370
   -1
100
AcDbLine
 10
41.14496766047316
 20
-56.63118960624629
 11
44.08389392193553
 21
-60.67627457812102
  0
LINE
  5
DB
100
AcDbEntity
  8
burn
  6
ByLayer
 62
  256
370
   -1
100
AcDbLine
 10
46.83914244512009
 20
-52.02013778341758
 11
50.18479547691438
 21
-55.73586191080455
  0
LINE
  5
DC
100
AcDbEntity
  8
burn
  6
ByLayer
 62
  256
370
   -1
100
AcDbLine
 10
52.0201377834176
 20
-46.83914244512007
 11
55.73586191080457
 21
-50.18479547691436
  0
LINE
  5
DD
100
AcDbEntity
  8
burn
  6
ByLayer
 62
  256
370
   -1
100
AcDbLine
 10
56.63118960624634
 20
-41.14496766047308
 11
60.67627457812108
 21
-44.08389392193544
  0
LINE
  5
DE
100
AcDbEntity
  8
burn
  6
ByLayer
 62
  256
370
   -1
100
AcDbLine
 10
60.62177826491072
 20
-34.99999999999998
 11
64.95190528383291
 21
-37.49999999999997
  0
LINE
  5
DF
100
AcDbEntity
  8
burn
  6
ByLayer
 62
  256
370
   -1
100
AcDbLine
 10
63.94818203498207
 20
-28.47156501530601
 11
68.51590932319507
 21
-30.50524823068501
  0
LINE
  5
E0
100
AcDbEntity
  8
burn
  6
ByLayer
 62
  256
370
   -1
100
AcDbLine
 10
66.57395614066077
 20
-21.63118960624627
 11
71.32923872213654
 21
-23.17627457812101
  0
LINE
  5
E1
100
AcDbEntity
  8
burn
  6
ByLayer
 62
  256
370
   -1
100
AcDbLine
 10
68.4703320513664
 20
-14.55381835724313
 11
73.36107005503543
 21
-15.59337681133192
  0
LINE
  5
E2
100
AcDbEntity
  8
burn
  6
ByLayer
 62
  256
370
   -1
100
AcDbLine
 10
69.61653267577913
 20
-7.316992428735739
 11
74.5891421526205
 21
-7.839634745074006
  0
LINE
  5
E3
100
AcDbEntity
  8
burn
  6
ByLayer
 62
  256
370
   -1
100
AcDbLine
 10
28.97777478867205
 20
7.764571353075622
 11
33.80740392011739
 21
9.058666578588227
  0
LINE
  5
E4
100
AcDbEntity
  8
burn
  6
ByLayer
 62
  256
370
   -1
100
AcDbLine
 10
25.98076211353316
 20
15
 11
30.31088913245535
 21
17.5
  0
LINE
  5
E5
100
AcDbEntity
  8
burn
  6
ByLayer
 62
  256
370
   -1
100
AcDbLine
 10
21.21320343559643
 20
21.21320343559642
 11
24.74873734152916
 21
24.74873734152916
  0
LINE
  5
E6
100
AcDbEntity
  8
burn
  6
ByLayer
 62
  256
370
   -1
100
AcDbLine
 10
15
 20
25.98076211353316
 11
17.5
 21
30.31088913245535
  0
LINE
  5
E7
100
AcDbEntity
  8
burn
  6
ByLayer
 62
  256
370
   -1
100
AcDbLine
 10
7.764571353075629
 20
28.97777478867205
 11
9.058666578588234
 21
33.80740392011739
  0
LINE
  5
E8
100
AcDbEntity
  8
burn
  6
ByLayer
 62
  256
370
   -1
100
AcDbLine
 10
1.83697019872103e-15
 20
30
 11
2.143131898507868e-15
 21
35
  0
LINE
  5
E9
100
AcDbEntity
  8
burn
  6
ByLayer
 62
  256
370
   -1
100
AcDbLine
 10
-7.764571353075619
 20
28.97777478867205
 11
-9.058666578588221
 21
33.80740392011739
  0
LINE
  5
EA
100
AcDbEntity
  8
burn
  6
ByLayer
 62
  256
370
   -1
100
AcDbLine
 10
-14.99999999999999
 20
25.98076211353316
 11
-17.49999999999999
 21
30.31088913245535
  0
LINE
  5
EB
100
AcDbEntity
  8
burn
  6
ByLayer
 62
  256
370
   -1
100
AcDbLine
 10
-21.21320343559642
 20
21.21320343559643
 11
-24.74873734152916
 21
24.74873734152916
  0
LINE
  5
EC
100
AcDbEntity
  8
burn
  6
ByLayer
 62
  256
370
   -1
100
AcDbLine
 10
-25.98076211353315
 20
15.00000000000001
 11
-30.31088913245535
 21
17.50000000000001
  0
LINE
  5
ED
100
AcDbEntity
  8
burn
  6
ByLayer
 62
  256
370
   -1
100
AcDbLine
 10
-28.97777478867205
 20
7.76457135307563
 11
-33.80740392011739
 21
9.058666578588236
  0
LINE
  5
EE
100
AcDbEntity
  8
burn
  6
ByLayer
 62
  256
370
   -1
100
AcDbLine
 10
-30
 20
3.67394039744206e-15
 11
-35
 21
4.286263797015736e-15
  0
LINE
  5
EF
100
AcDbEntity
  8
burn
  6
ByLayer
 62
  256
370
   -1
100
AcDbLine
 10
-28.97777478867205
 20
-7.764571353075611
 11
-33.80740392011739
 21
-9.058666578588213
  0
LINE
  5
F0
100
AcDbEntity
  8
burn
  6
ByLayer
 62
  256
370
   -1
100
AcDbLine
 10
-25.98076211353316
 20
-14.99999999999999
 11
-30.31088913245536
 21
-17.49999999999999
  0
LINE
  5
F1
100
AcDbEntity
  8
burn
  6
ByLayer
 62
  256
370
   -1
100
AcDbLine
 10
-21.21320343559644
 20
-21.21320343559641
 11
-24.74873734152918
 21
-24.74873734152915
  0
LINE
  5
F2
100
AcDbEntity
  8
burn
  6
ByLayer
 62
  256
370
   -1
100
AcDbLine
 10
-15.00000000000001
 20
-25.98076211353315
 11
-17.50000000000001
 21
-30.31088913245534
  0
LINE
  5
F3
100
AcDbEntity
  8
burn
  6
ByLayer
 62
  256
370
   -1
100
AcDbLine
 10
-7.764571353075645
 20
-28.97777478867204
 11
-9.058666578588253
 21
-33.80740392011738
  0
LINE
  5
F4
100
AcDbEntity
  8
burn
  6
ByLayer
 62
  256
370
   -1
100
AcDbLine
 10
-5.510910596163089e-15
 20
-30
 11
-6.429395695523604e-15
 21
-35
  0
LINE
  5
F5
100
AcDbEntity
  8
burn
  6
ByLayer
 62
  256
370
   -1
100
AcDbLine
 10
7.764571353075609
 20
-28.97777478867205
 11
9.058666578588211
 21
-33.80740392011739
  0
LINE
  5
F6
100
AcDbEntity
  8
burn
  6
ByLayer
 62
  256
370
   -1
100
AcDbLine
 10
14.99999999999998
 20
-25.98076211353317
 11
17.49999999999998
 21
-30.31088913245537
  0
LINE
  5
F7
100
AcDbEntity
  8
burn
  6
ByLayer
 62
  256
370
   -1
100
AcDbLine
 10
21.21320343559642
 20
-21.21320343559643
 11
24.74873734152916
 21
-24.74873734152917
  0
LINE
  5
F8
100
AcDbEntity
  8
burn
  6
ByLayer
 62
  256
370
   -1
100
AcDbLine
 10
25.98076211353315
 20
-15.00000000000001
 11
30.31088913245534
 21
-17.50000000000001
  0
LINE
  5
F9
100
AcDbEntity
  8
burn
  6
ByLayer
 62
  256
370
   -1
100
AcDbLine
 10
28.97777478867204
 20
-7.764571353075647
 11
33.80740392011738
 21
-9.058666578588255
  0
TEXT
  5
FA
100
AcDbEntity
  8
text
  6
ByLayer
 62
  256
370
   -1
100
AcDbText
 10
0
 20
60
 30
0
 40
5
  1
60
 50
0
 41
1
 51
0
  7

 71
    0
 72
    4
 11
0
 21
60
 31
0
210
0
220
0
230
1
100
AcDbText
  0
TEXT
  5
FB
100
AcDbEntity
  8
text
  6
ByLayer
 62
  256
370
   -1
100
AcDbText
 10
60
 20
0
 30
0
 40
5
  1
15
 50
0
 41
1
 51
0
  7

 71
    0
 72
    4
 11
60
 21
0
 31
0
210
0
220
0
230
1
100
AcDbText
  0
TEXT
  5
FC
100
AcDbEntity
  8
text
  6
ByLayer
 62
  256
370
   -1
100
AcDbText
 10
-60
 20
0
 30
0
 40
5
  1
45
 50
0
 41
1
 51
0
  7

 71
    0
 72
    4
 11
-60
 21
0
 31
0
210
0
220
0
230
1
100
AcDbText
  0
TEXT
  5
FD
100
AcDbEntity
  8
text
  6
ByLayer
 62
  256
370
   -1
100
AcDbText
 10
0
 20
20
 30
0
 40
5
  1
12
 50
0
 41
1
 51
0
  7

 71
    0
 72
    4
 11
0
 21
20
 31
0
210
0
220
0
230
1
100
AcDbText
  0
TEXT
  5
FE
100
AcDbEntity
  8
text
  6
ByLayer
 62
  256
370
   -1
100
AcDbText
 10
20
 20
0
 30
0
 40
5
  1
6
 50
0
 41
1
 51
0
  7

 71
    0
 72
    4
 11
20
 21
0
 31
0
210
0
220
0
230
1
100
AcDbText
  0
TEXT
  5
FF
100
AcDbEntity
  8
text
  6
ByLayer
 62
  256
370
   -1
100
AcDbText
 10
-20
 20
0
 30
0
 40
5
  1
18
 50
0
 41
1
 51
0
  7

 71
    0
 72
    4
 11
-20
 21
0
 31
0
210
0
220
0
230
1
100
AcDbText
  0
TEXT
  5
100
100
AcDbEntity
  8
text
  6
ByLayer
 62
  256
370
   -1
100
AcDbText
 10
0
 20
-60
 30
0
 40
5
  1
30
 50
0
 41
1
 51
0
  7

 71
    0
 72
    4
 11
0
 21
-60
 31
0
210
0
220
0
230
1
100
AcDbText
  0
TEXT
  5
101
100
AcDbEntity
  8
text
  6
ByLayer
 62
  256
370
   -1
100
AcDbText
 10
0
 20
-20
 30
0
 40
5
  1
12
 50
0
 41
1
 51
0
  7

 71
    0
 72
    4
 11
0
 21
-20
 31
0
210
0
220
0
230
1
100
AcDbText
  0
ENDSEC
  0
SECTION
  2
OBJECTS
  0
DICTIONARY
  5
C
330
0
100
AcDbDictionary
281
    1
  3
ACAD_GROUP
350
D
  0
DICTIONARY
  5
D
330
C
100
AcDbDictionary
281
    1
  0
ENDSEC
  0
EOF
