0
SECTION
2
HEADER
0
ENDSEC
0
SECTION
2
TABLES
0
TABLE
2
LAYER
70
2
0
LAYER
2
CUT_OUTER
70
0
62
7
6
CONTINUOUS
0
LAYER
2
CUT_SQUARES
70
0
62
7
6
CONTINUOUS
0
ENDTAB
0
ENDSEC
0
SECTION
2
BLOCKS
0
ENDSEC
0
SECTION
2
ENTITIES
0
LWPOLYLINE
8
CUT_OUTER
90
4
70
1
10
0.0000
20
0.0000
10
230.0000
20
0.0000
10
230.0000
20
230.0000
10
0.0000
20
230.0000
0
LWPOLYLINE
8
CUT_SQUARES
90
4
70
1
10
37.5000
20
37.5000
10
42.5000
20
37.5000
10
42.5000
20
42.5000
10
37.5000
20
42.5000
0
LWPOLYLINE
8
CUT_SQUARES
90
4
70
1
10
47.5000
20
37.5000
10
52.5000
20
37.5000
10
52.5000
20
42.5000
10
47.5000
20
42.5000
0
LWPOLYLINE
8
CUT_SQUARES
90
4
70
1
10
57.5000
20
37.5000
10
62.5000
20
37.5000
10
62.5000
20
42.5000
10
57.5000
20
42.5000
0
LWPOLYLINE
8
CUT_SQUARES
90
4
70
1
10
67.5000
20
37.5000
10
72.5000
20
37.5000
10
72.5000
20
42.5000
10
67.5000
20
42.5000
0
LWPOLYLINE
8
CUT_SQUARES
90
4
70
1
10
77.5000
20
37.5000
10
82.5000
20
37.5000
10
82.5000
20
42.5000
10
77.5000
20
42.5000
0
LWPOLYLINE
8
CUT_SQUARES
90
4
70
1
10
87.5000
20
37.5000
10
92.5000
20
37.5000
10
92.5000
20
42.5000
10
87.5000
20
42.5000
0
LWPOLYLINE
8
CUT_SQUARES
90
4
70
1
10
97.5000
20
37.5000
10
102.5000
20
37.5000
10
102.5000
20
42.5000
10
97.5000
20
42.5000
0
LWPOLYLINE
8
CUT_SQUARES
90
4
70
1
10
107.5000
20
37.5000
10
112.5000
20
37.5000
10
112.5000
20
42.5000
10
107.5000
20
42.5000
0
LWPOLYLINE
8
CUT_SQUARES
90
4
70
1
10
117.5000
20
37.5000
10
122.5000
20
37.5000
10
122.5000
20
42.5000
10
117.5000
20
42.5000
0
LWPOLYLINE
8
CUT_SQUARES
90
4
70
1
10
127.5000
20
37.5000
10
132.5000
20
37.5000
10
132.5000
20
42.5000
10
127.5000
20
42.5000
0
LWPOLYLINE
8
CUT_SQUARES
90
4
70
1
10
137.5000
20
37.5000
10
142.5000
20
37.5000
10
142.5000
20
42.5000
10
137.5000
20
42.5000
0
LWPOLYLINE
8
CUT_SQUARES
90
4
70
1
10
147.5000
20
37.5000
10
152.5000
20
37.5000
10
152.5000
20
42.5000
10
147.5000
20
42.5000
0
LWPOLYLINE
8
CUT_SQUARES
90
4
70
1
10
157.5000
20
37.5000
10
162.5000
20
37.5000
10
162.5000
20
42.5000
10
157.5000
20
42.5000
0
LWPOLYLINE
8
CUT_SQUARES
90
4
70
1
10
167.5000
20
37.5000
10
172.5000
20
37.5000
10
172.5000
20
42.5000
10
167.5000
20
42.5000
0
LWPOLYLINE
8
CUT_SQUARES
90
4
70
1
10
177.5000
20
37.5000
10
182.5000
20
37.5000
10
182.5000
20
42.5000
10
177.5000
20
42.5000
0
LWPOLYLINE
8
CUT_SQUARES
90
4
70
1
10
187.5000
20
37.5000
10
192.5000
20
37.5000
10
192.5000
20
42.5000
10
187.5000
20
42.5000
0
LWPOLYLINE
8
CUT_SQUARES
90
4
70
1
10
37.5000
20
47.5000
10
42.5000
20
47.5000
10
42.5000
20
52.5000
10
37.5000
20
52.5000
0
LWPOLYLINE
8
CUT_SQUARES
90
4
70
1
10
47.5000
20
47.5000
10
52.5000
20
47.5000
10
52.5000
20
52.5000
10
47.5000
20
52.5000
0
LWPOLYLINE
8
CUT_SQUARES
90
4
70
1
10
57.5000
20
47.5000
10
62.5000
20
47.5000
10
62.5000
20
52.5000
10
57.5000
20
52.5000
0
LWPOLYLINE
8
CUT_SQUARES
90
4
70
1
10
67.5000
20
47.5000
10
72.5000
20
47.5000
10
72.5000
20
52.5000
10
67.5000
20
52.5000
0
LWPOLYLINE
8
CUT_SQUARES
90
4
70
1
10
77.5000
20
47.5000
10
82.5000
20
47.5000
10
82.5000
20
52.5000
10
77.5000
20
52.5000
0
LWPOLYLINE
8
CUT_SQUARES
90
4
70
1
10
87.5000
20
47.5000
10
92.5000
20
47.5000
10
92.5000
20
52.5000
10
87.5000
20
52.5000
0
LWPOLYLINE
8
CUT_SQUARES
90
4
70
1
10
97.5000
20
47.5000
10
102.5000
20
47.5000
10
102.5000
20
52.5000
10
97.5000
20
52.5000
0
LWPOLYLINE
8
CUT_SQUARES
90
4
70
1
10
107.5000
20
47.5000
10
112.5000
20
47.5000
10
112.5000
20
52.5000
10
107.5000
20
52.5000
0
LWPOLYLINE
8
CUT_SQUARES
90
4
70
1
10
117.5000
20
47.5000
10
122.5000
20
47.5000
10
122.5000
20
52.5000
10
117.5000
20
52.5000
0
LWPOLYLINE
8
CUT_SQUARES
90
4
70
1
10
127.5000
20
47.5000
10
132.5000
20
47.5000
10
132.5000
20
52.5000
10
127.5000
20
52.5000
0
LWPOLYLINE
8
CUT_SQUARES
90
4
70
1
10
137.5000
20
47.5000
10
142.5000
20
47.5000
10
142.5000
20
52.5000
10
137.5000
20
52.5000
0
LWPOLYLINE
8
CUT_SQUARES
90
4
70
1
10
147.5000
20
47.5000
10
152.5000
20
47.5000
10
152.5000
20
52.5000
10
147.5000
20
52.5000
0
LWPOLYLINE
8
CUT_SQUARES
90
4
70
1
10
157.5000
20
47.5000
10
162.5000
20
47.5000
10
162.5000
20
52.5000
10
157.5000
20
52.5000
0
LWPOLYLINE
8
CUT_SQUARES
90
4
70
1
10
167.5000
20
47.5000
10
172.5000
20
47.5000
10
172.5000
20
52.5000
10
167.5000
20
52.5000
0
LWPOLYLINE
8
CUT_SQUARES
90
4
70
1
10
177.5000
20
47.5000
10
182.5000
20
47.5000
10
182.5000
20
52.5000
10
177.5000
20
52.5000
0
LWPOLYLINE
8
CUT_SQUARES
90
4
70
1
10
187.5000
20
47.5000
10
192.5000
20
47.5000
10
192.5000
20
52.5000
10
187.5000
20
52.5000
0
LWPOLYLINE
8
CUT_SQUARES
90
4
70
1
10
37.5000
20
57.5000
10
42.5000
20
57.5000
10
42.5000
20
62.5000
10
37.5000
20
62.5000
0
LWPOLYLINE
8
CUT_SQUARES
90
4
70
1
10
47.5000
20
57.5000
10
52.5000
20
57.5000
10
52.5000
20
62.5000
10
47.5000
20
62.5000
0
LWPOLYLINE
8
CUT_SQUARES
90
4
70
1
10
57.5000
20
57.5000
10
62.5000
20
57.5000
10
62.5000
20
62.5000
10
57.5000
20
62.5000
0
LWPOLYLINE
8
CUT_SQUARES
90
4
70
1
10
67.5000
20
57.5000
10
72.5000
20
57.5000
10
72.5000
20
62.5000
10
67.5000
20
62.5000
0
LWPOLYLINE
8
CUT_SQUARES
90
4
70
1
10
77.5000
20
57.5000
10
82.5000
20
57.5000
10
82.5000
20
62.5000
10
77.5000
20
62.5000
0
LWPOLYLINE
8
CUT_SQUARES
90
4
70
1
10
87.5000
20
57.5000
10
92.5000
20
57.5000
10
92.5000
20
62.5000
10
87.5000
20
62.5000
0
LWPOLYLINE
8
CUT_SQUARES
90
4
70
1
10
97.5000
20
57.5000
10
102.5000
20
57.5000
10
102.5000
20
62.5000
10
97.5000
20
62.5000
0
LWPOLYLINE
8
CUT_SQUARES
90
4
70
1
10
107.5000
20
57.5000
10
112.5000
20
57.5000
10
112.5000
20
62.5000
10
107.5000
20
62.5000
0
LWPOLYLINE
8
CUT_SQUARES
90
4
70
1
10
117.5000
20
57.5000
10
122.5000
20
57.5000
10
122.5000
20
62.5000
10
117.5000
20
62.5000
0
LWPOLYLINE
8
CUT_SQUARES
90
4
70
1
10
127.5000
20
57.5000
10
132.5000
20
57.5000
10
132.5000
20
62.5000
10
127.5000
20
62.5000
0
LWPOLYLINE
8
CUT_SQUARES
90
4
70
1
10
137.5000
20
57.5000
10
142.5000
20
57.5000
10
142.5000
20
62.5000
10
137.5000
20
62.5000
0
LWPOLYLINE
8
CUT_SQUARES
90
4
70
1
10
147.5000
20
57.5000
10
152.5000
20
57.5000
10
152.5000
20
62.5000
10
147.5000
20
62.5000
0
LWPOLYLINE
8
CUT_SQUARES
90
4
70
1
10
157.5000
20
57.5000
10
162.5000
20
57.5000
10
162.5000
20
62.5000
10
157.5000
20
62.5000
0
LWPOLYLINE
8
CUT_SQUARES
90
4
70
1
10
167.5000
20
57.5000
10
172.5000
20
57.5000
10
172.5000
20
62.5000
10
167.5000
20
62.5000
0
LWPOLYLINE
8
CUT_SQUARES
90
4
70
1
10
177.5000
20
57.5000
10
182.5000
20
57.5000
10
182.5000
20
62.5000
10
177.5000
20
62.5000
0
LWPOLYLINE
8
CUT_SQUARES
90
4
70
1
10
187.5000
20
57.5000
10
192.5000
20
57.5000
10
192.5000
20
62.5000
10
187.5000
20
62.5000
0
LWPOLYLINE
8
CUT_SQUARES
90
4
70
1
10
37.5000
20
67.5000
10
42.5000
20
67.5000
10
42.5000
20
72.5000
10
37.5000
20
72.5000
0
LWPOLYLINE
8
CUT_SQUARES
90
4
70
1
10
47.5000
20
67.5000
10
52.5000
20
67.5000
10
52.5000
20
72.5000
10
47.5000
20
72.5000
0
LWPOLYLINE
8
CUT_SQUARES
90
4
70
1
10
57.5000
20
67.5000
10
62.5000
20
67.5000
10
62.5000
20
72.5000
10
57.5000
20
72.5000
0
LWPOLYLINE
8
CUT_SQUARES
90
4
70
1
10
67.5000
20
67.5000
10
72.5000
20
67.5000
10
72.5000
20
72.5000
10
67.5000
20
72.5000
0
LWPOLYLINE
8
CUT_SQUARES
90
4
70
1
10
77.5000
20
67.5000
10
82.5000
20
67.5000
10
82.5000
20
72.5000
10
77.5000
20
72.5000
0
LWPOLYLINE
8
CUT_SQUARES
90
4
70
1
10
87.5000
20
67.5000
10
92.5000
20
67.5000
10
92.5000
20
72.5000
10
87.5000
20
72.5000
0
LWPOLYLINE
8
CUT_SQUARES
90
4
70
1
10
97.5000
20
67.5000
10
102.5000
20
67.5000
10
102.5000
20
72.5000
10
97.5000
20
72.5000
0
LWPOLYLINE
8
CUT_SQUARES
90
4
70
1
10
107.5000
20
67.5000
10
112.5000
20
67.5000
10
112.5000
20
72.5000
10
107.5000
20
72.5000
0
LWPOLYLINE
8
CUT_SQUARES
90
4
70
1
10
117.5000
20
67.5000
10
122.5000
20
67.5000
10
122.5000
20
72.5000
10
117.5000
20
72.5000
0
LWPOLYLINE
8
CUT_SQUARES
90
4
70
1
10
127.5000
20
67.5000
10
132.5000
20
67.5000
10
132.5000
20
72.5000
10
127.5000
20
72.5000
0
LWPOLYLINE
8
CUT_SQUARES
90
4
70
1
10
137.5000
20
67.5000
10
142.5000
20
67.5000
10
142.5000
20
72.5000
10
137.5000
20
72.5000
0
LWPOLYLINE
8
CUT_SQUARES
90
4
70
1
10
147.5000
20
67.5000
10
152.5000
20
67.5000
10
152.5000
20
72.5000
10
147.5000
20
72.5000
0
LWPOLYLINE
8
CUT_SQUARES
90
4
70
1
10
157.5000
20
67.5000
10
162.5000
20
67.5000
10
162.5000
20
72.5000
10
157.5000
20
72.5000
0
LWPOLYLINE
8
CUT_SQUARES
90
4
70
1
10
167.5000
20
67.5000
10
172.5000
20
67.5000
10
172.5000
20
72.5000
10
167.5000
20
72.5000
0
LWPOLYLINE
8
CUT_SQUARES
90
4
70
1
10
177.5000
20
67.5000
10
182.5000
20
67.5000
10
182.5000
20
72.5000
10
177.5000
20
72.5000
0
LWPOLYLINE
8
CUT_SQUARES
90
4
70
1
10
187.5000
20
67.5000
10
192.5000
20
67.5000
10
192.5000
20
72.5000
10
187.5000
20
72.5000
0
LWPOLYLINE
8
CUT_SQUARES
90
4
70
1
10
37.5000
20
77.5000
10
42.5000
20
77.5000
10
42.5000
20
82.5000
10
37.5000
20
82.5000
0
LWPOLYLINE
8
CUT_SQUARES
90
4
70
1
10
47.5000
20
77.5000
10
52.5000
20
77.5000
10
52.5000
20
82.5000
10
47.5000
20
82.5000
0
LWPOLYLINE
8
CUT_SQUARES
90
4
70
1
10
57.5000
20
77.5000
10
62.5000
20
77.5000
10
62.5000
20
82.5000
10
57.5000
20
82.5000
0
LWPOLYLINE
8
CUT_SQUARES
90
4
70
1
10
67.5000
20
77.5000
10
72.5000
20
77.5000
10
72.5000
20
82.5000
10
67.5000
20
82.5000
0
LWPOLYLINE
8
CUT_SQUARES
90
4
70
1
10
77.5000
20
77.5000
10
82.5000
20
77.5000
10
82.5000
20
82.5000
10
77.5000
20
82.5000
0
LWPOLYLINE
8
CUT_SQUARES
90
4
70
1
10
87.5000
20
77.5000
10
92.5000
20
77.5000
10
92.5000
20
82.5000
10
87.5000
20
82.5000
0
LWPOLYLINE
8
CUT_SQUARES
90
4
70
1
10
97.5000
20
77.5000
10
102.5000
20
77.5000
10
102.5000
20
82.5000
10
97.5000
20
82.5000
0
LWPOLYLINE
8
CUT_SQUARES
90
4
70
1
10
107.5000
20
77.5000
10
112.5000
20
77.5000
10
112.5000
20
82.5000
10
107.5000
20
82.5000
0
LWPOLYLINE
8
CUT_SQUARES
90
4
70
1
10
117.5000
20
77.5000
10
122.5000
20
77.5000
10
122.5000
20
82.5000
10
117.5000
20
82.5000
0
LWPOLYLINE
8
CUT_SQUARES
90
4
70
1
10
127.5000
20
77.5000
10
132.5000
20
77.5000
10
132.5000
20
82.5000
10
127.5000
20
82.5000
0
LWPOLYLINE
8
CUT_SQUARES
90
4
70
1
10
137.5000
20
77.5000
10
142.5000
20
77.5000
10
142.5000
20
82.5000
10
137.5000
20
82.5000
0
LWPOLYLINE
8
CUT_SQUARES
90
4
70
1
10
147.5000
20
77.5000
10
152.5000
20
77.5000
10
152.5000
20
82.5000
10
147.5000
20
82.5000
0
LWPOLYLINE
8
CUT_SQUARES
90
4
70
1
10
157.5000
20
77.5000
10
162.5000
20
77.5000
10
162.5000
20
82.5000
10
157.5000
20
82.5000
0
LWPOLYLINE
8
CUT_SQUARES
90
4
70
1
10
167.5000
20
77.5000
10
172.5000
20
77.5000
10
172.5000
20
82.5000
10
167.5000
20
82.5000
0
LWPOLYLINE
8
CUT_SQUARES
90
4
70
1
10
177.5000
20
77.5000
10
182.5000
20
77.5000
10
182.5000
20
82.5000
10
177.5000
20
82.5000
0
LWPOLYLINE
8
CUT_SQUARES
90
4
70
1
10
187.5000
20
77.5000
10
192.5000
20
77.5000
10
192.5000
20
82.5000
10
187.5000
20
82.5000
0
LWPOLYLINE
8
CUT_SQUARES
90
4
70
1
10
37.5000
20
87.5000
10
42.5000
20
87.5000
10
42.5000
20
92.5000
10
37.5000
20
92.5000
0
LWPOLYLINE
8
CUT_SQUARES
90
4
70
1
10
47.5000
20
87.5000
10
52.5000
20
87.5000
10
52.5000
20
92.5000
10
47.5000
20
92.5000
0
LWPOLYLINE
8
CUT_SQUARES
90
4
70
1
10
57.5000
20
87.5000
10
62.5000
20
87.5000
10
62.5000
20
92.5000
10
57.5000
20
92.5000
0
LWPOLYLINE
8
CUT_SQUARES
90
4
70
1
10
67.5000
20
87.5000
10
72.5000
20
87.5000
10
72.5000
20
92.5000
10
67.5000
20
92.5000
0
LWPOLYLINE
8
CUT_SQUARES
90
4
70
1
10
77.5000
20
87.5000
10
82.5000
20
87.5000
10
82.5000
20
92.5000
10
77.5000
20
92.5000
0
LWPOLYLINE
8
CUT_SQUARES
90
4
70
1
10
87.5000
20
87.5000
10
92.5000
20
87.5000
10
92.5000
20
92.5000
10
87.5000
20
92.5000
0
LWPOLYLINE
8
CUT_SQUARES
90
4
70
1
10
97.5000
20
87.5000
10
102.5000
20
87.5000
10
102.5000
20
92.5000
10
97.5000
20
92.5000
0
LWPOLYLINE
8
CUT_SQUARES
90
4
70
1
10
107.5000
20
87.5000
10
112.5000
20
87.5000
10
112.5000
20
92.5000
10
107.5000
20
92.5000
0
LWPOLYLINE
8
CUT_SQUARES
90
4
70
1
10
117.5000
20
87.5000
10
122.5000
20
87.5000
10
122.5000
20
92.5000
10
117.5000
20
92.5000
0
LWPOLYLINE
8
CUT_SQUARES
90
4
70
1
10
127.5000
20
87.5000
10
132.5000
20
87.5000
10
132.5000
20
92.5000
10
127.5000
20
92.5000
0
LWPOLYLINE
8
CUT_SQUARES
90
4
70
1
10
137.5000
20
87.5000
10
142.5000
20
87.5000
10
142.5000
20
92.5000
10
137.5000
20
92.5000
0
LWPOLYLINE
8
CUT_SQUARES
90
4
70
1
10
147.5000
20
87.5000
10
152.5000
20
87.5000
10
152.5000
20
92.5000
10
147.5000
20
92.5000
0
LWPOLYLINE
8
CUT_SQUARES
90
4
70
1
10
157.5000
20
87.5000
10
162.5000
20
87.5000
10
162.5000
20
92.5000
10
157.5000
20
92.5000
0
LWPOLYLINE
8
CUT_SQUARES
90
4
70
1
10
167.5000
20
87.5000
10
172.5000
20
87.5000
10
172.5000
20
92.5000
10
167.5000
20
92.5000
0
LWPOLYLINE
8
CUT_SQUARES
90
4
70
1
10
177.5000
20
87.5000
10
182.5000
20
87.5000
10
182.5000
20
92.5000
10
177.5000
20
92.5000
0
LWPOLYLINE
8
CUT_SQUARES
90
4
70
1
10
187.5000
20
87.5000
10
192.5000
20
87.5000
10
192.5000
20
92.5000
10
187.5000
20
92.5000
0
LWPOLYLINE
8
CUT_SQUARES
90
4
70
1
10
37.5000
20
97.5000
10
42.5000
20
97.5000
10
42.5000
20
102.5000
10
37.5000
20
102.5000
0
LWPOLYLINE
8
CUT_SQUARES
90
4
70
1
10
47.5000
20
97.5000
10
52.5000
20
97.5000
10
52.5000
20
102.5000
10
47.5000
20
102.5000
0
LWPOLYLINE
8
CUT_SQUARES
90
4
70
1
10
57.5000
20
97.5000
10
62.5000
20
97.5000
10
62.5000
20
102.5000
10
57.5000
20
102.5000
0
LWPOLYLINE
8
CUT_SQUARES
90
4
70
1
10
67.5000
20
97.5000
10
72.5000
20
97.5000
10
72.5000
20
102.5000
10
67.5000
20
102.5000
0
LWPOLYLINE
8
CUT_SQUARES
90
4
70
1
10
77.5000
20
97.5000
10
82.5000
20
97.5000
10
82.5000
20
102.5000
10
77.5000
20
102.5000
0
LWPOLYLINE
8
CUT_SQUARES
90
4
70
1
10
87.5000
20
97.5000
10
92.5000
20
97.5000
10
92.5000
20
102.5000
10
87.5000
20
102.5000
0
LWPOLYLINE
8
CUT_SQUARES
90
4
70
1
10
97.5000
20
97.5000
10
102.5000
20
97.5000
10
102.5000
20
102.5000
10
97.5000
20
102.5000
0
LWPOLYLINE
8
CUT_SQUARES
90
4
70
1
10
107.5000
20
97.5000
10
112.5000
20
97.5000
10
112.5000
20
102.5000
10
107.5000
20
102.5000
0
LWPOLYLINE
8
CUT_SQUARES
90
4
70
1
10
117.5000
20
97.5000
10
122.5000
20
97.5000
10
122.5000
20
102.5000
10
117.5000
20
102.5000
0
LWPOLYLINE
8
CUT_SQUARES
90
4
70
1
10
127.5000
20
97.5000
10
132.5000
20
97.5000
10
132.5000
20
102.5000
10
127.5000
20
102.5000
0
LWPOLYLINE
8
CUT_SQUARES
90
4
70
1
10
137.5000
20
97.5000
10
142.5000
20
97.5000
10
142.5000
20
102.5000
10
137.5000
20
102.5000
0
LWPOLYLINE
8
CUT_SQUARES
90
4
70
1
10
147.5000
20
97.5000
10
152.5000
20
97.5000
10
152.5000
20
102.5000
10
147.5000
20
102.5000
0
LWPOLYLINE
8
CUT_SQUARES
90
4
70
1
10
157.5000
20
97.5000
10
162.5000
20
97.5000
10
162.5000
20
102.5000
10
157.5000
20
102.5000
0
LWPOLYLINE
8
CUT_SQUARES
90
4
70
1
10
167.5000
20
97.5000
10
172.5000
20
97.5000
10
172.5000
20
102.5000
10
167.5000
20
102.5000
0
LWPOLYLINE
8
CUT_SQUARES
90
4
70
1
10
177.5000
20
97.5000
10
182.5000
20
97.5000
10
182.5000
20
102.5000
10
177.5000
20
102.5000
0
LWPOLYLINE
8
CUT_SQUARES
90
4
70
1
10
187.5000
20
97.5000
10
192.5000
20
97.5000
10
192.5000
20
102.5000
10
187.5000
20
102.5000
0
LWPOLYLINE
8
CUT_SQUARES
90
4
70
1
10
37.5000
20
107.5000
10
42.5000
20
107.5000
10
42.5000
20
112.5000
10
37.5000
20
112.5000
0
LWPOLYLINE
8
CUT_SQUARES
90
4
70
1
10
47.5000
20
107.5000
10
52.5000
20
107.5000
10
52.5000
20
112.5000
10
47.5000
20
112.5000
0
LWPOLYLINE
8
CUT_SQUARES
90
4
70
1
10
57.5000
20
107.5000
10
62.5000
20
107.5000
10
62.5000
20
112.5000
10
57.5000
20
112.5000
0
LWPOLYLINE
8
CUT_SQUARES
90
4
70
1
10
67.5000
20
107.5000
10
72.5000
20
107.5000
10
72.5000
20
112.5000
10
67.5000
20
112.5000
0
LWPOLYLINE
8
CUT_SQUARES
90
4
70
1
10
77.5000
20
107.5000
10
82.5000
20
107.5000
10
82.5000
20
112.5000
10
77.5000
20
112.5000
0
LWPOLYLINE
8
CUT_SQUARES
90
4
70
1
10
87.5000
20
107.5000
10
92.5000
20
107.5000
10
92.5000
20
112.5000
10
87.5000
20
112.5000
0
LWPOLYLINE
8
CUT_SQUARES
90
4
70
1
10
97.5000
20
107.5000
10
102.5000
20
107.5000
10
102.5000
20
112.5000
10
97.5000
20
112.5000
0
LWPOLYLINE
8
CUT_SQUARES
90
4
70
1
10
107.5000
20
107.5000
10
112.5000
20
107.5000
10
112.5000
20
112.5000
10
107.5000
20
112.5000
0
LWPOLYLINE
8
CUT_SQUARES
90
4
70
1
10
117.5000
20
107.5000
10
122.5000
20
107.5000
10
122.5000
20
112.5000
10
117.5000
20
112.5000
0
LWPOLYLINE
8
CUT_SQUARES
90
4
70
1
10
127.5000
20
107.5000
10
132.5000
20
107.5000
10
132.5000
20
112.5000
10
127.5000
20
112.5000
0
LWPOLYLINE
8
CUT_SQUARES
90
4
70
1
10
137.5000
20
107.5000
10
142.5000
20
107.5000
10
142.5000
20
112.5000
10
137.5000
20
112.5000
0
LWPOLYLINE
8
CUT_SQUARES
90
4
70
1
10
147.5000
20
107.5000
10
152.5000
20
107.5000
10
152.5000
20
112.5000
10
147.5000
20
112.5000
0
LWPOLYLINE
8
CUT_SQUARES
90
4
70
1
10
157.5000
20
107.5000
10
162.5000
20
107.5000
10
162.5000
20
112.5000
10
157.5000
20
112.5000
0
LWPOLYLINE
8
CUT_SQUARES
90
4
70
1
10
167.5000
20
107.5000
10
172.5000
20
107.5000
10
172.5000
20
112.5000
10
167.5000
20
112.5000
0
LWPOLYLINE
8
CUT_SQUARES
90
4
70
1
10
177.5000
20
107.5000
10
182.5000
20
107.5000
10
182.5000
20
112.5000
10
177.5000
20
112.5000
0
LWPOLYLINE
8
CUT_SQUARES
90
4
70
1
10
187.5000
20
107.5000
10
192.5000
20
107.5000
10
192.5000
20
112.5000
10
187.5000
20
112.5000
0
LWPOLYLINE
8
CUT_SQUARES
90
4
70
1
10
37.5000
20
117.5000
10
42.5000
20
117.5000
10
42.5000
20
122.5000
10
37.5000
20
122.5000
0
LWPOLYLINE
8
CUT_SQUARES
90
4
70
1
10
47.5000
20
117.5000
10
52.5000
20
117.5000
10
52.5000
20
122.5000
10
47.5000
20
122.5000
0
LWPOLYLINE
8
CUT_SQUARES
90
4
70
1
10
57.5000
20
117.5000
10
62.5000
20
117.5000
10
62.5000
20
122.5000
10
57.5000
20
122.5000
0
LWPOLYLINE
8
CUT_SQUARES
90
4
70
1
10
67.5000
20
117.5000
10
72.5000
20
117.5000
10
72.5000
20
122.5000
10
67.5000
20
122.5000
0
LWPOLYLINE
8
CUT_SQUARES
90
4
70
1
10
77.5000
20
117.5000
10
82.5000
20
117.5000
10
82.5000
20
122.5000
10
77.5000
20
122.5000
0
LWPOLYLINE
8
CUT_SQUARES
90
4
70
1
10
87.5000
20
117.5000
10
92.5000
20
117.5000
10
92.5000
20
122.5000
10
87.5000
20
122.5000
0
LWPOLYLINE
8
CUT_SQUARES
90
4
70
1
10
97.5000
20
117.5000
10
102.5000
20
117.5000
10
102.5000
20
122.5000
10
97.5000
20
122.5000
0
LWPOLYLINE
8
CUT_SQUARES
90
4
70
1
10
107.5000
20
117.5000
10
112.5000
20
117.5000
10
112.5000
20
122.5000
10
107.5000
20
122.5000
0
LWPOLYLINE
8
CUT_SQUARES
90
4
70
1
10
117.5000
20
117.5000
10
122.5000
20
117.5000
10
122.5000
20
122.5000
10
117.5000
20
122.5000
0
LWPOLYLINE
8
CUT_SQUARES
90
4
70
1
10
127.5000
20
117.5000
10
132.5000
20
117.5000
10
132.5000
20
122.5000
10
127.5000
20
122.5000
0
LWPOLYLINE
8
CUT_SQUARES
90
4
70
1
10
137.5000
20
117.5000
10
142.5000
20
117.5000
10
142.5000
20
122.5000
10
137.5000
20
122.5000
0
LWPOLYLINE
8
CUT_SQUARES
90
4
70
1
10
147.5000
20
117.5000
10
152.5000
20
117.5000
10
152.5000
20
122.5000
10
147.5000
20
122.5000
0
LWPOLYLINE
8
CUT_SQUARES
90
4
70
1
10
157.5000
20
117.5000
10
162.5000
20
117.5000
10
162.5000
20
122.5000
10
157.5000
20
122.5000
0
LWPOLYLINE
8
CUT_SQUARES
90
4
70
1
10
167.5000
20
117.5000
10
172.5000
20
117.5000
10
172.5000
20
122.5000
10
167.5000
20
122.5000
0
LWPOLYLINE
8
CUT_SQUARES
90
4
70
1
10
177.5000
20
117.5000
10
182.5000
20
117.5000
10
182.5000
20
122.5000
10
177.5000
20
122.5000
0
LWPOLYLINE
8
CUT_SQUARES
90
4
70
1
10
187.5000
20
117.5000
10
192.5000
20
117.5000
10
192.5000
20
122.5000
10
187.5000
20
122.5000
0
LWPOLYLINE
8
CUT_SQUARES
90
4
70
1
10
37.5000
20
127.5000
10
42.5000
20
127.5000
10
42.5000
20
132.5000
10
37.5000
20
132.5000
0
LWPOLYLINE
8
CUT_SQUARES
90
4
70
1
10
47.5000
20
127.5000
10
52.5000
20
127.5000
10
52.5000
20
132.5000
10
47.5000
20
132.5000
0
LWPOLYLINE
8
CUT_SQUARES
90
4
70
1
10
57.5000
20
127.5000
10
62.5000
20
127.5000
10
62.5000
20
132.5000
10
57.5000
20
132.5000
0
LWPOLYLINE
8
CUT_SQUARES
90
4
70
1
10
67.5000
20
127.5000
10
72.5000
20
127.5000
10
72.5000
20
132.5000
10
67.5000
20
132.5000
0
LWPOLYLINE
8
CUT_SQUARES
90
4
70
1
10
77.5000
20
127.5000
10
82.5000
20
127.5000
10
82.5000
20
132.5000
10
77.5000
20
132.5000
0
LWPOLYLINE
8
CUT_SQUARES
90
4
70
1
10
87.5000
20
127.5000
10
92.5000
20
127.5000
10
92.5000
20
132.5000
10
87.5000
20
132.5000
0
LWPOLYLINE
8
CUT_SQUARES
90
4
70
1
10
97.5000
20
127.5000
10
102.5000
20
127.5000
10
102.5000
20
132.5000
10
97.5000
20
132.5000
0
LWPOLYLINE
8
CUT_SQUARES
90
4
70
1
10
107.5000
20
127.5000
10
112.5000
20
127.5000
10
112.5000
20
132.5000
10
107.5000
20
132.5000
0
LWPOLYLINE
8
CUT_SQUARES
90
4
70
1
10
117.5000
20
127.5000
10
122.5000
20
127.5000
10
122.5000
20
132.5000
10
117.5000
20
132.5000
0
LWPOLYLINE
8
CUT_SQUARES
90
4
70
1
10
127.5000
20
127.5000
10
132.5000
20
127.5000
10
132.5000
20
132.5000
10
127.5000
20
132.5000
0
LWPOLYLINE
8
CUT_SQUARES
90
4
70
1
10
137.5000
20
127.5000
10
142.5000
20
127.5000
10
142.5000
20
132.5000
10
137.5000
20
132.5000
0
LWPOLYLINE
8
CUT_SQUARES
90
4
70
1
10
147.5000
20
127.5000
10
152.5000
20
127.5000
10
152.5000
20
132.5000
10
147.5000
20
132.5000
0
LWPOLYLINE
8
CUT_SQUARES
90
4
70
1
10
157.5000
20
127.5000
10
162.5000
20
127.5000
10
162.5000
20
132.5000
10
157.5000
20
132.5000
0
LWPOLYLINE
8
CUT_SQUARES
90
4
70
1
10
167.5000
20
127.5000
10
172.5000
20
127.5000
10
172.5000
20
132.5000
10
167.5000
20
132.5000
0
LWPOLYLINE
8
CUT_SQUARES
90
4
70
1
10
177.5000
20
127.5000
10
182.5000
20
127.5000
10
182.5000
20
132.5000
10
177.5000
20
132.5000
0
LWPOLYLINE
8
CUT_SQUARES
90
4
70
1
10
187.5000
20
127.5000
10
192.5000
20
127.5000
10
192.5000
20
132.5000
10
187.5000
20
132.5000
0
LWPOLYLINE
8
CUT_SQUARES
90
4
70
1
10
37.5000
20
137.5000
10
42.5000
20
137.5000
10
42.5000
20
142.5000
10
37.5000
20
142.5000
0
LWPOLYLINE
8
CUT_SQUARES
90
4
70
1
10
47.5000
20
137.5000
10
52.5000
20
137.5000
10
52.5000
20
142.5000
10
47.5000
20
142.5000
0
LWPOLYLINE
8
CUT_SQUARES
90
4
70
1
10
57.5000
20
137.5000
10
62.5000
20
137.5000
10
62.5000
20
142.5000
10
57.5000
20
142.5000
0
LWPOLYLINE
8
CUT_SQUARES
90
4
70
1
10
67.5000
20
137.5000
10
72.5000
20
137.5000
10
72.5000
20
142.5000
10
67.5000
20
142.5000
0
LWPOLYLINE
8
CUT_SQUARES
90
4
70
1
10
77.5000
20
137.5000
10
82.5000
20
137.5000
10
82.5000
20
142.5000
10
77.5000
20
142.5000
0
LWPOLYLINE
8
CUT_SQUARES
90
4
70
1
10
87.5000
20
137.5000
10
92.5000
20
137.5000
10
92.5000
20
142.5000
10
87.5000
20
142.5000
0
LWPOLYLINE
8
CUT_SQUARES
90
4
70
1
10
97.5000
20
137.5000
10
102.5000
20
137.5000
10
102.5000
20
142.5000
10
97.5000
20
142.5000
0
LWPOLYLINE
8
CUT_SQUARES
90
4
70
1
10
107.5000
20
137.5000
10
112.5000
20
137.5000
10
112.5000
20
142.5000
10
107.5000
20
142.5000
0
LWPOLYLINE
8
CUT_SQUARES
90
4
70
1
10
117.5000
20
137.5000
10
122.5000
20
137.5000
10
122.5000
20
142.5000
10
117.5000
20
142.5000
0
LWPOLYLINE
8
CUT_SQUARES
90
4
70
1
10
127.5000
20
137.5000
10
132.5000
20
137.5000
10
132.5000
20
142.5000
10
127.5000
20
142.5000
0
LWPOLYLINE
8
CUT_SQUARES
90
4
70
1
10
137.5000
20
137.5000
10
142.5000
20
137.5000
10
142.5000
20
142.5000
10
137.5000
20
142.5000
0
LWPOLYLINE
8
CUT_SQUARES
90
4
70
1
10
147.5000
20
137.5000
10
152.5000
20
137.5000
10
152.5000
20
142.5000
10
147.5000
20
142.5000
0
LWPOLYLINE
8
CUT_SQUARES
90
4
70
1
10
157.5000
20
137.5000
10
162.5000
20
137.5000
10
162.5000
20
142.5000
10
157.5000
20
142.5000
0
LWPOLYLINE
8
CUT_SQUARES
90
4
70
1
10
167.5000
20
137.5000
10
172.5000
20
137.5000
10
172.5000
20
142.5000
10
167.5000
20
142.5000
0
LWPOLYLINE
8
CUT_SQUARES
90
4
70
1
10
177.5000
20
137.5000
10
182.5000
20
137.5000
10
182.5000
20
142.5000
10
177.5000
20
142.5000
0
LWPOLYLINE
8
CUT_SQUARES
90
4
70
1
10
187.5000
20
137.5000
10
192.5000
20
137.5000
10
192.5000
20
142.5000
10
187.5000
20
142.5000
0
LWPOLYLINE
8
CUT_SQUARES
90
4
70
1
10
37.5000
20
147.5000
10
42.5000
20
147.5000
10
42.5000
20
152.5000
10
37.5000
20
152.5000
0
LWPOLYLINE
8
CUT_SQUARES
90
4
70
1
10
47.5000
20
147.5000
10
52.5000
20
147.5000
10
52.5000
20
152.5000
10
47.5000
20
152.5000
0
LWPOLYLINE
8
CUT_SQUARES
90
4
70
1
10
57.5000
20
147.5000
10
62.5000
20
147.5000
10
62.5000
20
152.5000
10
57.5000
20
152.5000
0
LWPOLYLINE
8
CUT_SQUARES
90
4
70
1
10
67.5000
20
147.5000
10
72.5000
20
147.5000
10
72.5000
20
152.5000
10
67.5000
20
152.5000
0
LWPOLYLINE
8
CUT_SQUARES
90
4
70
1
10
77.5000
20
147.5000
10
82.5000
20
147.5000
10
82.5000
20
152.5000
10
77.5000
20
152.5000
0
LWPOLYLINE
8
CUT_SQUARES
90
4
70
1
10
87.5000
20
147.5000
10
92.5000
20
147.5000
10
92.5000
20
152.5000
10
87.5000
20
152.5000
0
LWPOLYLINE
8
CUT_SQUARES
90
4
70
1
10
97.5000
20
147.5000
10
102.5000
20
147.5000
10
102.5000
20
152.5000
10
97.5000
20
152.5000
0
LWPOLYLINE
8
CUT_SQUARES
90
4
70
1
10
107.5000
20
147.5000
10
112.5000
20
147.5000
10
112.5000
20
152.5000
10
107.5000
20
152.5000
0
LWPOLYLINE
8
CUT_SQUARES
90
4
70
1
10
117.5000
20
147.5000
10
122.5000
20
147.5000
10
122.5000
20
152.5000
10
117.5000
20
152.5000
0
LWPOLYLINE
8
CUT_SQUARES
90
4
70
1
10
127.5000
20
147.5000
10
132.5000
20
147.5000
10
132.5000
20
152.5000
10
127.5000
20
152.5000
0
LWPOLYLINE
8
CUT_SQUARES
90
4
70
1
10
137.5000
20
147.5000
10
142.5000
20
147.5000
10
142.5000
20
152.5000
10
137.5000
20
152.5000
0
LWPOLYLINE
8
CUT_SQUARES
90
4
70
1
10
147.5000
20
147.5000
10
152.5000
20
147.5000
10
152.5000
20
152.5000
10
147.5000
20
152.5000
0
LWPOLYLINE
8
CUT_SQUARES
90
4
70
1
10
157.5000
20
147.5000
10
162.5000
20
147.5000
10
162.5000
20
152.5000
10
157.5000
20
152.5000
0
LWPOLYLINE
8
CUT_SQUARES
90
4
70
1
10
167.5000
20
147.5000
10
172.5000
20
147.5000
10
172.5000
20
152.5000
10
167.5000
20
152.5000
0
LWPOLYLINE
8
CUT_SQUARES
90
4
70
1
10
177.5000
20
147.5000
10
182.5000
20
147.5000
10
182.5000
20
152.5000
10
177.5000
20
152.5000
0
LWPOLYLINE
8
CUT_SQUARES
90
4
70
1
10
187.5000
20
147.5000
10
192.5000
20
147.5000
10
192.5000
20
152.5000
10
187.5000
20
152.5000
0
LWPOLYLINE
8
CUT_SQUARES
90
4
70
1
10
37.5000
20
157.5000
10
42.5000
20
157.5000
10
42.5000
20
162.5000
10
37.5000
20
162.5000
0
LWPOLYLINE
8
CUT_SQUARES
90
4
70
1
10
47.5000
20
157.5000
10
52.5000
20
157.5000
10
52.5000
20
162.5000
10
47.5000
20
162.5000
0
LWPOLYLINE
8
CUT_SQUARES
90
4
70
1
10
57.5000
20
157.5000
10
62.5000
20
157.5000
10
62.5000
20
162.5000
10
57.5000
20
162.5000
0
LWPOLYLINE
8
CUT_SQUARES
90
4
70
1
10
67.5000
20
157.5000
10
72.5000
20
157.5000
10
72.5000
20
162.5000
10
67.5000
20
162.5000
0
LWPOLYLINE
8
CUT_SQUARES
90
4
70
1
10
77.5000
20
157.5000
10
82.5000
20
157.5000
10
82.5000
20
162.5000
10
77.5000
20
162.5000
0
LWPOLYLINE
8
CUT_SQUARES
90
4
70
1
10
87.5000
20
157.5000
10
92.5000
20
157.5000
10
92.5000
20
162.5000
10
87.5000
20
162.5000
0
LWPOLYLINE
8
CUT_SQUARES
90
4
70
1
10
97.5000
20
157.5000
10
102.5000
20
157.5000
10
102.5000
20
162.5000
10
97.5000
20
162.5000
0
LWPOLYLINE
8
CUT_SQUARES
90
4
70
1
10
107.5000
20
157.5000
10
112.5000
20
157.5000
10
112.5000
20
162.5000
10
107.5000
20
162.5000
0
LWPOLYLINE
8
CUT_SQUARES
90
4
70
1
10
117.5000
20
157.5000
10
122.5000
20
157.5000
10
122.5000
20
162.5000
10
117.5000
20
162.5000
0
LWPOLYLINE
8
CUT_SQUARES
90
4
70
1
10
127.5000
20
157.5000
10
132.5000
20
157.5000
10
132.5000
20
162.5000
10
127.5000
20
162.5000
0
LWPOLYLINE
8
CUT_SQUARES
90
4
70
1
10
137.5000
20
157.5000
10
142.5000
20
157.5000
10
142.5000
20
162.5000
10
137.5000
20
162.5000
0
LWPOLYLINE
8
CUT_SQUARES
90
4
70
1
10
147.5000
20
157.5000
10
152.5000
20
157.5000
10
152.5000
20
162.5000
10
147.5000
20
162.5000
0
LWPOLYLINE
8
CUT_SQUARES
90
4
70
1
10
157.5000
20
157.5000
10
162.5000
20
157.5000
10
162.5000
20
162.5000
10
157.5000
20
162.5000
0
LWPOLYLINE
8
CUT_SQUARES
90
4
70
1
10
167.5000
20
157.5000
10
172.5000
20
157.5000
10
172.5000
20
162.5000
10
167.5000
20
162.5000
0
LWPOLYLINE
8
CUT_SQUARES
90
4
70
1
10
177.5000
20
157.5000
10
182.5000
20
157.5000
10
182.5000
20
162.5000
10
177.5000
20
162.5000
0
LWPOLYLINE
8
CUT_SQUARES
90
4
70
1
10
187.5000
20
157.5000
10
192.5000
20
157.5000
10
192.5000
20
162.5000
10
187.5000
20
162.5000
0
LWPOLYLINE
8
CUT_SQUARES
90
4
70
1
10
37.5000
20
167.5000
10
42.5000
20
167.5000
10
42.5000
20
172.5000
10
37.5000
20
172.5000
0
LWPOLYLINE
8
CUT_SQUARES
90
4
70
1
10
47.5000
20
167.5000
10
52.5000
20
167.5000
10
52.5000
20
172.5000
10
47.5000
20
172.5000
0
LWPOLYLINE
8
CUT_SQUARES
90
4
70
1
10
57.5000
20
167.5000
10
62.5000
20
167.5000
10
62.5000
20
172.5000
10
57.5000
20
172.5000
0
LWPOLYLINE
8
CUT_SQUARES
90
4
70
1
10
67.5000
20
167.5000
10
72.5000
20
167.5000
10
72.5000
20
172.5000
10
67.5000
20
172.5000
0
LWPOLYLINE
8
CUT_SQUARES
90
4
70
1
10
77.5000
20
167.5000
10
82.5000
20
167.5000
10
82.5000
20
172.5000
10
77.5000
20
172.5000
0
LWPOLYLINE
8
CUT_SQUARES
90
4
70
1
10
87.5000
20
167.5000
10
92.5000
20
167.5000
10
92.5000
20
172.5000
10
87.5000
20
172.5000
0
LWPOLYLINE
8
CUT_SQUARES
90
4
70
1
10
97.5000
20
167.5000
10
102.5000
20
167.5000
10
102.5000
20
172.5000
10
97.5000
20
172.5000
0
LWPOLYLINE
8
CUT_SQUARES
90
4
70
1
10
107.5000
20
167.5000
10
112.5000
20
167.5000
10
112.5000
20
172.5000
10
107.5000
20
172.5000
0
LWPOLYLINE
8
CUT_SQUARES
90
4
70
1
10
117.5000
20
167.5000
10
122.5000
20
167.5000
10
122.5000
20
172.5000
10
117.5000
20
172.5000
0
LWPOLYLINE
8
CUT_SQUARES
90
4
70
1
10
127.5000
20
167.5000
10
132.5000
20
167.5000
10
132.5000
20
172.5000
10
127.5000
20
172.5000
0
LWPOLYLINE
8
CUT_SQUARES
90
4
70
1
10
137.5000
20
167.5000
10
142.5000
20
167.5000
10
142.5000
20
172.5000
10
137.5000
20
172.5000
0
LWPOLYLINE
8
CUT_SQUARES
90
4
70
1
10
147.5000
20
167.5000
10
152.5000
20
167.5000
10
152.5000
20
172.5000
10
147.5000
20
172.5000
0
LWPOLYLINE
8
CUT_SQUARES
90
4
70
1
10
157.5000
20
167.5000
10
162.5000
20
167.5000
10
162.5000
20
172.5000
10
157.5000
20
172.5000
0
LWPOLYLINE
8
CUT_SQUARES
90
4
70
1
10
167.5000
20
167.5000
10
172.5000
20
167.5000
10
172.5000
20
172.5000
10
167.5000
20
172.5000
0
LWPOLYLINE
8
CUT_SQUARES
90
4
70
1
10
177.5000
20
167.5000
10
182.5000
20
167.5000
10
182.5000
20
172.5000
10
177.5000
20
172.5000
0
LWPOLYLINE
8
CUT_SQUARES
90
4
70
1
10
187.5000
20
167.5000
10
192.5000
20
167.5000
10
192.5000
20
172.5000
10
187.5000
20
172.5000
0
LWPOLYLINE
8
CUT_SQUARES
90
4
70
1
10
37.5000
20
177.5000
10
42.5000
20
177.5000
10
42.5000
20
182.5000
10
37.5000
20
182.5000
0
LWPOLYLINE
8
CUT_SQUARES
90
4
70
1
10
47.5000
20
177.5000
10
52.5000
20
177.5000
10
52.5000
20
182.5000
10
47.5000
20
182.5000
0
LWPOLYLINE
8
CUT_SQUARES
90
4
70
1
10
57.5000
20
177.5000
10
62.5000
20
177.5000
10
62.5000
20
182.5000
10
57.5000
20
182.5000
0
LWPOLYLINE
8
CUT_SQUARES
90
4
70
1
10
67.5000
20
177.5000
10
72.5000
20
177.5000
10
72.5000
20
182.5000
10
67.5000
20
182.5000
0
LWPOLYLINE
8
CUT_SQUARES
90
4
70
1
10
77.5000
20
177.5000
10
82.5000
20
177.5000
10
82.5000
20
182.5000
10
77.5000
20
182.5000
0
LWPOLYLINE
8
CUT_SQUARES
90
4
70
1
10
87.5000
20
177.5000
10
92.5000
20
177.5000
10
92.5000
20
182.5000
10
87.5000
20
182.5000
0
LWPOLYLINE
8
CUT_SQUARES
90
4
70
1
10
97.5000
20
177.5000
10
102.5000
20
177.5000
10
102.5000
20
182.5000
10
97.5000
20
182.5000
0
LWPOLYLINE
8
CUT_SQUARES
90
4
70
1
10
107.5000
20
177.5000
10
112.5000
20
177.5000
10
112.5000
20
182.5000
10
107.5000
20
182.5000
0
LWPOLYLINE
8
CUT_SQUARES
90
4
70
1
10
117.5000
20
177.5000
10
122.5000
20
177.5000
10
122.5000
20
182.5000
10
117.5000
20
182.5000
0
LWPOLYLINE
8
CUT_SQUARES
90
4
70
1
10
127.5000
20
177.5000
10
132.5000
20
177.5000
10
132.5000
20
182.5000
10
127.5000
20
182.5000
0
LWPOLYLINE
8
CUT_SQUARES
90
4
70
1
10
137.5000
20
177.5000
10
142.5000
20
177.5000
10
142.5000
20
182.5000
10
137.5000
20
182.5000
0
LWPOLYLINE
8
CUT_SQUARES
90
4
70
1
10
147.5000
20
177.5000
10
152.5000
20
177.5000
10
152.5000
20
182.5000
10
147.5000
20
182.5000
0
LWPOLYLINE
8
CUT_SQUARES
90
4
70
1
10
157.5000
20
177.5000
10
162.5000
20
177.5000
10
162.5000
20
182.5000
10
157.5000
20
182.5000
0
LWPOLYLINE
8
CUT_SQUARES
90
4
70
1
10
167.5000
20
177.5000
10
172.5000
20
177.5000
10
172.5000
20
182.5000
10
167.5000
20
182.5000
0
LWPOLYLINE
8
CUT_SQUARES
90
4
70
1
10
177.5000
20
177.5000
10
182.5000
20
177.5000
10
182.5000
20
182.5000
10
177.5000
20
182.5000
0
LWPOLYLINE
8
CUT_SQUARES
90
4
70
1
10
187.5000
20
177.5000
10
192.5000
20
177.5000
10
192.5000
20
182.5000
10
187.5000
20
182.5000
0
LWPOLYLINE
8
CUT_SQUARES
90
4
70
1
10
37.5000
20
187.5000
10
42.5000
20
187.5000
10
42.5000
20
192.5000
10
37.5000
20
192.5000
0
LWPOLYLINE
8
CUT_SQUARES
90
4
70
1
10
47.5000
20
187.5000
10
52.5000
20
187.5000
10
52.5000
20
192.5000
10
47.5000
20
192.5000
0
LWPOLYLINE
8
CUT_SQUARES
90
4
70
1
10
57.5000
20
187.5000
10
62.5000
20
187.5000
10
62.5000
20
192.5000
10
57.5000
20
192.5000
0
LWPOLYLINE
8
CUT_SQUARES
90
4
70
1
10
67.5000
20
187.5000
10
72.5000
20
187.5000
10
72.5000
20
192.5000
10
67.5000
20
192.5000
0
LWPOLYLINE
8
CUT_SQUARES
90
4
70
1
10
77.5000
20
187.5000
10
82.5000
20
187.5000
10
82.5000
20
192.5000
10
77.5000
20
192.5000
0
LWPOLYLINE
8
CUT_SQUARES
90
4
70
1
10
87.5000
20
187.5000
10
92.5000
20
187.5000
10
92.5000
20
192.5000
10
87.5000
20
192.5000
0
LWPOLYLINE
8
CUT_SQUARES
90
4
70
1
10
97.5000
20
187.5000
10
102.5000
20
187.5000
10
102.5000
20
192.5000
10
97.5000
20
192.5000
0
LWPOLYLINE
8
CUT_SQUARES
90
4
70
1
10
107.5000
20
187.5000
10
112.5000
20
187.5000
10
112.5000
20
192.5000
10
107.5000
20
192.5000
0
LWPOLYLINE
8
CUT_SQUARES
90
4
70
1
10
117.5000
20
187.5000
10
122.5000
20
187.5000
10
122.5000
20
192.5000
10
117.5000
20
192.5000
0
LWPOLYLINE
8
CUT_SQUARES
90
4
70
1
10
127.5000
20
187.5000
10
132.5000
20
187.5000
10
132.5000
20
192.5000
10
127.5000
20
192.5000
0
LWPOLYLINE
8
CUT_SQUARES
90
4
70
1
10
137.5000
20
187.5000
10
142.5000
20
187.5000
10
142.5000
20
192.5000
10
137.5000
20
192.5000
0
LWPOLYLINE
8
CUT_SQUARES
90
4
70
1
10
147.5000
20
187.5000
10
152.5000
20
187.5000
10
152.5000
20
192.5000
10
147.5000
20
192.5000
0
LWPOLYLINE
8
CUT_SQUARES
90
4
70
1
10
157.5000
20
187.5000
10
162.5000
20
187.5000
10
162.5000
20
192.5000
10
157.5000
20
192.5000
0
LWPOLYLINE
8
CUT_SQUARES
90
4
70
1
10
167.5000
20
187.5000
10
172.5000
20
187.5000
10
172.5000
20
192.5000
10
167.5000
20
192.5000
0
LWPOLYLINE
8
CUT_SQUARES
90
4
70
1
10
177.5000
20
187.5000
10
182.5000
20
187.5000
10
182.5000
20
192.5000
10
177.5000
20
192.5000
0
LWPOLYLINE
8
CUT_SQUARES
90
4
70
1
10
187.5000
20
187.5000
10
192.5000
20
187.5000
10
192.5000
20
192.5000
10
187.5000
20
192.5000
0
ENDSEC
0
EOF
